<svg xmlns="http://www.w3.org/2000/svg" xmlns:xlink="http://www.w3.org/1999/xlink" version="1.1" id="Layer_1" x="0px" y="0px" width="100%" viewBox="0 0 1176 1496" enable-background="new 0 0 1176 1496" xml:space="preserve"><script xmlns="" id="nimlmejbmnecnaghgmbahmbaddhjbecg"/><script xmlns=""/><script xmlns=""/>
<path fill="#316ABB" opacity="1.000000" stroke="none" d=" M651.000000,1.000003   C658.020935,1.000000 665.041931,1.000000 672.407471,1.423091   C673.430725,2.222691 674.091553,2.887859 674.790833,2.931013   C681.725220,3.358952 688.671753,3.595754 695.603271,4.060387   C704.327087,4.645164 713.084167,5.046583 721.747498,6.150227   C734.899780,7.825729 748.039917,9.728639 761.083374,12.096018   C779.287170,15.399991 797.468323,18.899508 815.530640,22.896036   C842.937622,28.960203 869.596130,37.541267 895.620056,48.080746   C921.801086,58.683849 947.518738,70.384720 970.906128,86.278717   C990.334412,99.482094 1009.101135,113.728577 1027.506592,128.337448   C1036.398804,135.395462 1043.926880,144.215118 1051.813354,152.484390   C1058.514771,159.511047 1065.184326,166.618179 1071.274414,174.168427   C1089.825073,197.166687 1105.872070,221.866623 1118.833984,248.411621   C1125.480591,262.023193 1131.165771,276.145355 1136.578613,290.307007   C1142.437500,305.636383 1147.909912,321.146576 1152.720215,336.832581   C1156.155151,348.033691 1158.259888,359.645874 1160.879883,371.092560   C1162.468018,378.030487 1164.133667,384.963196 1165.352295,391.969971   C1166.701172,399.726196 1167.570679,407.565491 1168.665771,415.366272   C1169.871216,423.954346 1171.088867,432.540710 1172.314941,441.125854   C1172.767456,444.294525 1173.397949,447.444366 1173.701050,450.626251   C1174.186523,455.723785 1174.466675,460.840881 1174.597534,466.283478   C1174.638428,473.514496 1174.851807,480.415558 1175.267700,487.304413   C1175.323853,488.234406 1176.397461,489.102997 1177.000000,490.000000   C1177.000000,490.000000 1177.000000,490.500000 1176.630737,490.981628   C1176.507690,502.975494 1176.753906,514.487732 1177.000000,526.000000   C1177.000000,773.020935 1177.000000,1020.041809 1176.617554,1267.324341   C1175.817749,1268.417847 1175.128174,1269.216797 1175.022827,1270.086426   C1171.884521,1295.980469 1159.356812,1316.827393 1139.812622,1333.397461   C1120.696899,1349.604248 1098.672974,1361.583984 1076.753296,1373.407471   C1057.650391,1383.711548 1037.999512,1393.132568 1018.070007,1401.738037   C993.872986,1412.186157 969.373474,1422.052612 944.553345,1430.904907   C920.495483,1439.485352 896.028076,1447.038330 871.438904,1453.973022   C848.717773,1460.380859 825.678101,1465.735962 802.626465,1470.871094   C783.899963,1475.042725 764.991333,1478.452515 746.080688,1481.721313   C733.445923,1483.905273 720.678711,1485.351318 707.947021,1486.936890   C698.302124,1488.138184 688.623413,1489.074097 678.953247,1490.064453   C665.999329,1491.391235 653.054260,1492.847534 640.076233,1493.881226   C631.325012,1494.578369 622.520142,1494.583984 613.748840,1495.071899   C612.799683,1495.124634 611.914673,1496.329468 611.000000,1497.000000   C579.312439,1497.000000 547.624878,1497.000000 515.615906,1496.580322   C514.615784,1495.784302 513.955200,1495.118042 513.255798,1495.074341   C501.402954,1494.336304 489.538544,1493.774902 477.691071,1492.963867   C469.490082,1492.402222 461.271423,1491.814087 453.130829,1490.717285   C437.839539,1488.656738 422.556366,1486.467896 407.351746,1483.855469   C396.463928,1481.984741 385.709656,1479.336548 375.193024,1476.796265   C375.987305,1474.024536 377.029999,1471.460083 376.884521,1468.964844   C376.332581,1459.499023 375.423981,1450.053345 374.597198,1440.604492   C373.088684,1423.364868 371.500610,1406.132080 370.024414,1388.889648   C368.207520,1367.667847 366.495148,1346.437256 364.692627,1325.214233   C363.157745,1307.142578 361.567169,1289.075806 359.986450,1271.008179   C358.434692,1253.271851 356.807251,1235.541870 355.320282,1217.800171   C354.153107,1203.874634 353.149414,1189.935181 352.377716,1176.142822   C358.837036,1180.872925 364.785553,1185.774902 371.184875,1189.992920   C390.627045,1202.807495 411.286499,1213.080078 433.502228,1220.388184   C453.264252,1226.889282 473.206940,1232.443726 493.850372,1235.008789   C515.346741,1237.679932 536.911926,1239.796875 558.793640,1242.261719   C578.833069,1242.426514 598.526428,1242.592285 618.218262,1242.479004   C623.982971,1242.445801 629.743103,1241.618530 635.995667,1241.097168   C651.922424,1239.670410 667.469421,1239.038818 682.767334,1236.745728   C701.733032,1233.903198 720.575928,1230.064087 739.314148,1225.938721   C754.038574,1222.697021 768.712891,1218.964478 783.078735,1214.407349   C822.554871,1201.885132 860.488159,1185.981079 894.376465,1161.553589   C897.761353,1159.113647 899.101929,1156.751465 899.097778,1152.651489   C898.999451,1055.653809 899.021545,958.655945 899.021545,861.658081   C899.021545,859.858887 899.021545,858.059692 899.021545,855.141235   C855.338440,845.970947 811.971191,836.671997 768.509094,827.839600   C751.307678,824.343933 733.953003,821.468811 716.563354,819.070496   C698.467957,816.574951 680.277649,814.608521 662.070618,813.124939   C643.621338,811.621826 625.106689,810.291626 606.610291,810.138123   C575.936157,809.883545 545.172668,808.369507 514.642944,812.969482   C498.582581,815.389221 482.453064,817.549622 466.557648,820.814819   C445.494324,825.141602 425.115845,831.772339 405.431122,840.672424   C382.335938,851.114563 360.779083,863.762268 342.220276,881.171631   C337.438446,885.657349 332.834564,890.332703 328.068359,894.513428   C327.328918,887.994507 326.557251,881.892822 326.032715,875.770020   C324.528748,858.213562 323.179504,840.643860 321.667511,823.088135   C319.841797,801.888977 317.859711,780.703369 316.041016,759.503662   C314.208069,738.137817 312.519867,716.759644 310.717896,695.391113   C308.832214,673.030090 307.051300,650.657837 304.854492,628.326965   C304.285431,622.542175 302.331726,616.893555 301.392334,611.104858   C309.392029,608.588928 316.936951,605.869934 324.650055,603.768066   C343.230682,598.704895 361.700531,592.957031 380.565216,589.283875   C404.655334,584.593262 429.042114,581.307617 453.392090,578.109985   C470.843048,575.818237 488.418579,574.291138 505.985046,573.121887   C519.885803,572.196594 533.857605,572.056885 547.797363,572.073425   C563.237854,572.091797 578.678528,572.648743 594.117432,573.039246   C605.225708,573.320190 616.332886,573.663940 627.437012,574.075623   C633.050781,574.283691 638.674255,574.523804 644.263000,575.063477   C660.496765,576.631165 676.724426,578.274048 692.937073,580.046387   C707.296936,581.616150 721.690552,583.022644 735.965637,585.184998   C752.937866,587.755798 769.842834,590.833618 786.698059,594.098755   C807.284668,598.086548 827.809204,602.403809 848.323425,606.753723   C865.104126,610.312073 881.830322,614.127441 898.560730,617.824402   C898.735962,617.288757 898.931030,616.973511 898.928589,616.659851   C898.619934,576.442627 900.496582,536.182678 896.973389,496.028290   C895.639099,480.820709 894.587341,465.496094 891.777954,450.530579   C886.809204,424.062347 878.648987,398.574493 865.094421,374.983398   C850.993591,350.441437 832.512695,329.927643 809.162231,314.148102   C790.885315,301.797058 770.815918,292.754944 749.828552,285.811066   C727.467773,278.412781 704.568970,273.412506 681.177368,271.055176   C659.995239,268.920502 638.749207,266.673676 617.493896,266.215820   C594.786804,265.726715 572.026428,267.053040 549.307983,268.023956   C537.444336,268.531006 525.543396,269.438385 513.797546,271.126587   C496.611145,273.596649 479.517029,276.759003 462.440430,279.932404   C427.721222,286.384338 393.652649,295.461273 359.910706,305.813873   C347.649994,309.575653 335.367035,313.264893 322.981567,316.592377   C322.575043,314.228516 322.181519,312.268463 322.003326,310.289032   C320.841400,297.381256 319.715363,284.470215 318.598114,271.558441   C316.721832,249.874802 314.864319,228.189575 312.992371,206.505554   C311.520447,189.455261 310.032806,172.406342 308.562958,155.355881   C307.036163,137.644394 305.518463,119.932121 304.003998,102.219574   C302.602661,85.829887 301.233063,69.437439 299.797150,53.050789   C299.490173,49.547806 298.009644,46.971558 294.186920,46.628235   C309.425079,42.478558 324.432373,38.592117 339.464355,34.803436   C377.372772,25.248947 415.719330,17.996410 454.488770,12.961142   C471.730194,10.721871 488.915680,7.969076 506.202728,6.188591   C521.614441,4.601249 537.133911,4.071222 552.595825,2.937443   C553.771606,2.851226 554.867126,1.671462 556.000000,1.000007   C562.687622,1.000000 569.375305,1.000000 576.905029,1.178855   C579.372803,1.591064 580.997986,2.024266 582.624146,2.027496   C603.651672,2.069261 624.679504,2.074784 645.706909,2.000588   C647.472412,1.994358 649.235718,1.348629 651.000000,1.000003  z"/>

<path fill="#316ABB" opacity="1.000000" stroke="none" d=" M1.000002,971.468628   C1.666188,970.205505 2.824933,969.469482 2.927157,968.608032   C6.252128,940.590210 12.158865,913.192200 20.729519,886.258423   C27.605036,864.651794 35.970428,843.696350 46.305809,823.627319   C58.391914,800.158752 72.652435,778.012573 89.061676,757.187866   C102.651459,739.941345 117.457291,723.858215 133.644775,709.218628   C147.857513,696.364929 163.160812,684.623535 178.633514,673.278870   C201.288605,656.668091 225.895142,643.161438 251.376038,631.435364   C267.381714,624.069641 283.966522,617.962402 300.652771,611.236511   C302.331726,616.893555 304.285431,622.542175 304.854492,628.326965   C307.051300,650.657837 308.832214,673.030090 310.717896,695.391113   C312.519867,716.759644 314.208069,738.137817 316.041016,759.503662   C317.859711,780.703369 319.841797,801.888977 321.667511,823.088135   C323.179504,840.643860 324.528748,858.213562 326.032715,875.770020   C326.557251,881.892822 327.328918,887.994507 328.051636,894.606445   C328.115540,895.106995 327.930969,895.134888 327.817200,895.242249   C327.555267,895.492615 327.430054,895.653381 327.131195,896.134583   C316.236755,909.378296 306.984222,923.160217 299.963806,938.544434   C289.190247,962.153137 284.623566,987.042908 284.190796,1012.664856   C283.980194,1025.134521 285.226196,1037.755005 287.143188,1050.100708   C289.319122,1064.114136 292.100128,1078.164795 296.216522,1091.713623   C301.754608,1109.941650 310.170471,1127.118774 321.914490,1142.224731   C330.005157,1152.631714 339.328888,1162.079956 348.131958,1172.100586   C348.459656,1172.478394 348.756927,1172.712402 349.031006,1172.964966   C349.007782,1172.983643 349.002716,1172.924194 349.165527,1173.096680   C349.545135,1173.498413 349.767883,1173.721802 350.032349,1173.938843   C350.068146,1173.938354 350.069397,1174.010010 350.198181,1174.140137   C350.496002,1174.440796 350.678619,1174.595337 351.132446,1174.887451   C351.617737,1175.361572 351.845428,1175.681763 352.073090,1176.001953   C353.149414,1189.935181 354.153107,1203.874634 355.320282,1217.800171   C356.807251,1235.541870 358.434692,1253.271851 359.986450,1271.008179   C361.567169,1289.075806 363.157745,1307.142578 364.692627,1325.214233   C366.495148,1346.437256 368.207520,1367.667847 370.024414,1388.889648   C371.500610,1406.132080 373.088684,1423.364868 374.597198,1440.604492   C375.423981,1450.053345 376.332581,1459.499023 376.884521,1468.964844   C377.029999,1471.460083 375.987305,1474.024536 374.953552,1476.760010   C374.416901,1476.962891 373.958252,1476.807251 373.667786,1476.682617   C372.553864,1476.385010 371.730377,1476.212158 370.490234,1476.019287   C362.262421,1474.265991 354.329987,1472.951050 346.661133,1470.727051   C313.155884,1461.010620 280.170319,1449.740723 248.863419,1434.227173   C233.317383,1426.523682 218.286011,1417.735474 203.288101,1408.981689   C176.503860,1393.348755 152.338806,1374.132935 130.271210,1352.479858   C117.444504,1339.894043 105.743820,1326.110107 94.073303,1312.408081   C76.043800,1291.240479 61.752289,1267.523315 49.081944,1242.880615   C38.006653,1221.340210 28.928280,1198.898560 22.138321,1175.626831   C18.060478,1161.650513 13.994322,1147.600830 11.218291,1133.332153   C7.778896,1115.653809 5.700064,1097.711670 2.931921,1079.899170   C2.820677,1079.183350 1.667648,1078.629395 1.000009,1078.000000   C1.000000,1042.645752 1.000000,1007.291565 1.000002,971.468628  z"/>




<path fill="#802C9A" opacity="1.000000" stroke="none" d=" M1174.597412,466.283478   C1175.288696,468.050262 1175.743896,470.150818 1176.599609,472.125702   C1177.000000,477.688049 1177.000000,483.376068 1177.000000,489.532043   C1176.397461,489.102997 1175.323853,488.234406 1175.267700,487.304413   C1174.851807,480.415558 1174.638428,473.514496 1174.597412,466.283478  z"/>
<path fill="#8C2395" opacity="1.000000" stroke="none" d=" M1177.000000,525.531372   C1176.753906,514.487732 1176.507690,502.975494 1176.630737,491.231628   C1177.000000,502.354218 1177.000000,513.708435 1177.000000,525.531372  z"/>

<path fill="#316ABB" opacity="1.000000" stroke="none" d=" M319.471466,318.665741   C319.108887,318.794128 318.746307,318.922516 317.773254,319.246155   C316.925110,319.400848 316.749573,319.485138 316.636139,319.694275   C316.237518,319.811096 315.838867,319.927887 314.787903,320.245911   C313.897064,320.410339 313.717590,320.495758 313.597137,320.703339   C313.201416,320.821716 312.805695,320.940094 311.760864,321.254150   C310.869141,321.418610 310.681763,321.506134 310.549561,321.712463   C310.169952,321.828674 309.790314,321.944855 308.778259,322.250977   C307.883026,322.413269 307.673004,322.506439 307.515686,322.720367   C307.149597,322.833740 306.783539,322.947083 305.798035,323.244080   C304.898132,323.404083 304.668579,323.502167 304.489899,323.721954   C304.113190,323.841766 303.736450,323.961578 302.726013,324.261658   C301.826508,324.428192 301.607513,324.524689 301.435272,324.731384   C301.093262,324.842865 300.751251,324.954346 299.818726,325.237183   C298.936188,325.385803 298.697906,325.489227 298.513306,325.718842   C298.096863,325.845001 297.680420,325.971130 296.452087,326.199371   C294.771515,326.472321 293.902802,326.643158 293.034088,326.813995   C283.298187,329.210083 273.621155,331.893158 263.806519,333.905243   C256.815460,335.338409 249.639297,335.868744 241.763245,336.677643   C232.867584,336.329224 224.754440,336.105164 216.641296,335.881073   C216.641296,335.881073 216.393478,335.918152 215.907806,335.724335   C213.602539,335.395050 211.782944,335.259552 209.963364,335.124084   C186.572296,333.038055 165.564636,324.916565 146.511826,311.109070   C132.163452,300.710907 121.488770,287.354950 113.586990,271.850616   C107.248421,259.413513 103.558907,246.049576 101.879509,232.008133   C98.495361,203.713135 102.859795,176.833038 116.215683,151.800735   C126.708565,132.134445 141.448639,116.068115 159.694870,102.811592   C172.803375,93.287819 187.336304,86.756638 201.498428,79.466225   C211.423080,74.357185 222.299118,71.077515 232.799225,67.110390   C243.137192,63.204521 253.512924,59.394718 263.924316,55.689587   C266.949097,54.613163 270.153351,54.041107 273.874878,53.023956   C274.937195,52.612289 275.399963,52.414513 275.862732,52.216736   C276.049377,52.158558 276.236023,52.100384 277.015015,51.958992   C278.392792,51.646786 279.178284,51.417801 279.963745,51.188816   C280.123199,51.135258 280.282684,51.081692 280.950378,50.921776   C281.951660,50.610287 282.444672,50.405144 282.937683,50.199997   C283.104584,50.144741 283.271454,50.089489 283.949677,49.924965   C284.936676,49.614712 285.412354,49.413731 285.888031,49.212753   C286.069427,49.155182 286.250854,49.097603 287.024139,48.942146   C288.393494,48.534882 289.171051,48.225502 289.948578,47.916119   C290.165100,47.655201 290.381653,47.394287 291.032837,47.242027   C291.953583,47.301044 292.439636,47.251408 292.925690,47.201775   C293.096344,47.146591 293.266968,47.091412 293.702454,46.986111   C298.009644,46.971558 299.490173,49.547806 299.797150,53.050789   C301.233063,69.437439 302.602661,85.829887 304.003998,102.219574   C305.518463,119.932121 307.036163,137.644394 308.562958,155.355881   C310.032806,172.406342 311.520447,189.455261 312.992371,206.505554   C314.864319,228.189575 316.721832,249.874802 318.598114,271.558441   C319.715363,284.470215 320.841400,297.381256 322.003326,310.289032   C322.181519,312.268463 322.575043,314.228516 322.981567,316.592377   C323.094208,316.987244 323.065002,317.106262 322.769440,317.149963   C322.039642,317.388214 321.605408,317.582764 321.171173,317.777313   C320.920410,317.872955 320.669678,317.968597 320.009216,318.255432   C319.599548,318.446564 319.471466,318.665741 319.471466,318.665741  z"/>
<path fill="#683FA4" opacity="1.000000" stroke="none" d=" M558.793640,1242.261719   C583.860291,1241.780273 609.273560,1241.404419 635.096069,1241.092041   C629.743103,1241.618530 623.982971,1242.445801 618.218262,1242.479004   C598.526428,1242.592285 578.833069,1242.426514 558.793640,1242.261719  z"/>
<path fill="#5F49A4" opacity="1.000000" stroke="none" d=" M216.947296,336.223572   C224.754440,336.105164 232.867584,336.329224 241.329758,336.697388   C233.536957,336.749664 225.395142,336.657867 216.947296,336.223572  z"/>
<path fill="#5F49A4" opacity="1.000000" stroke="none" d=" M210.206787,335.439270   C211.782944,335.259552 213.602539,335.395050 215.790726,335.679718   C214.256287,335.804077 212.353241,335.779266 210.206787,335.439270  z"/>
<path fill="#316ABB" opacity="1.000000" stroke="none" d=" M293.315430,326.870728   C293.902802,326.643158 294.771515,326.472321 295.838135,326.420837   C295.222961,326.669312 294.409851,326.798401 293.315430,326.870728  z"/>
<path fill="#316ABB" opacity="1.000000" stroke="none" d=" M289.618835,47.965759   C289.171051,48.225502 288.393494,48.534882 287.303009,48.880783   C287.756378,48.616669 288.522736,48.316032 289.618835,47.965759  z"/>
<path fill="#316ABB" opacity="1.000000" stroke="none" d=" M279.633911,51.132751   C279.178284,51.417801 278.392792,51.646786 277.301270,51.895393   C277.764862,51.635567 278.534485,51.356129 279.633911,51.132751  z"/>
<path fill="#316ABB" opacity="1.000000" stroke="none" d=" M275.587036,52.163124   C275.399963,52.414513 274.937195,52.612289 274.228333,52.865459   C274.425293,52.650406 274.868317,52.379963 275.587036,52.163124  z"/>
<path fill="#316ABB" opacity="1.000000" stroke="none" d=" M292.626709,47.144627   C292.439636,47.251408 291.953583,47.301044 291.296021,47.280220   C291.525604,47.168995 291.926636,47.128239 292.626709,47.144627  z"/>
<path fill="#316ABB" opacity="1.000000" stroke="none" d=" M285.603973,49.157543   C285.412354,49.413731 284.936676,49.614712 284.208862,49.876419   C284.411133,49.658878 284.865509,49.380608 285.603973,49.157543  z"/>
<path fill="#316ABB" opacity="1.000000" stroke="none" d=" M282.644409,50.148064   C282.444672,50.405144 281.951660,50.610287 281.199341,50.880608   C281.410400,50.662567 281.880768,50.379345 282.644409,50.148064  z"/>
<path fill="#316ABB" opacity="1.000000" stroke="none" d=" M307.623840,322.785004   C307.673004,322.506439 307.883026,322.413269 308.240967,322.507751   C308.222992,322.813538 308.021637,322.905243 307.623840,322.785004  z"/>
<path fill="#316ABB" opacity="1.000000" stroke="none" d=" M321.433075,317.828583   C321.605408,317.582764 322.039642,317.388214 322.709381,317.137878   C322.528259,317.347992 322.111603,317.613922 321.433075,317.828583  z"/>
<path fill="#316ABB" opacity="1.000000" stroke="none" d=" M316.723389,319.763184   C316.749573,319.485138 316.925110,319.400848 317.254272,319.498291   C317.261169,319.789001 317.082764,319.881317 316.723389,319.763184  z"/>
<path fill="#316ABB" opacity="1.000000" stroke="none" d=" M313.686829,320.770691   C313.717590,320.495758 313.897064,320.410339 314.222839,320.508423   C314.223785,320.799255 314.045929,320.888702 313.686829,320.770691  z"/>
<path fill="#316ABB" opacity="1.000000" stroke="none" d=" M310.644318,321.778137   C310.681763,321.506134 310.869141,321.418610 311.198273,321.513702   C311.192841,321.806915 311.010925,321.895660 310.644318,321.778137  z"/>
<path fill="#316ABB" opacity="1.000000" stroke="none" d=" M298.639832,325.782837   C298.697906,325.489227 298.936188,325.385803 299.337158,325.480530   C299.310547,325.808929 299.083954,325.907013 298.639832,325.782837  z"/>
<path fill="#316ABB" opacity="1.000000" stroke="none" d=" M301.550415,324.793701   C301.607513,324.524689 301.826508,324.428192 302.187134,324.509216   C302.165619,324.817535 301.960114,324.910706 301.550415,324.793701  z"/>
<path fill="#316ABB" opacity="1.000000" stroke="none" d=" M304.609863,323.786011   C304.668579,323.502167 304.898132,323.404083 305.281738,323.496887   C305.254578,323.814240 305.036224,323.908875 304.609863,323.786011  z"/>
<path fill="#316ABB" opacity="1.000000" stroke="none" d=" M319.549744,318.692627   C319.471466,318.665741 319.599548,318.446564 319.659607,318.455017   C319.719696,318.463440 319.627991,318.719482 319.549744,318.692627  z"/>
<path fill="#316ABB" opacity="1.000000" stroke="none" d=" M373.667786,1476.682617   C373.063904,1476.744873 372.169586,1476.682617 371.091064,1476.329712   C371.730377,1476.212158 372.553864,1476.385010 373.667786,1476.682617  z"/>
<path fill="#316ABB" opacity="1.000000" stroke="none" d=" M348.131958,1172.100586   C348.451294,1172.003906 348.719330,1172.177368 348.979919,1172.711670   C348.756927,1172.712402 348.459656,1172.478394 348.131958,1172.100586  z"/>
<path fill="#316ABB" opacity="1.000000" stroke="none" d=" M327.817200,895.242249   C327.946533,895.389587 327.852753,895.593811 327.488708,895.789795   C327.430054,895.653381 327.555267,895.492615 327.817200,895.242249  z"/>
<path fill="#316ABB" opacity="1.000000" stroke="none" d=" M349.165527,1173.096680   C349.282471,1173.101929 349.562225,1173.279541 349.919250,1173.698242   C349.767883,1173.721802 349.545135,1173.498413 349.165527,1173.096680  z"/>
<path fill="#316ABB" opacity="1.000000" stroke="none" d=" M350.198181,1174.140137   C350.356140,1174.020508 350.587860,1174.138550 350.819702,1174.548828   C350.678619,1174.595337 350.496002,1174.440796 350.198181,1174.140137  z"/>
</svg>
