<svg version="1.2" xmlns="http://www.w3.org/2000/svg" viewBox="0 0 1550 1932" width="1550" height="1932">
	<title>APOLLOHOSP</title>
	<style>
		.s0 { fill: #ffffff } 
		.s1 { fill: #fdb813 } 
	</style>
	<path class="s0" d="m822.4 1548.3l44.4-155.8h59.5v-433.6l-615.8 675v297.6l307.6-337.4h142c0 0 49.4 5 62.3-45.8zm-239.6-969.2h-582.7v1015h274.5l632.9-693.9zm-208.8 352.3h-90.7v90.6h-79.7v-90.6h-90.4v-79.7h90.4v-90.4h79.7v90.4h90.7zm482.4 249.5l-45.2 45.5-45.4-45.5zm371.3 124.6h210.7v-207.7l111.4-172.3h-446.5l124.4 172.3zm221.4 27.5h-252v-60.1l-575.7 648.7h304.8l300-346.3h222.9v-33.2h0.3v-191.4h-0.3zm-221.2 516.8l105.3 81.9 105.2-81.9v-247.3h-210.5z"/>
	<path fill-rule="evenodd" class="s1" d="m1071.6 323.1c-1.9-0.9-4.7-1.4-6.7-2.3-355.9-91.5-377.5-260.2-368.2-320.8-25 69.3-23 205.5 3.6 287.2 42.7 42.6 184.4 104.9 321.1 118.4 14.9 2 29.2 4.8 43.5 7.6 358.7 67.6 388.7 360.1 258.2 501.6 14.3-27 164.8-331.2-204.3-393.5-18.2-2.9-35.1-5.9-50.8-8.7-261-48.3-284.6-87.3-297.5-91.6-10.4 44.7 54.2 286.9 297.5 317.5h2c228.4 27.5 250.6 140.9 252 177.7q0 0.3 0 0.8c0 0 0.3-0.5 0.6-1.1 65.9-47.1 107.7-132.2 111.6-224v-25.5c-6.1-144-107.7-297.3-362.6-343.3z"/>
</svg>