<svg xmlns="http://www.w3.org/2000/svg" xmlns:xlink="http://www.w3.org/1999/xlink" viewBox="79.03376211864406 203.73732434 432.1633375423729 309.81543536" id="svg40" version="1.1" style="max-height: 500px" width="432.1633375423729" height="309.81543536">
  <defs id="defs40"/>
  
  <g id="Layer1000">
    <g id="Layer1001">
      <defs id="defs5">
        <linearGradient id="grad1">
          <stop id="stop1" stop-opacity="1.0000" stop-color="#563480" offset="0.0000%"/>
          <stop id="stop2" stop-opacity="1.0000" stop-color="#67309b" offset="25.0000%"/>
          <stop id="stop3" stop-opacity="1.0000" stop-color="#af9ec7" offset="55.0000%"/>
          <stop id="stop4" stop-opacity="1.0000" stop-color="#6514a3" offset="86.0000%"/>
          <stop id="stop5" stop-opacity="1.0000" stop-color="#522881" offset="100.0000%"/>
        </linearGradient>
        <linearGradient gradientUnits="objectBoundingBox" gradientTransform="rotate(-109,0.5,0.5)" y2="1" x2="0" y1="0" x1="0" id="grad2" xlink:href="#grad1"/>
      </defs>
      <path id="path5" style="fill:url(#grad2)" d="m 123.2844,264.6315 c -7.1405,-9.6468 -11.1266,-20.082 -12.5362,-31.1614 19.3519,-8.6176 41.6067,-13.9735 67.1668,-15.4278 38.8841,11.131 58.6464,28.4373 67.5434,50.0814 -39.9076,-21.8258 -81.3113,-26.0816 -122.174,-3.4922 z"/>
      <defs id="defs10">
        <linearGradient id="grad3">
          <stop id="stop6" stop-opacity="1.0000" stop-color="#563480" offset="0.0000%"/>
          <stop id="stop7" stop-opacity="1.0000" stop-color="#67309b" offset="25.0000%"/>
          <stop id="stop8" stop-opacity="1.0000" stop-color="#af9ec7" offset="55.0000%"/>
          <stop id="stop9" stop-opacity="1.0000" stop-color="#6514a3" offset="86.0000%"/>
          <stop id="stop10" stop-opacity="1.0000" stop-color="#522881" offset="100.0000%"/>
        </linearGradient>
        <linearGradient gradientUnits="objectBoundingBox" gradientTransform="rotate(180,0.5,0.5)" y2="1" x2="0" y1="0" x1="0" id="grad4" xlink:href="#grad3"/>
      </defs>
      <path id="path10" style="fill:url(#grad4)" d="m 179.3384,394.8288 c -18.2845,3.4688 -37.2402,3.3068 -56.0023,-2.7759 -16.5888,-10.0358 -25.9076,-26.5878 -27.4528,-51.667 0.8084,-43.9025 32.1482,-58.9105 71.4562,-49.4283 -46.6762,38.5445 -30.7623,89.6858 11.9989,103.8712 z"/>
      <defs id="defs14">
        <linearGradient id="grad5">
          <stop id="stop11" stop-opacity="1.0000" stop-color="#feba32" offset="0.0000%"/>
          <stop id="stop12" stop-opacity="1.0000" stop-color="#e63e23" offset="45.0000%"/>
          <stop id="stop13" stop-opacity="1.0000" stop-color="#e63e23" offset="52.0000%"/>
          <stop id="stop14" stop-opacity="1.0000" stop-color="#fbb82a" offset="100.0000%"/>
        </linearGradient>
        <linearGradient gradientUnits="objectBoundingBox" gradientTransform="rotate(90,0.5,0.5)" y2="1" x2="0" y1="0" x1="0" id="grad6" xlink:href="#grad5"/>
      </defs>
      <path id="path14" style="fill:url(#grad6)" d="m 190.173,274.4815 c -30.2107,-1.3867 -56.5875,5.7441 -76.2916,23.4605 26.1161,-11.7722 55.3041,-13.794 92.4096,9.3126 29.7286,20.2966 59.4573,40.5933 89.1859,60.89 61.453,44.1121 120.6268,66.2726 172.9992,22.9233 -51.749,12.9465 -90.9345,-4.5092 -133.2417,-41.5485 -47.2307,-34.6843 -97.6601,-68.1406 -145.0614,-75.0379 z"/>
      <defs id="defs18">
        <linearGradient id="grad7">
          <stop id="stop15" stop-opacity="1.0000" stop-color="#e63225" offset="0.0000%"/>
          <stop id="stop16" stop-opacity="1.0000" stop-color="#fab830" offset="40.0000%"/>
          <stop id="stop17" stop-opacity="1.0000" stop-color="#fcba37" offset="55.0000%"/>
          <stop id="stop18" stop-opacity="1.0000" stop-color="#e63e23" offset="100.0000%"/>
        </linearGradient>
        <linearGradient gradientUnits="objectBoundingBox" gradientTransform="rotate(180,0.5,0.5)" y2="1" x2="0" y1="0" x1="0" id="grad8" xlink:href="#grad7"/>
      </defs>
      <path id="path18" style="fill:url(#grad8)" d="M 282.014,351.3716 C 305.4601,280.7033 246.2419,217.433 177.9146,218.0423 c 67.0003,19.4562 84.8225,65.5985 66.8672,112.7318 -26.6112,55.5085 -65.8352,76.9177 -121.7373,61.1091 57.0077,38.8309 131.2545,25.1303 158.9695,-40.5116 z"/>
      <defs id="defs23">
        <linearGradient id="grad9">
          <stop id="stop19" stop-opacity="1.0000" stop-color="#563480" offset="0.0000%"/>
          <stop id="stop20" stop-opacity="1.0000" stop-color="#67309b" offset="25.0000%"/>
          <stop id="stop21" stop-opacity="1.0000" stop-color="#af9ec7" offset="55.0000%"/>
          <stop id="stop22" stop-opacity="1.0000" stop-color="#6514a3" offset="86.0000%"/>
          <stop id="stop23" stop-opacity="1.0000" stop-color="#522881" offset="100.0000%"/>
        </linearGradient>
        <linearGradient gradientUnits="objectBoundingBox" gradientTransform="rotate(180,0.5,0.5)" y2="1" x2="0" y1="0" x1="0" id="grad10" xlink:href="#grad9"/>
      </defs>
      <path id="path23" style="fill:url(#grad10)" d="m 487.1071,347.3292 c -3.0546,-66.2551 -46.2944,-74.8179 -88.3349,-63.9407 27.3708,8.1928 46.14,23.9367 46.7212,53.1785 -1.4097,29.8803 -13.4879,47.5184 -33.0737,56.3525 38.8049,8.0341 70.7263,9.9409 74.6874,-45.5903 z"/>
      <defs id="defs27">
        <linearGradient id="grad11">
          <stop id="stop24" stop-opacity="1.0000" stop-color="#e63225" offset="0.0000%"/>
          <stop id="stop25" stop-opacity="1.0000" stop-color="#fab830" offset="44.0000%"/>
          <stop id="stop26" stop-opacity="1.0000" stop-color="#fcba37" offset="59.0000%"/>
          <stop id="stop27" stop-opacity="1.0000" stop-color="#e63e23" offset="100.0000%"/>
        </linearGradient>
        <linearGradient gradientUnits="objectBoundingBox" gradientTransform="rotate(180,0.5,0.5)" y2="1" x2="0" y1="0" x1="0" id="grad12" xlink:href="#grad11"/>
      </defs>
      <path id="path27" style="fill:url(#grad12)" d="m 375.2837,262.9087 c 30.5657,-6.4812 69.356,2.4359 93.0739,31.5211 -49.4558,-24.0388 -132.3436,-7.2739 -136.5352,74.615 l 0.1721,131.539 c -19.3837,0.9982 -34.7819,-6.2813 -35.3735,-23.6217 V 369.5092 c 2.1928,-53.7367 25.4047,-91.5497 78.6627,-106.6005 z"/>
    </g>
    <g id="Layer1002">
      <path id="path28" style="fill:#ffb318;fill-rule:evenodd" d="m 313.7256,547.0157 c -2.0387,0.1253 -4.0482,0.7662 -5.8033,1.8428 -6.1369,3.8914 -6.0309,11.7397 -6.0309,13.2166 0,5.0911 1.4747,10.8007 6.5257,13.5041 1.676,0.8069 3.4128,1.2418 5.3085,1.2418 v 9.8855 c -2.4144,-0.4112 -5.4852,-1.361 -8.4768,-3.6164 -0.9006,-0.7631 -1.8827,-1.782 -2.738,-2.8302 l -0.0154,0.3627 c -0.0661,0.4972 -0.0661,1.1196 -0.1614,1.6568 0.1614,2.0072 -0.0322,4.0505 0.0631,6.0677 -0.153,1.6207 0.0453,3.3735 -0.153,5.0249 -0.0507,2.1924 -0.1114,4.4164 -0.2282,6.6664 0.0745,0.6194 -0.0238,1.1435 -0.0238,1.6891 0.0238,0.7039 -0.1007,1.2625 -0.1483,1.9534 -0.1453,0.2674 0,0.5802 -0.3013,0.8161 -0.7154,0.3097 -1.0566,1.0535 -1.2464,1.8266 -0.1406,4.0928 -0.3174,8.3577 -0.5533,12.5958 -0.0399,0.8207 -0.1506,1.6629 -0.4657,2.3668 l -0.8875,1.102 -0.2967,1.6621 c -0.116,0.1322 -0.0945,0.2644 -0.3012,0.2913 -0.1083,-0.8153 0,-1.6891 -0.0131,-2.5789 l 0.0131,-2.1971 -0.1322,-0.2674 c -0.5325,2.4568 -0.6493,5.1202 -0.8368,7.5639 -0.1084,0.0899 -0.2859,0 -0.3973,-0.0269 -0.2936,-0.7254 -0.1107,-1.6837 -0.2067,-2.4936 -0.6271,-0.7946 -0.7462,-1.9511 -0.6271,-3.0077 l 0.0953,-2.9071 c -0.0953,-0.3381 -0.0953,-0.7354 -0.1168,-1.0874 -0.3043,-0.0983 -0.6271,-0.1883 -0.6962,-0.5456 0.0292,-0.1114 -0.0292,-0.1452 -0.1161,-0.209 0.2513,-1.6068 0.1453,-3.2145 0.3174,-4.842 -0.1721,-0.4265 0.0876,-0.9668 0.0269,-1.4432 0.2405,-2.3061 0.3205,-4.5347 0.2674,-6.8516 -0.2943,-0.1537 -0.1037,-0.6724 -0.5248,-0.6432 -0.4865,2.068 -0.561,4.4079 -0.9821,6.5204 0.1191,0.5379 -0.1191,0.8791 -0.0868,1.3748 0.4418,0.4895 0.6193,1.1588 0.5824,1.7305 -0.2044,0.1991 -0.1567,0.4795 -0.4057,0.6279 l 0.1406,0.8683 c -0.2305,0.4211 -0.4073,0.8046 -0.5848,1.2441 -0.1375,0.0139 -0.2705,0.0953 -0.3896,0 -0.0899,-0.9951 -0.0899,-1.9857 0.1407,-2.8563 -0.09,-0.8576 0.0368,-1.8981 0,-2.8087 0.1559,-3.7071 0.0368,-7.2035 0,-10.939 -0.1192,-0.0638 -0.2513,-0.1936 -0.3174,-0.0538 -0.4742,1.2657 -0.1353,2.788 -0.7685,4.0037 -0.2589,-1.155 -0.3781,-7.4902 -0.1268,-8.8772 -0.0876,-2.3484 0.1115,-4.8367 0.0162,-7.3096 0.0953,-1.5039 -0.6486,-2.4006 -0.6863,-1.2679 -0.0522,1.8827 -0.2751,3.6855 -0.0737,5.5674 0,3.4312 -0.2014,7.0422 -0.2805,10.5525 0.0814,1.5384 -0.3474,3.1906 -0.2144,4.8873 0,0.7147 -0.2229,1.6284 0,2.34 -0.0669,0.2728 0,0.6194 -0.302,0.7016 -0.2306,-0.2621 -0.7493,-0.1345 -0.6302,-0.6271 -0.0952,-0.3127 0.1268,-0.5294 0.3551,-0.7016 0.1106,-0.9137 0.1106,-1.9672 -0.2283,-2.894 -0.1268,-0.9398 0.4427,-1.8742 0.3182,-2.8509 -0.1645,-0.1161 0.0207,-0.405 -0.2306,-0.5372 -0.1744,-0.2436 -0.0876,-0.6009 -0.0422,-0.8684 0.3842,-0.7469 0.1398,-1.8081 0.1083,-2.658 -0.0661,-0.5933 -0.4872,-1.0644 -0.471,-1.6837 -0.0899,-1.6153 -0.0162,-2.9547 0.0953,-4.4794 -0.0531,-1.1918 0.0238,-2.5182 0.0584,-3.7861 0.0368,-1.2995 -0.0346,-2.7903 -0.0584,-4.1643 0.0584,-2.2585 -0.0239,-4.5139 -0.0239,-6.8592 -0.0876,-0.0953 -0.0876,-0.2413 -0.2274,-0.3182 -0.2575,1.0643 -0.9214,0.4926 -1.1012,-0.1375 0.1214,-0.7093 0,-1.3179 0.0684,-1.9535 0.053,-0.511 0.0952,-1.0804 0.053,-1.5784 -0.1191,-2.5412 0.2413,-5.1133 0.1406,-7.5562 0.1245,-2.7903 -0.1406,-5.516 0.2567,-8.2686 l -0.0584,-1.6084 c 0.0791,-2.5059 0.1191,-5.1271 0.1191,-7.6446 -0.04,-0.6647 0,-1.4216 -0.1191,-2.1532 -0.0738,-0.0415 -0.1268,-0.1052 -0.1983,0 -0.1936,0.5426 -0.4664,1.0974 -0.4664,1.7521 -0.1268,0.1983 -0.3543,0.3174 -0.5772,0.1314 -0.2958,-0.6224 -0.1398,-1.2287 -0.2958,-1.8835 0.0369,-1.1696 0,-2.4291 0.3327,-3.541 l 0.1191,-0.1883 c 0.1407,-1.9035 0.1407,-4.0083 0.8876,-5.7603 0.1245,-0.4373 0.5871,-0.5718 0.979,-0.6555 0.697,-0.0638 1.0567,0.793 1.4032,1.2549 0.5695,-0.0823 1.2342,0.1175 1.7052,-0.2675 0.8446,-0.2159 0.5695,0.8407 0.9083,1.1796 0.2752,0.4565 0.8069,0.385 1.2572,0.4012 1.4824,-0.0861 0.5295,-2.4845 2.184,-2.018 0.2805,0.6224 0.9659,0.8222 1.6099,0.7669 1.0851,0.3535 2.5828,0.312 2.9616,1.6576 0.3174,0.7438 0.3919,1.6621 0.3919,2.456 -0.0453,0.0676 -0.0453,1.2971 -0.0292,2.9193 0.6117,-0.634 1.2473,-1.291 1.5938,-1.6706 2.5997,-2.6289 6.2291,-4.4371 10.0706,-5.2447 z m 0.7385,-0.0131 v 0 c -0.2436,0 -0.4895,0.008 -0.7385,0.0131 v -9.9454 c 1.5808,-0.3573 3.1899,-0.5025 4.7706,-0.5025 8.0934,-0.0131 12.8532,4.0782 14.8489,6.1776 2.7856,3.0339 6.1292,8.6951 6.1292,18.2593 0,1.7098 -0.0899,6.6264 -1.885,11.7335 -4.3549,12.5651 -15.0241,14.2272 -20.3426,14.2272 -0.8553,0 -2.081,-0.0399 -3.5211,-0.2589 v -9.8855 h 0.0369 c 2.0679,0 3.7724,-0.604 4.474,-0.959 7.4079,-3.3535 7.3257,-13.5932 7.3257,-14.5184 0.008,-1.0152 0.0737,-9.4405 -5.7527,-12.9524 -0.8999,-0.5486 -2.6927,-1.3886 -5.3454,-1.3886 z"/>
      <g id="Layer1003">
        <path id="path29" style="fill:#ffb318;fill-rule:evenodd" d="m 401.6163,524.6475 -0.1637,-0.0384 c -0.1168,-0.1545 -0.1168,-0.3105 -0.2275,-0.4911 -0.106,-0.103 -0.2889,-0.1852 -0.3473,-0.365 l -0.1191,-0.1099 c 0.0453,-0.2144 0,-0.3735 -0.1852,-0.4557 -0.0185,-0.1667 0.2466,-0.4634 0.3419,-0.614 0.0976,-0.1598 -0.0376,-0.2689 -0.1114,-0.3519 -0.1721,-0.1045 -0.2305,-0.3866 -0.1537,-0.5802 -0.0184,-0.2144 -0.1637,-0.3451 -0.3174,-0.5318 -0.2436,-0.4011 -0.3335,-3.3674 -0.3865,-3.5333 0.2144,-0.1437 0.206,-0.5042 0.4734,-0.5372 0.2943,-0.0569 0.2305,-0.332 0.4956,-0.6009 0.0976,-0.2705 1.5723,0.428 1.4747,0.1029 0.0976,-0.1437 0,-0.3319 0.1691,-0.4349 0.1352,-0.0415 0.3335,-0.146 0.4211,-0.2759 -0.0131,-0.1583 0.2513,-0.2828 0.2513,-0.3996 0.2013,-0.0976 0.1483,0.2674 0.3996,0.1168 0.3181,-0.0507 0.3181,-0.3865 0.5248,-0.4687 0.0469,-0.1875 0.1053,-0.3881 0.2644,-0.5372 0.0238,-0.1329 -0.0346,-0.2705 0.1114,-0.3881 0.2912,-0.1667 0.4972,0.2767 0.7385,-0.1045 0.0161,-0.1298 -0.1084,-0.2121 0.0161,-0.2943 0.3758,-0.0376 1.6092,-1.0082 1.9273,-1.0505 0.2859,-0.0768 0.4203,-0.3442 0.6855,-0.2359 0.209,0.1591 0.4733,-0.2128 0.6485,-0.2128 v -0.002 c 0.0477,0 0.0899,0.0292 0.1115,0.1468 0.1183,0.0546 0.3043,0.126 0.3043,0.186 0.0161,0.1029 0.1268,0.1175 0.2566,0.1175 l 0.1407,-0.2489 c 0.209,0.0607 0.0899,0.2912 0.3412,0.2489 0.0368,0.0408 0.2436,0.09 0.302,0.2421 0.1191,0.053 0.0737,0.2544 0.2512,0.2966 0.6356,-0.4979 0.1484,0.1245 0.2436,0.1453 0.1115,0.0545 0.2728,0.2051 0.2068,0.3296 0.1106,0.0131 0.066,0.1591 0.1852,0.1868 0.0576,0.0822 0.2966,-0.0277 0.2197,0.1537 0.1483,0.0737 0.1345,0.2751 0.3335,0.2751 0.05,0.1099 0.2306,0.2082 0.05,0.3573 0.1806,0 0.1806,0.126 0.3258,0.126 0.1929,0.1691 0.7016,0.5441 0.7254,0.7308 0.0292,0.1506 1.1727,1.125 1.1727,1.1942 0.0453,0.0553 0.2513,0.4058 0.2674,0.4772 0.0423,0.1099 0.3812,1.0205 0.4688,1.2203 -0.0876,0.1153 0.0691,0.2413 0.0476,0.3527 0.206,-0.0983 0.2037,0.0754 0.2728,0.2075 -0.0453,0.1576 0.1637,0.5018 0.1775,0.6279 0,0.0407 0.1322,0.1029 0.1768,0.1782 0.1037,0 0.2966,0.4142 0.3151,0.5587 -0.0869,0.2083 -0.3151,3.176 -2.3823,4.1059 -0.1483,0.1391 -0.199,-0.0331 -0.3419,-0.0331 -0.4019,0.0177 -0.1084,0.3866 -0.352,0.5525 -0.2305,0.103 -0.2728,0 -0.4449,-0.0361 -0.2144,0.0607 -0.4288,0.0623 -0.5664,0.0361 -0.2436,0.1507 -0.5402,0.02 -0.6962,0.2882 -0.2198,0.1645 0.1114,0.2705 -0.0499,0.4158 -0.1483,-0.0769 -0.3128,0.1168 -0.5326,0.0461 -0.1321,0.0146 -0.3389,0.1667 -0.3757,0.2213 -0.2068,0.1314 -0.3174,0 -0.4819,0 -0.3389,-0.2067 -0.1744,1.374 -0.5087,1.3279 -0.3389,0.1068 -0.5848,-0.0162 -0.7385,0.1905 -0.1637,0.249 -0.4733,0.0976 -0.7254,0.2567 -0.1299,-0.1252 0.0615,0.6194 -0.1083,0.7239 -0.0446,0.0546 -0.8131,0.1299 -0.9084,0.1299 -0.3681,0.0968 -0.6508,-0.0538 -1.0266,0 -0.0423,-0.1883 -0.4265,0 -0.3973,-0.2344 -0.405,-0.3028 -0.614,-1.9388 -0.9029,-2.3246 -0.0869,-0.186 -0.2221,-0.3373 -0.3835,-0.4488 -0.2805,-0.0353 -0.5033,-0.1721 -0.5533,-0.3581 -0.0745,-0.1037 -0.1114,-0.2705 -0.2728,-0.2144 -0.2067,0 -0.9375,-0.249 -1.0781,-0.3619 z"/>
        <path id="path30" style="fill:#ff0000;fill-rule:evenodd" d="m 152.1847,524.6475 -0.1829,-0.0384 c -0.1591,-0.1545 -0.1591,-0.3105 -0.2121,-0.4911 -0.1191,-0.103 -0.3097,-0.1852 -0.3996,-0.365 l -0.0792,-0.1099 c 0.0238,-0.2144 -0.0714,-0.3735 -0.2144,-0.4557 -0.0399,-0.1667 0.2567,-0.4634 0.3835,-0.614 0.0453,-0.1598 -0.0899,-0.2689 -0.1453,-0.3519 -0.1752,-0.1045 -0.2067,-0.3866 -0.159,-0.5802 -0.0162,-0.2144 -0.1483,-0.3451 -0.3174,-0.5318 -0.2282,-0.4011 -0.3181,-3.3674 -0.4057,-3.5333 0.2336,-0.1437 0.199,-0.5042 0.4956,-0.5372 0.2697,-0.0569 0.2436,-0.332 0.4657,-0.6009 0.1114,-0.2705 1.5776,0.428 1.4931,0.1029 0.0845,-0.1437 0,-0.3319 0.1744,-0.4349 0.1353,-0.0415 0.3581,-0.146 0.3973,-0.2759 0.008,-0.1583 0.2467,-0.2828 0.2467,-0.3996 0.2144,-0.0976 0.2037,0.2674 0.4157,0.1168 0.352,-0.0507 0.3389,-0.3865 0.5503,-0.4687 0.008,-0.1875 0.1168,-0.3881 0.2459,-0.5372 0.0561,-0.1329 -0.0392,-0.2705 0.1429,-0.3881 0.2782,-0.1667 0.4903,0.2767 0.7208,-0.1045 0.0261,-0.1298 -0.1406,-0.2121 0.0469,-0.2943 0.3181,-0.0376 1.5861,-1.0082 1.9303,-1.0505 0.2675,-0.0768 0.4027,-0.3442 0.6993,-0.2359 0.1583,0.1591 0.4288,-0.2128 0.5772,-0.2128 0.0714,-0.002 0.0899,0.0276 0.1106,0.1452 0.1668,0.0546 0.3182,0.126 0.3051,0.186 0.0131,0.1029 0.1637,0.1175 0.2567,0.1175 l 0.2113,-0.2489 c 0.1698,0.0607 0.0376,0.2912 0.2651,0.2489 0.0899,0.0408 0.2882,0.09 0.3097,0.2421 0.1583,0.053 0.1375,0.2544 0.3043,0.2966 0.5771,-0.4979 0.1506,0.1245 0.2198,0.1453 0.1375,0.0545 0.2382,0.2051 0.1982,0.3296 0.0715,0.0131 0.04,0.1591 0.1591,0.1868 0.0899,0.0822 0.2936,-0.0277 0.249,0.1537 0.1406,0.0737 0.1406,0.2751 0.3312,0.2751 0.0446,0.1099 0.2221,0.2082 0.0715,0.3573 0.1106,0 0.1506,0.126 0.3096,0.126 0.1668,0.1691 0.6963,0.5441 0.6963,0.7308 0.0392,0.1506 1.2118,1.125 1.2387,1.1942 0.003,0.0553 0.1829,0.4058 0.2459,0.4772 0.04,0.1099 0.3389,1.0205 0.4373,1.2203 -0.0984,0.1153 0.0953,0.2413 0.0315,0.3527 0.2282,-0.0983 0.2282,0.0754 0.2912,0.2075 -0.063,0.1576 0.1537,0.5018 0.2067,0.6279 0,0.0407 0.1376,0.1029 0.1376,0.1782 0.1083,0 0.2835,0.4142 0.3312,0.5587 -0.0661,0.2083 -0.2913,3.176 -2.4068,4.1059 -0.1084,0.1391 -0.2037,-0.0331 -0.2836,-0.0331 -0.4288,0.0177 -0.1429,0.3866 -0.4096,0.5525 -0.1775,0.103 -0.2489,0 -0.4241,-0.0361 -0.1722,0.0607 -0.4019,0.0623 -0.5925,0.0361 -0.2121,0.1507 -0.5249,0.02 -0.6594,0.2882 -0.2282,0.1645 0.0792,0.2705 -0.0215,0.4158 -0.1852,-0.0769 -0.3573,0.1168 -0.5241,0.0461 -0.1744,0.0146 -0.3573,0.1667 -0.4472,0.2213 -0.1591,0.1314 -0.2651,0 -0.4764,0 -0.2836,-0.2067 -0.1322,1.374 -0.4903,1.3279 -0.3174,0.1068 -0.6086,-0.0162 -0.7385,0.1905 -0.1483,0.249 -0.4972,0.0976 -0.7201,0.2567 -0.1352,-0.1252 0.0953,0.6194 -0.1114,0.7239 -0.0899,0.0546 -0.8338,0.1299 -0.929,0.1299 -0.3097,0.0968 -0.6271,-0.0538 -0.9821,0 -0.0953,-0.1883 -0.4765,0 -0.4234,-0.2344 -0.4342,-0.3028 -0.6409,-1.9388 -0.903,-2.3246 -0.1083,-0.186 -0.2198,-0.3373 -0.405,-0.4488 -0.2459,-0.0353 -0.4656,-0.1721 -0.5456,-0.3581 -0.063,-0.1037 -0.1106,-0.2705 -0.262,-0.2144 -0.2252,0 -0.9183,-0.249 -1.032,-0.3619 z"/>
        <path id="path31" style="fill:#ffb318;fill-rule:evenodd" d="m 495.0513,537.4715 h 12.0671 v 9.4051 h -12.1778 v 20.5647 c 0.1107,2.0433 -0.0876,8.7757 7.8337,8.7757 1.1965,-0.005 2.4006,-0.106 4.8658,-0.7308 l 0.3097,9.8993 c -3.2774,0.7377 -5.486,1.2994 -8.8372,1.2994 -1.2703,0 -8.5276,-0.0899 -12.7525,-4.1781 -4.5854,-4.341 -4.4663,-11.6244 -4.3787,-17.2034 l 0.008,-18.4268 v -9.4051 l 0.0161,-4.401 c 0,-6.3167 5.2048,-8.7949 10.0391,-9.8831 l 2.9916,-0.002 z"/>
        <path id="path32" style="fill:#ffb318;fill-rule:evenodd" d="m 530.2304,586.7456 c -4.278,0 -7.5347,-0.2274 -15.3891,-2.0617 l 0.0815,-1.6845 c 0.3604,-2.3192 1.9196,-6.5226 7.942,-6.3751 1.6998,0.3766 3.6117,0.6255 5.6497,0.6255 5.9594,-0.005 9.1123,-2.4913 9.1123,-5.197 -0.0868,-2.1048 -1.7705,-3.2706 -3.5687,-4.1343 -3.5341,-1.593 -7.2934,-2.2969 -10.7722,-3.7939 -2.6788,-1.1265 -9.0885,-4.4455 -9.0885,-12.4759 0,-1.2088 0.1698,-4.1012 1.9595,-6.9791 2.4883,-3.6625 8.2387,-7.9351 19.0032,-7.9351 4.9634,0 8.8103,0.7385 13.6547,1.8774 l -0.8945,9.2307 c -3.9499,-1.0943 -6.8093,-1.8474 -10.8544,-1.8474 -3.3067,0 -5.4484,0.6616 -6.7771,1.3179 -2.24,1.062 -2.7403,2.8502 -2.7403,3.8653 0,2.194 1.8374,3.0631 3.8707,3.7877 3.7486,1.457 7.7807,2.2224 11.5615,3.7962 5.3392,2.4007 8.2486,7.0114 8.2486,12.552 0,2.0487 -0.4365,7.039 -5.2816,10.939 -4.3549,3.6002 -10.0199,4.4923 -15.7173,4.4923 z"/>
        <path id="path33" style="fill:#ffb318;fill-rule:evenodd" d="m 369.1621,545.4919 c -0.4265,-0.0277 -0.8684,-0.0408 -1.3264,-0.0408 -6.3059,-10e-4 -11.659,2.4844 -13.4564,3.4074 -0.7731,0.4434 -1.3056,0.7185 -2.6712,1.865 l -0.4211,-10.9259 c 6.6156,-2.1409 10.7884,-3.2298 17.8251,-3.2298 h 0.05 z m 0,40.6313 v 0 c -1.6968,0.395 -3.6164,0.6224 -5.7796,0.6224 -2.1494,0 -11.357,-0.3358 -15.9585,-7.1904 -0.7646,-1.1035 -2.34,-3.873 -2.34,-7.6584 0,-3.9929 1.7583,-6.7509 2.592,-7.9658 4.63,-6.3775 13.7638,-7.7007 21.4861,-7.8959 v 8.1241 c -2.4645,0.2805 -4.7967,0.8414 -6.6341,1.8904 -1.6253,0.9805 -2.3884,2.154 -2.8226,2.8141 -0.3204,0.4703 -0.8706,1.54 -0.8706,3.0331 0,0.8391 0.2935,1.8527 0.7223,2.6811 1.7291,3.5879 6.2084,3.7754 7.4049,3.7754 0.511,-0.002 1.2787,-0.0392 2.2001,-0.2067 z m 10.6477,-7.1367 v 0 c -0.6985,1.0113 -0.9952,1.3971 -1.4977,1.9773 -1.52,1.676 -4.4748,4.0159 -9.15,5.1594 v -7.9766 c 2.1708,-0.4149 5.1409,-1.5115 7.3702,-4.2987 2.4652,-3.0662 2.6873,-6.1269 2.9601,-9.8124 h 0.002 c -2.9754,-0.1191 -6.7801,-0.2897 -10.3326,0.1237 v -8.1241 c 0.7999,-0.0208 1.583,-0.0185 2.3514,-0.0185 2.5359,-0.009 5.151,0.06 7.7061,0.1576 0,0 -0.1083,-3.4227 -0.7807,-5.1887 -1.0275,-2.5205 -3.5826,-5.1363 -9.2768,-5.4936 v -8.9241 c 1.324,-0.0131 4.3502,0 7.6807,0.74 8.6912,1.8266 12.0793,6.4858 13.2681,9.8124 1.1389,2.8433 1.1681,5.7143 1.2657,11.5123 v 11.5084 c 0,2.9677 0.0638,5.8963 0.1299,8.848 0.0368,-0.002 0.0368,6.7985 5.4506,6.7985 l -11.4684,-0.008 c -5.4407,0 -5.7312,-6.7908 -5.7312,-6.7908 z"/>
        <path id="path34" style="fill:#ff0000;fill-rule:evenodd" d="m 76.4579,545.697 c -0.4257,-0.033 -0.8737,-0.033 -1.3233,-0.033 -6.3305,-0.0131 -11.6544,2.5259 -13.4572,3.382 -0.7515,0.4956 -1.3002,0.7523 -2.6634,1.8904 l -0.405,-10.9329 c 6.6264,-2.1332 10.796,-3.2282 17.809,-3.2282 h 0.0399 z m 0,40.6122 v 0 c -1.6967,0.4157 -3.624,0.6562 -5.7895,0.6562 -2.1286,0 -11.3709,-0.3227 -15.9055,-7.1743 -0.7839,-1.1281 -2.3807,-3.9076 -2.3807,-7.683 0,-3.9898 1.7767,-6.7409 2.539,-7.9689 4.7152,-6.3451 13.8114,-7.6884 21.5367,-7.8882 v 8.1357 c -2.459,0.2881 -4.8128,0.8368 -6.6717,1.8927 -1.57,0.8868 -2.3561,2.1301 -2.7818,2.7787 -0.302,0.4557 -0.9007,1.5546 -0.9007,3.05 0,0.8261 0.3128,1.8481 0.7178,2.6842 1.7974,3.5741 6.2322,3.7754 7.4417,3.7754 0.5218,0 1.2895,-0.0553 2.1947,-0.2144 z m 10.6454,-7.1059 v 0 c -0.6485,1.032 -0.9982,1.4216 -1.4585,1.9587 -1.5469,1.6891 -4.5223,4.0245 -9.1869,5.1495 v -7.9605 c 2.1732,-0.4026 5.1418,-1.4931 7.3941,-4.2972 2.4675,-3.0361 2.6712,-6.0861 2.9363,-9.784 v -0.008 c -2.9601,-0.123 -6.7778,-0.2821 -10.3304,0.1245 v -8.138 c 0.7915,-0.0215 1.5731,-0.0184 2.3323,-0.0184 2.5759,-0.0162 5.1494,0.0899 7.733,0.116 0,0 -0.0684,-3.3874 -0.7939,-5.1118 -0.9982,-2.5482 -3.561,-5.1824 -9.2714,-5.5359 v -8.9233 c 1.2918,-0.0131 4.3418,0.008 7.6961,0.7669 8.7258,1.8135 12.0725,6.445 13.2528,9.7709 1.0912,2.8571 1.1704,5.7634 1.2764,11.5407 v 11.4884 c 0,2.934 0.0261,5.9279 0.1137,8.8611 0.0792,0 0.04,6.7985 5.4907,6.7985 H 92.7822 c -5.4007,0 -5.6919,-6.7985 -5.6919,-6.7985 z"/>
        <path id="path35" style="fill:#ff0000;fill-rule:evenodd" d="m 196.2687,545.697 c -0.4288,-0.033 -0.8653,-0.033 -1.321,-0.033 -6.359,-0.0131 -11.6805,2.5259 -13.5072,3.382 -0.7592,0.4956 -1.2518,0.7523 -2.6396,1.8904 l -0.405,-10.9329 c 6.6456,-2.1332 10.7938,-3.2282 17.8282,-3.2282 h 0.0446 z m 0,40.6122 v 0 c -1.6999,0.4157 -3.6264,0.6562 -5.8026,0.6562 -2.1609,0 -11.3578,-0.3227 -15.9324,-7.1743 -0.7623,-1.1281 -2.3669,-3.9076 -2.3669,-7.683 0.0108,-3.9898 1.7636,-6.7409 2.5705,-7.9689 4.6914,-6.3451 13.8038,-7.6884 21.5314,-7.8882 v 8.1357 c -2.4752,0.2881 -4.8259,0.8283 -6.6741,1.8927 -1.5937,0.8868 -2.3714,2.1301 -2.7587,2.7787 -0.3174,0.4557 -0.9206,1.5546 -0.9206,3.05 0,0.8261 0.315,1.8481 0.7039,2.6842 1.792,3.5741 6.2375,3.7754 7.4048,3.7754 0.5295,0 1.3264,-0.0553 2.2447,-0.2144 z m 10.5977,-7.1059 v 0 c -0.6516,1.032 -0.9475,1.4216 -1.4216,1.9587 -1.5277,1.6891 -4.4901,4.0245 -9.1761,5.1495 v -7.9605 c 2.1816,-0.4188 5.1363,-1.5223 7.3441,-4.2972 2.4675,-3.0361 2.695,-6.0861 2.9993,-9.784 v -0.008 c -2.9732,-0.123 -6.7932,-0.2751 -10.3434,0.1245 v -8.138 c 0.7999,-0.0215 1.5938,-0.0184 2.3538,-0.0184 2.5259,-0.0162 5.1463,0.0899 7.6853,0.116 0,0 -0.093,-3.3874 -0.7915,-5.1118 -0.9983,-2.5482 -3.5634,-5.1694 -9.2476,-5.5359 v -8.9233 c 1.3025,-0.0131 4.3448,0.008 7.6807,0.7669 8.6858,1.8135 12.0563,6.445 13.229,9.7709 1.1196,2.8571 1.2126,5.7634 1.3102,11.5407 v 11.4884 c 0,2.934 0.0399,5.9279 0.0953,8.8611 0.093,0 0.0322,6.7985 5.4645,6.7985 h -11.4716 c -5.416,0 -5.7104,-6.7985 -5.7104,-6.7985 z"/>
        <path id="path36" style="fill:#ffb318;fill-rule:evenodd" d="m 401.3358,576.9371 c 0,5.5306 5.5728,8.8902 10.0337,8.8902 h 3.3835 l -0.0238,-48.7078 h -13.3934 z"/>
        <path id="path37" style="fill:#ff0000;fill-rule:evenodd" d="m 122.9864,586.9654 c -4.2442,0 -7.5163,-0.249 -15.3868,-2.0971 l 0.0584,-1.6837 c 0.3965,-2.2869 1.9427,-6.5149 7.9389,-6.3636 1.7321,0.3651 3.6195,0.6432 5.6843,0.6432 5.954,0 9.12,-2.4813 9.12,-5.1548 -0.1106,-2.147 -1.7789,-3.3689 -3.5449,-4.1773 -3.6025,-1.6068 -7.3464,-2.3092 -10.7822,-3.8077 -2.6903,-1.0843 -9.1231,-4.4309 -9.1231,-12.4759 0,-1.1819 0.1583,-4.072 1.9857,-6.943 2.4645,-3.7278 8.2248,-7.9512 18.9978,-7.9512 4.9581,-0.0138 8.7919,0.7385 13.6447,1.8358 l -0.8876,9.2607 c -3.9652,-1.095 -6.8223,-1.8481 -10.8782,-1.8481 -3.2775,-0.0223 -5.4584,0.6555 -6.7348,1.3171 -2.2923,1.1043 -2.758,2.8371 -2.758,3.8523 0,2.2293 1.8528,3.0646 3.807,3.7885 3.8069,1.5115 7.8674,2.2285 11.6136,3.8015 5.3454,2.3961 8.2233,7.0245 8.2233,12.5666 0,2.0518 -0.3973,7.039 -5.234,10.939 -4.3556,3.5925 -10.0099,4.4977 -15.7441,4.4977 z"/>
        <path id="path38" style="fill:#ff0000;fill-rule:evenodd" d="m 276.557,547.6789 c 0.4449,1.4347 0.627,8.1356 0.7438,14.8781 v 23.7729 h -6.5872 c -2.9224,-1.2895 -5.5513,-2.2977 -6.3774,-6.2368 v -20.6 c -0.1852,-4.527 -0.8653,-9.1362 -4.7575,-11.2824 -0.8307,-0.4365 -2.406,-1.0697 -4.9005,-1.0697 -1.8396,0 -6.1023,0.4349 -8.9794,4.4309 -2.5628,3.4842 -2.7933,7.8521 -2.8725,11.9449 l -0.146,22.5434 -13.2443,0.063 -0.0238,-48.4304 h 12.4474 l 0.0561,7.4878 c 1.1327,-1.3878 2.5836,-3.4227 6.2476,-5.4652 2.2692,-1.1742 5.549,-2.7611 11.5637,-2.7611 0.813,-0.0138 3.4788,0.1107 5.9517,0.664 5.3477,1.3517 9.3851,5.0779 10.8783,10.0606 z"/>
        <path id="path39" style="fill:#ffb318;fill-rule:evenodd" d="m 472.501,567.3122 v 1.5661 z m -7.4871,18.1763 v 0 c -2.5382,-1.2396 -4.7837,-2.3984 -5.5306,-5.9725 v -20.5885 c -0.1852,-4.5192 -0.8545,-9.0885 -4.7783,-11.2486 -0.813,-0.4419 -2.406,-1.1028 -4.8873,-1.1028 -1.8474,-0.009 -6.1285,0.4834 -8.9794,4.4094 -2.592,3.5457 -2.7826,7.8683 -2.8648,11.9595 l 0.003,22.5965 h -13.3834 l -0.2567,-48.422 h 12.6388 l 0.1191,7.4932 c 1.0644,-1.3494 2.5628,-3.4265 6.2268,-5.4491 2.2347,-1.1957 5.5229,-2.768 11.5768,-2.768 0.7977,0 3.4842,0.0976 5.9364,0.6694 5.3315,1.3732 9.4082,5.0664 10.8828,10.076 0.5349,1.7713 0.7178,12.2369 0.7839,20.1788 l 0.0315,1.5585 -0.0315,1.125 c 0,2.9732 0.0292,5.9332 0.1191,8.888 0.0876,0 0.9213,5.4668 7.1827,6.8192 l -13.2005,-0.0161 c -0.5395,0 -1.125,-0.0945 -1.5884,-0.2059 z"/>
        <path id="path40" style="fill:#ff0000;fill-rule:evenodd" d="m 151.8427,576.9371 c 0,5.5306 5.6182,8.8902 10.036,8.8902 h 3.3943 l -0.0161,-48.7078 h -13.4142 z"/>
      </g>
    </g>
  </g>
</svg>
