<svg version="1.2" xmlns="http://www.w3.org/2000/svg" viewBox="0 0 1550 1550" width="1550" height="1550">
	<title>BAJAFINSV</title>
	<style>
		.s0 { fill: #ffffff } 
	</style>
	<path class="s0" d="m0.5 0v1549.5h1549.4v-1549.5zm542.4 309.5h277.4c72.2 0 187.5 12.7 187.5 122.7 0 54-39.6 91.8-86.5 106.4 57.7 21.4 86.5 59.3 82.8 111.6 0 113.5-109.7 124.3-187.2 124.3h-93.9v-75.6c0-39.7 34.4-39.7 34.4-39.7h84.6c19.8 0 27-16.1 27-16.1l30.7-59.5h-140.5c-30.6 3.6-34.3 41.5-34.3 41.5v-97.4c0-43.3 35.9-45.2 35.9-45.2h106.4c23.5 0 28.8-12.4 28.8-12.4l32.5-61.4h-288.3v365.8h-97.3zm306.3 719.2h66.6v149.7c0 45-30.7 59.5-68.5 59.5h-113.7q-13.3-0.2-21.4-10.8l-19.8-32.5h129.6c16.3 0 27.2-7.2 27.2-23.6zm554.8 0h68.5v149.7c0 45-30.7 59.5-68.5 59.5h-113.4q-13.7-0.2-21.7-10.8l-19.9-32.5h126.2c16.1 0 28.8-7.2 28.8-23.6zm-1324.1 1.9h183.7c37.9 0 99.2 5.5 99.2 54.2 0 25.1-21.7 41.3-46.8 48.4 30.7 9.3 46.8 27.3 46.8 50.5 0 50.6-57.6 55.9-99.2 55.9h-117.1-66.6zm66.6 208.9l19.8-32.3q8.1-10.8 21.7-10.8h73.8c14.5 0 25.4-9 25.4-21.7 0-12.7-10.9-21.7-25.4-21.7l-115.3-1.6zm336.9-208.9h86.5l127.8 208.9h-79.1l-21.7-37.8h-119l19.8-32.3q8.1-10.8 21.7-10.8h50.5l-43.4-77.5-91.7 158.4h-79.4zm554.9 0h86.5l127.9 209h-79.3l-21.4-37.8h-119l19.8-32.3q8.1-10.9 21.7-10.9h50.3l-43.2-77.5-92 158.5h-79.1zm-891.7 45v75.6l19.8-32.3q8.1-10.8 21.7-10.8h75.6c12.7 0 25.4-5.3 25.4-16.1 0-10.9-10.9-16.4-25.4-16.4z"/>
</svg>
