<svg xmlns="http://www.w3.org/2000/svg" xmlns:xlink="http://www.w3.org/1999/xlink" version="1.1" id="Layer_1" x="0px" y="0px" width="100%" viewBox="0 0 1063 1022" enable-background="new 0 0 1063 1022" xml:space="preserve"><script xmlns="" id="nimlmejbmnecnaghgmbahmbaddhjbecg"/><script xmlns=""/><script xmlns=""/>
<path fill="#005DAB" opacity="1.000000" stroke="none" d=" M512.000000,1023.000000   C503.979095,1023.000000 495.958191,1023.000000 487.606567,1022.622070   C477.932983,1018.380127 468.502411,1014.713318 459.265839,1010.609863   C441.387177,1002.667053 423.639893,994.429260 405.797913,986.403137   C380.468018,975.008728 355.093384,963.713684 329.754242,952.339722   C315.655426,946.011108 301.612335,939.558289 287.504333,933.250427   C263.052307,922.317810 238.571899,911.448853 214.098541,900.563965   C199.235947,893.953613 184.344650,887.407288 169.505051,880.745850   C161.965485,877.361328 154.511780,873.785522 146.609512,870.105408   C147.884827,869.258545 148.502823,868.714722 149.220261,868.391602   C162.106888,862.586853 175.034302,856.872009 187.894470,851.009460   C204.955048,843.232300 221.930756,835.268616 239.004883,827.521545   C266.248169,815.160339 293.564056,802.959290 320.807220,790.597778   C337.580872,782.986755 354.251495,775.148987 371.012451,767.509644   C399.734924,754.418335 428.480225,741.376892 457.239899,728.367493   C469.666199,722.746460 482.212280,717.387146 494.589233,711.661072   C502.343842,708.073425 510.352905,704.723450 517.403137,700.004761   C526.232544,694.095337 528.439392,680.683594 520.037170,673.608032   C517.540649,671.505676 514.862366,669.433228 511.932587,668.062683   C497.041199,661.096436 482.024597,654.398499 467.081024,647.542969   C449.739655,639.587402 432.293793,631.841003 415.163422,623.452148   C407.070221,619.488831 399.636261,617.088806 391.824829,623.534302   C390.869171,624.322876 389.371460,624.420471 388.184814,624.968018   C361.450348,637.302979 334.719391,649.645569 307.998108,662.009033   C285.754700,672.300476 263.533813,682.640625 241.285904,692.922363   C214.409851,705.342896 187.504471,717.700012 160.633102,730.130615   C138.538330,740.351685 116.470718,750.631409 94.398262,760.900574   C69.485451,772.491272 44.594673,784.129395 19.661449,795.675964   C14.178389,798.215210 8.556875,800.455444 2.999251,802.375305   C3.000257,735.646362 3.059141,669.375427 2.897871,603.104919   C2.884167,597.473267 4.670903,594.140747 9.889929,591.972229   C19.416428,588.013916 28.771395,583.640137 38.175243,579.389526   C79.429810,560.742188 120.691772,542.111023 161.900299,523.362488   C165.768051,521.602783 169.280701,519.062561 173.141205,516.594177   C175.921982,515.227478 174.883728,514.415405 173.141113,513.621033   C162.089172,508.583252 151.056458,503.502960 139.987442,498.502991   C113.210411,486.407471 86.413460,474.356049 59.631489,462.271515   C45.116135,455.721924 30.653191,449.054352 16.086021,442.622498   C11.185233,440.458679 6.035798,438.858032 1.000000,437.000000   C1.000000,365.979095 1.000000,294.958221 1.376859,223.485992   C23.614361,232.928711 45.502213,242.763214 67.327324,252.735046   C85.880074,261.211761 104.345329,269.879730 122.876450,278.404083   C150.663635,291.186157 178.475861,303.913727 206.274963,316.669891   C222.865692,324.282867 239.439133,331.933655 256.042603,339.518799   C286.102173,353.251282 316.194641,366.911896 346.241638,380.671783   C364.787109,389.164612 383.245636,397.847900 401.827759,406.258881   C403.834686,407.167236 406.803589,407.738800 408.651855,406.928406   C424.614441,399.929352 440.401337,392.531189 456.282959,385.345520   C468.708679,379.723480 481.240967,374.335693 493.637848,368.651825   C502.293304,364.683380 510.888489,360.561676 519.345581,356.189209   C526.294373,352.596497 530.204224,344.695862 527.728149,338.719086   C524.552734,331.054352 519.337463,324.834961 511.599121,321.318939   C484.363495,308.944061 457.068207,296.700439 429.810333,284.374268   C401.200073,271.436462 372.587982,258.502502 344.013245,245.486557   C326.651123,237.578049 309.386108,229.456406 292.027954,221.539154   C263.309601,208.440369 234.558243,195.413773 205.805634,182.390213   C196.375992,178.119049 186.870087,174.015717 177.452423,169.718704   C168.366150,165.572891 159.348709,161.276245 149.455582,156.650574   C154.593384,154.307312 158.881027,152.370224 163.153412,150.400055   C180.478882,142.410507 197.809937,134.432968 215.119980,126.410103   C247.506744,111.399445 279.879639,96.358986 312.259583,81.333595   C330.313538,72.955948 348.379425,64.603889 366.423218,56.204430   C396.404785,42.247913 426.329437,28.168093 456.372955,14.346487   C465.449738,10.170678 474.848480,6.696300 484.064484,2.816803   C484.545929,2.614125 484.695770,1.623685 485.000000,0.999997   C494.354218,1.000000 503.708466,1.000000 513.375000,1.364224   C514.019287,2.087440 514.282654,2.601454 514.693115,2.783211   C537.514038,12.888821 560.384094,22.884176 583.166443,33.075638   C598.917542,40.121731 614.532043,47.472652 630.238281,54.619888   C655.212097,65.984444 680.221313,77.271263 705.196716,88.632439   C721.203552,95.913902 737.161682,103.302460 753.167847,110.585442   C781.881653,123.650513 810.622803,136.655457 839.337463,149.718658   C855.344482,157.000732 871.304016,164.387085 887.315308,171.659714   C912.146423,182.938538 936.998352,194.171783 961.851685,205.401703   C975.023315,211.353256 988.391174,216.901764 1001.354370,223.275101   C1016.492737,230.717804 1032.849976,235.890518 1046.084595,246.989029   C1053.436523,253.154205 1059.512573,260.093933 1062.120361,269.592468   C1062.283936,270.188721 1063.352417,270.536591 1064.000000,271.000000   C1064.000000,279.354218 1064.000000,287.708466 1063.667725,296.331543   C1062.950439,296.912842 1062.386475,297.145477 1062.206543,297.549316   C1055.298462,313.045258 1042.793945,322.858276 1028.076538,329.869965   C1003.294556,341.676727 978.218323,352.865387 953.273254,364.330170   C940.724915,370.097412 928.219055,375.957886 915.647766,381.674347   C890.816772,392.965515 865.935486,404.146088 841.110046,415.449310   C824.353027,423.078888 807.676941,430.886047 790.927551,438.532471   C761.025757,452.183136 731.101501,465.784546 701.174377,479.379700   C692.500854,483.319885 683.758606,487.109070 675.095825,491.072357   C660.478394,497.759888 645.899231,504.531158 630.654724,511.566803   C632.527161,512.606018 633.754456,513.390198 635.063660,513.997925   C648.333923,520.157837 661.583008,526.364868 674.904480,532.412354   C702.733704,545.045959 730.632446,557.526428 758.447693,570.190491   C786.874146,583.132874 815.234924,596.219543 843.624268,609.243652   C859.161499,616.371643 874.680725,623.539246 890.239380,630.620178   C915.217102,641.988098 940.229736,653.279419 965.209778,664.642029   C978.528259,670.700134 991.799072,676.863037 1005.110291,682.937073   C1018.999756,689.275024 1033.530518,694.501221 1045.502441,704.321228   C1052.531616,710.086853 1058.982910,716.564819 1061.916260,725.645386   C1062.211548,726.559326 1063.286743,727.221191 1064.000000,728.000000   C1064.000000,737.354248 1064.000000,746.708435 1063.677612,756.296265   C1062.312988,757.481628 1060.932129,758.244873 1060.280762,759.414307   C1053.696655,771.234314 1043.820679,779.570129 1031.937744,785.444031   C1016.897705,792.878235 1001.641235,799.882751 986.386719,806.873230   C960.683105,818.651978 934.898804,830.254639 909.164734,841.967102   C886.570801,852.250305 864.011963,862.610596 841.414490,872.885803   C811.935242,886.290283 782.423523,899.623596 752.943909,913.027283   C730.495789,923.233948 708.084534,933.521851 685.641174,943.739136   C651.677979,959.200806 617.748169,974.737244 583.713867,990.040955   C560.344360,1000.549133 536.817810,1010.707886 513.388672,1021.084229   C512.765259,1021.360291 512.455872,1022.345459 512.000000,1023.000000  z"/>






<path fill="#005DAB" opacity="1.000000" stroke="none" d=" M1.000009,593.468689   C6.033552,591.143555 11.180770,589.544556 16.079224,587.382080   C30.639536,580.954224 45.095421,574.290161 59.604095,567.744934   C86.373848,555.668518 113.164597,543.638489 139.920380,531.531189   C149.793915,527.063232 159.589737,522.423767 169.433304,517.889221   C170.310837,517.484924 171.279022,517.277527 172.581665,516.931702   C169.280701,519.062561 165.768051,521.602783 161.900299,523.362488   C120.691772,542.111023 79.429810,560.742188 38.175243,579.389526   C28.771395,583.640137 19.416428,588.013916 9.889929,591.972229   C4.670903,594.140747 2.884167,597.473267 2.897871,603.104919   C3.059141,669.375427 3.000257,735.646362 2.999237,802.375244   C2.522120,803.170837 2.045144,803.508301 1.284084,803.922852   C1.000000,733.979126 1.000000,663.958191 1.000009,593.468689  z"/>
</svg>
