<svg version="1.2" xmlns="http://www.w3.org/2000/svg" viewBox="0 0 1551 1569" width="1551" height="1569">
	<title>BPCL</title>
	<style>
		.s0 { fill: #1e82c8 } 
		.s1 { fill: #ffd93a } 
		.s2 { fill: #ffffff } 
	</style>
	<path fill-rule="evenodd" class="s0" d="m775.3 1568.3c-428.5 0-774.9-350.3-774.9-783.7 0-433.4 346.4-783.7 774.9-783.7 428.5 0 774.8 350.3 774.8 783.7 0 433.4-346.3 783.7-774.8 783.7z"/>
	<path fill-rule="evenodd" class="s1" d="m1015.2 645.8c-246.3-231.5-644-36-645.6 247.9 6.8 295.4 343.5 221 336.5 30.7 7-217.6 110.4-262.4 309.1-278.6z"/>
	<path fill-rule="evenodd" class="s1" d="m536.9 1245c246.6 229.5 643.8 36.1 647.1-248.1-6.4-296.8-344.6-224.9-336.7-32.5-6.6 217.8-111.4 262.3-310.4 280.6z"/>
	<path fill-rule="evenodd" class="s2" d="m775.3 1551.7c-327.9 0-592.9-268.2-592.9-600.1 0-331.8 265-600.1 592.9-600.1 327.8 0 592.8 268.3 592.8 600.1 0 331.9-265 600.1-592.8 600.1zm517.2-600.7c0-289.5-230.9-523.5-516.5-523.5-285.6 0-516.4 234-516.4 523.5 0 289.5 230.8 523.5 516.4 523.5 285.6 0 516.5-234 516.5-523.5z"/>
</svg>