<svg version="1.1" id="Layer_1" xmlns="http://www.w3.org/2000/svg" xmlns:xlink="http://www.w3.org/1999/xlink" x="0px" y="0px"
	 width="100%" viewBox="0 0 1412 497" enable-background="new 0 0 1412 497" xml:space="preserve">
<path fill="#EB1923" opacity="1.000000" stroke="none" 
	d="
M1413.000000,330.000000 
	C1413.000000,333.030609 1413.000000,336.061188 1412.561768,339.708313 
	C1365.602295,337.281006 1319.115356,333.471893 1272.551147,331.391418 
	C1217.135010,328.915466 1161.660400,328.838440 1106.185669,330.724609 
	C1051.571411,332.581573 997.088928,336.003387 942.748108,341.820312 
	C893.229858,347.120972 843.963562,354.137787 795.314148,364.774231 
	C765.424988,371.309021 735.871460,379.378632 705.854858,386.565613 
	C682.027222,380.255981 658.652771,373.518677 634.969177,368.144043 
	C572.381470,353.940674 508.920898,345.152557 445.073242,339.054657 
	C388.174744,333.620422 331.128479,330.243927 273.987610,330.098724 
	C222.528229,329.967957 171.051147,330.990479 119.608330,332.441956 
	C90.997925,333.249176 62.441399,335.969635 33.860950,337.833374 
	C22.906788,338.547668 11.953620,339.277313 1.000000,340.000000 
	C1.000000,336.307098 1.000000,332.614166 1.410524,328.625000 
	C2.191432,327.816711 2.829119,327.335785 2.892903,326.788025 
	C4.297953,314.721710 5.610927,302.644684 6.999905,290.576477 
	C8.969486,273.463593 11.014085,256.359344 12.974947,239.245499 
	C15.011300,221.472778 16.965446,203.690643 18.993711,185.916977 
	C20.965618,168.637146 22.991852,151.363510 24.983271,134.085892 
	C26.993252,116.647217 29.004808,99.208687 30.985924,81.766716 
	C31.994482,72.887268 38.048470,65.865250 46.805164,64.041824 
	C58.947155,61.513470 71.130135,59.177002 83.315002,56.860634 
	C104.325287,52.866535 125.329796,48.835876 146.377823,45.048958 
	C157.804306,42.993130 169.312073,41.385818 180.789597,39.617897 
	C190.975845,38.048878 201.160446,36.463001 211.365067,35.021065 
	C222.073212,33.507977 232.807495,32.180962 243.524338,30.728235 
	C252.446426,29.518799 261.347046,28.142805 270.280548,27.028034 
	C279.567657,25.869144 288.886780,24.969711 298.184631,23.893919 
	C309.097229,22.631289 319.994659,21.234474 330.912750,20.023064 
	C338.268829,19.206882 345.653473,18.652130 353.017975,17.907427 
	C365.599335,16.635193 378.164185,15.188700 390.756348,14.038406 
	C400.277374,13.168658 409.838440,12.745236 419.366882,11.946806 
	C434.120758,10.710505 448.852844,9.207759 463.611694,8.039427 
	C474.469849,7.179879 485.350525,6.558792 496.231049,6.038260 
	C512.432800,5.263152 528.641541,4.624722 544.850647,4.015945 
	C555.950806,3.599048 567.058533,3.379034 578.156311,2.914284 
	C579.129211,2.873541 580.053284,1.665727 581.000000,0.999996 
	C664.687561,1.000000 748.375122,1.000000 832.377747,1.420837 
	C833.540405,2.224343 834.374207,2.903513 835.237793,2.943882 
	C844.003052,3.353612 852.774536,3.626601 861.541565,4.001060 
	C876.580627,4.643417 891.616760,5.355478 906.656128,5.990289 
	C915.755981,6.374392 924.861511,6.625925 933.960999,7.017256 
	C940.066711,7.279841 946.178467,7.540584 952.266541,8.051590 
	C967.018188,9.289779 981.751160,10.751369 996.504150,11.971869 
	C1006.362976,12.787472 1016.263550,13.129795 1026.109253,14.065248 
	C1041.637085,15.540573 1057.130005,17.378235 1072.645874,18.983946 
	C1086.211060,20.387787 1099.812256,21.474840 1113.352295,23.083139 
	C1127.987305,24.821470 1142.562134,27.059435 1157.177246,28.972868 
	C1170.667236,30.739004 1184.209106,32.136013 1197.668457,34.103256 
	C1219.026123,37.224918 1240.353027,40.570488 1261.656982,44.041973 
	C1277.295776,46.590332 1292.905884,49.338837 1308.476318,52.276150 
	C1326.593872,55.693977 1344.614014,59.638382 1362.755371,62.917103 
	C1372.944214,64.758553 1383.461792,72.066734 1383.124268,82.686195 
	C1383.021240,85.924187 1383.830078,89.191788 1384.228516,92.444931 
	C1385.483887,102.695015 1386.816772,112.936272 1387.978760,123.196899 
	C1389.106445,133.154739 1389.985352,143.140732 1391.110229,153.098907 
	C1392.324341,163.848541 1393.738403,174.575439 1394.985107,185.321564 
	C1395.799316,192.338669 1396.400757,199.380508 1397.222168,206.396667 
	C1398.422729,216.652374 1399.812866,226.886154 1400.977905,237.145691 
	C1402.108521,247.103043 1402.981201,257.089661 1404.105957,267.047729 
	C1405.320190,277.797760 1406.761108,288.522156 1407.980835,299.271606 
	C1409.091919,309.063934 1410.012573,318.877930 1411.134766,328.668915 
	C1411.192871,329.177185 1412.352905,329.559204 1413.000000,330.000000 
M267.106445,222.618195 
	C269.470215,204.394897 263.333344,190.362747 246.364594,181.782547 
	C268.801849,165.104248 262.691681,134.086502 247.793854,120.893471 
	C238.081528,112.292534 226.358154,109.083824 213.661758,109.027771 
	C193.505920,108.938782 173.349411,108.999268 153.193192,108.996559 
	C151.915756,108.996384 150.638321,108.996529 149.288788,108.996529 
	C149.288788,159.709869 149.288788,209.909714 149.288788,260.509491 
	C153.548782,260.509491 157.521606,260.529449 161.494156,260.506165 
	C182.812469,260.381165 204.159729,260.892303 225.441177,259.938599 
	C248.521637,258.904266 263.060791,245.468353 267.106445,222.618195 
M805.417847,196.083633 
	C825.271423,216.289093 845.295166,236.332260 864.848572,256.824097 
	C869.254639,261.441589 873.629639,261.628418 878.842407,260.809692 
	C878.842407,210.052475 878.842407,159.661835 878.842407,109.325928 
	C867.946838,109.325928 857.389038,109.325928 846.193054,109.325928 
	C846.193054,137.632294 846.193054,165.610992 846.193054,193.589676 
	C845.777100,193.786362 845.361206,193.983032 844.945251,194.179703 
	C843.935852,192.883026 843.041931,191.473251 841.899841,190.306412 
	C816.724060,164.584839 791.385071,139.020538 766.449402,113.068649 
	C762.029724,108.468864 757.640442,107.372330 751.842407,108.593948 
	C751.842407,159.152222 751.842407,209.694595 751.842407,260.219971 
	C762.637573,260.219971 773.070923,260.219971 783.979492,260.219971 
	C783.979492,231.726624 783.979492,203.526291 783.979492,175.669220 
	C791.008728,182.351440 797.965332,188.964676 805.417847,196.083633 
M413.040710,254.754425 
	C401.902618,238.388718 390.764557,222.022995 380.206116,206.508942 
	C385.883606,201.316711 392.206665,197.127792 396.412567,191.387573 
	C408.816284,174.458954 409.760406,155.693878 401.136536,137.018677 
	C392.877106,119.132683 377.726379,109.806267 358.255005,109.101364 
	C335.464203,108.276299 312.628143,108.698532 289.811676,108.599297 
	C289.525024,108.598045 289.237274,108.856064 288.790863,109.068977 
	C288.790863,159.383606 288.790863,209.757858 288.790863,260.262756 
	C299.524841,260.262756 309.950134,260.262756 321.004333,260.262756 
	C321.004333,243.492493 321.004333,226.966309 321.004333,210.177017 
	C328.943787,210.177017 336.260101,210.339706 343.563141,210.099258 
	C346.605682,209.999069 348.337952,210.955612 349.923553,213.560272 
	C356.846252,224.932068 363.569092,236.468781 371.264099,247.306900 
	C374.560638,251.949921 379.531738,257.074280 384.659454,258.381805 
	C393.911835,260.741058 403.854309,260.393890 414.047302,261.220764 
	C413.758453,258.323151 413.612946,256.863525 413.040710,254.754425 
M1033.837769,243.498444 
	C1033.837769,198.752502 1033.837769,154.006561 1033.837769,109.350960 
	C1022.581665,109.350960 1012.013672,109.350960 1000.945312,109.350960 
	C1000.945312,137.711121 1000.945312,165.719620 1000.945312,193.728119 
	C1000.558655,193.943405 1000.172058,194.158691 999.785400,194.373978 
	C998.674072,192.955902 997.685120,191.418198 996.433228,190.137497 
	C971.394714,164.521713 946.192078,139.064041 921.384827,113.226639 
	C916.853577,108.507271 912.340637,107.227951 906.227539,108.649155 
	C906.227539,159.090866 906.227539,209.515305 906.227539,260.130280 
	C916.827454,260.130280 927.359863,260.130280 938.318237,260.130280 
	C938.318237,231.546600 938.318237,203.339813 938.318237,175.133026 
	C938.773010,174.821350 939.227783,174.509674 939.682617,174.197998 
	C940.602539,175.564728 941.335693,177.114746 942.469971,178.271255 
	C968.136292,204.438522 993.978333,230.435440 1019.423096,256.815826 
	C1023.847778,261.403198 1028.219604,261.612854 1033.837769,260.753204 
	C1033.837769,255.117584 1033.837769,249.807587 1033.837769,243.498444 
M617.974243,181.408707 
	C606.783875,205.339066 595.562805,229.255157 584.457520,253.224930 
	C583.492981,255.306747 583.292908,257.742706 582.616699,260.509552 
	C593.890503,260.509552 604.208557,260.598572 614.520447,260.388275 
	C615.707703,260.364044 617.341431,258.915070 617.949463,257.712677 
	C621.096985,251.488556 624.115051,245.188980 626.884338,238.788559 
	C627.977600,236.261780 629.338440,235.428223 632.086853,235.447281 
	C650.745544,235.576614 669.406311,235.592148 688.064575,235.433792 
	C690.947998,235.409332 692.095398,236.562073 693.149414,238.938263 
	C695.910278,245.162567 698.811157,251.332397 701.917297,257.390076 
	C702.597107,258.715942 704.342712,260.344025 705.631897,260.374451 
	C715.939697,260.617828 726.255859,260.510376 737.615112,260.510376 
	C736.722839,257.477173 736.303589,254.913589 735.251343,252.643387 
	C714.780945,208.479919 694.232605,164.352600 673.710388,120.213158 
	C667.491394,106.837196 667.505432,106.830658 652.434387,107.674919 
	C641.056641,131.973373 629.646973,156.340134 617.974243,181.408707 
M1152.348267,243.896179 
	C1153.139771,242.251282 1154.131226,240.669632 1154.676025,238.946716 
	C1155.507324,236.318359 1157.016113,235.434967 1159.807007,235.452866 
	C1178.466675,235.572571 1197.128784,235.424347 1215.786011,235.666580 
	C1217.512695,235.688980 1219.915405,237.443161 1220.798218,239.054031 
	C1224.066284,245.018341 1226.748535,251.300720 1229.846558,257.363556 
	C1230.493164,258.628815 1231.955322,260.342072 1233.074097,260.366608 
	C1243.541626,260.596222 1254.016357,260.502747 1264.446045,260.502747 
	C1264.911621,255.353287 1208.907227,131.941177 1195.216309,107.486160 
	C1191.473511,107.486160 1187.609863,107.185143 1183.831909,107.623497 
	C1182.148926,107.818764 1179.842163,109.127899 1179.165527,110.565559 
	C1156.734985,158.217224 1134.452759,205.938736 1112.231445,253.688538 
	C1111.334351,255.616272 1111.242432,257.918701 1110.673828,260.509369 
	C1121.906494,260.509369 1132.225220,260.598663 1142.537842,260.386871 
	C1143.715332,260.362671 1145.308594,258.886078 1145.935181,257.680664 
	C1148.154175,253.412216 1150.037109,248.969223 1152.348267,243.896179 
M561.062561,176.500015 
	C561.062561,163.412384 561.062561,150.324753 561.062561,137.000870 
	C570.546509,137.000870 579.359863,137.035217 588.172852,136.988434 
	C593.770569,136.958710 599.073914,135.501328 601.978638,130.463577 
	C605.838257,123.769814 608.944275,116.641533 612.566223,109.310898 
	C570.382568,109.310898 529.025452,109.310898 487.647705,109.310898 
	C487.647705,118.678818 487.647705,127.730064 487.647705,137.162140 
	C501.781219,137.162140 515.546936,137.162140 529.888428,137.162140 
	C529.888428,178.408752 529.888428,219.269485 529.888428,260.213379 
	C540.570190,260.213379 550.664124,260.213379 561.062561,260.213379 
	C561.062561,232.448471 561.062561,204.974258 561.062561,176.500015 
M1087.353516,108.973450 
	C1078.412598,108.973450 1069.471680,108.973450 1060.429688,108.973450 
	C1060.429688,159.923615 1060.429688,210.302658 1060.429688,260.681946 
	C1071.324829,260.681946 1081.915894,260.681946 1092.561523,260.681946 
	C1092.561523,210.059601 1092.561523,159.678757 1092.561523,108.973549 
	C1090.935791,108.973549 1089.626709,108.973549 1087.353516,108.973450 
M434.300903,193.499847 
	C434.300903,215.591080 434.300903,237.682312 434.300903,259.602173 
	C445.580811,259.602173 456.141968,259.602173 466.606720,259.602173 
	C466.606720,209.265823 466.606720,159.341293 466.606720,109.293503 
	C455.791229,109.293503 445.241699,109.293503 434.300934,109.293503 
	C434.300934,137.242752 434.300934,164.871292 434.300903,193.499847 
z"/>
<path fill="#000000" opacity="1.000000" stroke="none" 
	d="
M1413.000000,350.000000 
	C1413.000000,399.308105 1413.000000,448.616180 1413.000000,498.000000 
	C1182.310059,498.000000 951.620056,498.000000 720.273071,497.631653 
	C724.766785,495.026672 730.097839,493.127228 735.032593,490.487061 
	C747.399780,483.870453 759.380432,476.507965 771.894165,470.193878 
	C792.424316,459.834900 812.890503,449.209290 834.048889,440.270599 
	C860.611206,429.048859 887.604980,418.720459 914.866394,409.323273 
	C935.166016,402.325897 956.073425,396.972595 976.916138,391.701691 
	C1000.771667,385.668915 1024.733276,379.914764 1048.874390,375.192810 
	C1071.963135,370.676636 1095.318970,367.489502 1118.600220,364.004364 
	C1135.766479,361.434662 1152.962891,358.964600 1170.217041,357.113770 
	C1187.073608,355.305573 1204.013062,354.234100 1220.930298,353.038391 
	C1232.953735,352.188568 1244.995117,351.545593 1257.038208,351.037628 
	C1268.796997,350.541748 1280.569702,350.007294 1292.333496,350.062286 
	C1326.090088,350.220032 1359.845337,350.667694 1393.601196,351.001404 
	C1394.100952,351.006348 1394.634399,350.897247 1395.095337,351.033386 
	C1401.192383,352.833313 1407.151001,352.409363 1413.000000,350.000000 
z"/>
<path fill="#000000" opacity="1.000000" stroke="none" 
	d="
M693.000000,498.000000 
	C462.451477,498.000000 231.902924,498.000000 1.000000,498.000000 
	C1.000000,448.977234 1.000000,399.953644 1.295034,350.123627 
	C3.931832,350.211700 6.241785,351.737701 8.622573,351.857605 
	C12.520971,352.053986 16.459627,351.177704 20.391558,351.033539 
	C31.811251,350.614838 43.237591,350.011505 54.658504,350.066467 
	C80.244186,350.189545 105.828979,350.615234 131.412491,351.021667 
	C144.836487,351.234955 158.258728,351.611877 171.678375,352.024780 
	C178.273499,352.227692 184.873688,352.522339 191.449249,353.052582 
	C206.655838,354.278809 221.849960,355.660797 237.046768,357.006470 
	C244.396027,357.657288 251.771286,358.131897 259.079865,359.100647 
	C275.388824,361.262421 291.667145,363.657867 307.950500,366.009766 
	C319.390961,367.662201 330.909729,368.944366 342.233307,371.197266 
	C363.827972,375.493591 385.452393,379.789825 406.800110,385.140869 
	C434.829468,392.166748 462.901764,399.278473 490.406647,408.070618 
	C520.336182,417.637848 549.636780,429.172668 579.486084,440.080322 
	C586.549622,443.412933 593.453552,446.288025 600.106506,449.658600 
	C621.386169,460.439697 642.541016,471.466827 663.809753,482.269684 
	C673.227966,487.053436 682.811768,491.510834 692.282288,496.193420 
	C692.713806,496.406769 692.769348,497.380463 693.000000,498.000000 
z"/>
<path fill="#7FBD3F" opacity="1.000000" stroke="none" 
	d="
M693.468628,498.000000 
	C692.769348,497.380463 692.713806,496.406769 692.282288,496.193420 
	C682.811768,491.510834 673.227966,487.053436 663.809753,482.269684 
	C642.541016,471.466827 621.386169,460.439697 600.106506,449.658600 
	C593.453552,446.288025 586.549622,443.412933 579.647644,439.806305 
	C589.791260,433.890472 599.871338,428.107697 610.337524,423.138184 
	C641.290527,408.441101 673.524597,397.044769 706.167236,386.759094 
	C735.871460,379.378632 765.424988,371.309021 795.314148,364.774231 
	C843.963562,354.137787 893.229858,347.120972 942.748108,341.820312 
	C997.088928,336.003387 1051.571411,332.581573 1106.185669,330.724609 
	C1161.660400,328.838440 1217.135010,328.915466 1272.551147,331.391418 
	C1319.115356,333.471893 1365.602295,337.281006 1412.561768,340.162415 
	C1413.000000,343.030609 1413.000000,346.061188 1413.000000,349.545898 
	C1407.151001,352.409363 1401.192383,352.833313 1395.095337,351.033386 
	C1394.634399,350.897247 1394.100952,351.006348 1393.601196,351.001404 
	C1359.845337,350.667694 1326.090088,350.220032 1292.333496,350.062286 
	C1280.569702,350.007294 1268.796997,350.541748 1257.038208,351.037628 
	C1244.995117,351.545593 1232.953735,352.188568 1220.930298,353.038391 
	C1204.013062,354.234100 1187.073608,355.305573 1170.217041,357.113770 
	C1152.962891,358.964600 1135.766479,361.434662 1118.600220,364.004364 
	C1095.318970,367.489502 1071.963135,370.676636 1048.874390,375.192810 
	C1024.733276,379.914764 1000.771667,385.668915 976.916138,391.701691 
	C956.073425,396.972595 935.166016,402.325897 914.866394,409.323273 
	C887.604980,418.720459 860.611206,429.048859 834.048889,440.270599 
	C812.890503,449.209290 792.424316,459.834900 771.894165,470.193878 
	C759.380432,476.507965 747.399780,483.870453 735.032593,490.487061 
	C730.097839,493.127228 724.766785,495.026672 719.808105,497.631653 
	C711.312439,498.000000 702.624817,498.000000 693.468628,498.000000 
z"/>
<path fill="#FDD600" opacity="1.000000" stroke="none" 
	d="
M705.854858,386.565613 
	C673.524597,397.044769 641.290527,408.441101 610.337524,423.138184 
	C599.871338,428.107697 589.791260,433.890472 579.373169,439.575623 
	C549.636780,429.172668 520.336182,417.637848 490.406647,408.070618 
	C462.901764,399.278473 434.829468,392.166748 406.800110,385.140869 
	C385.452393,379.789825 363.827972,375.493591 342.233307,371.197266 
	C330.909729,368.944366 319.390961,367.662201 307.950500,366.009766 
	C291.667145,363.657867 275.388824,361.262421 259.079865,359.100647 
	C251.771286,358.131897 244.396027,357.657288 237.046768,357.006470 
	C221.849960,355.660797 206.655838,354.278809 191.449249,353.052582 
	C184.873688,352.522339 178.273499,352.227692 171.678375,352.024780 
	C158.258728,351.611877 144.836487,351.234955 131.412491,351.021667 
	C105.828979,350.615234 80.244186,350.189545 54.658504,350.066467 
	C43.237591,350.011505 31.811251,350.614838 20.391558,351.033539 
	C16.459627,351.177704 12.520971,352.053986 8.622573,351.857605 
	C6.241785,351.737701 3.931832,350.211700 1.295034,349.658630 
	C1.000000,346.969391 1.000000,343.938812 1.000000,340.454102 
	C11.953620,339.277313 22.906788,338.547668 33.860950,337.833374 
	C62.441399,335.969635 90.997925,333.249176 119.608330,332.441956 
	C171.051147,330.990479 222.528229,329.967957 273.987610,330.098724 
	C331.128479,330.243927 388.174744,333.620422 445.073242,339.054657 
	C508.920898,345.152557 572.381470,353.940674 634.969177,368.144043 
	C658.652771,373.518677 682.027222,380.255981 705.854858,386.565613 
z"/>
<path fill="#000000" opacity="1.000000" stroke="none" 
	d="
M1413.000000,329.531342 
	C1412.352905,329.559204 1411.192871,329.177185 1411.134766,328.668915 
	C1410.012573,318.877930 1409.091919,309.063934 1407.980835,299.271606 
	C1406.761108,288.522156 1405.320190,277.797760 1404.105957,267.047729 
	C1402.981201,257.089661 1402.108521,247.103043 1400.977905,237.145691 
	C1399.812866,226.886154 1398.422729,216.652374 1397.222168,206.396667 
	C1396.400757,199.380508 1395.799316,192.338669 1394.985107,185.321564 
	C1393.738403,174.575439 1392.324341,163.848541 1391.110229,153.098907 
	C1389.985352,143.140732 1389.106445,133.154739 1387.978760,123.196899 
	C1386.816772,112.936272 1385.483887,102.695015 1384.228516,92.444931 
	C1383.830078,89.191788 1383.021240,85.924187 1383.124268,82.686195 
	C1383.461792,72.066734 1372.944214,64.758553 1362.755371,62.917103 
	C1344.614014,59.638382 1326.593872,55.693977 1308.476318,52.276150 
	C1292.905884,49.338837 1277.295776,46.590332 1261.656982,44.041973 
	C1240.353027,40.570488 1219.026123,37.224918 1197.668457,34.103256 
	C1184.209106,32.136013 1170.667236,30.739004 1157.177246,28.972868 
	C1142.562134,27.059435 1127.987305,24.821470 1113.352295,23.083139 
	C1099.812256,21.474840 1086.211060,20.387787 1072.645874,18.983946 
	C1057.130005,17.378235 1041.637085,15.540573 1026.109253,14.065248 
	C1016.263550,13.129795 1006.362976,12.787472 996.504150,11.971869 
	C981.751160,10.751369 967.018188,9.289779 952.266541,8.051590 
	C946.178467,7.540584 940.066711,7.279841 933.960999,7.017256 
	C924.861511,6.625925 915.755981,6.374392 906.656128,5.990289 
	C891.616760,5.355478 876.580627,4.643417 861.541565,4.001060 
	C852.774536,3.626601 844.003052,3.353612 835.237793,2.943882 
	C834.374207,2.903513 833.540405,2.224343 832.846436,1.420837 
	C1026.240234,1.000000 1219.480591,1.000000 1413.000000,1.000000 
	C1413.000000,110.354073 1413.000000,219.708374 1413.000000,329.531342 
z"/>
<path fill="#000000" opacity="1.000000" stroke="none" 
	d="
M580.531372,0.999996 
	C580.053284,1.665727 579.129211,2.873541 578.156311,2.914284 
	C567.058533,3.379034 555.950806,3.599048 544.850647,4.015945 
	C528.641541,4.624722 512.432800,5.263152 496.231049,6.038260 
	C485.350525,6.558792 474.469849,7.179879 463.611694,8.039427 
	C448.852844,9.207759 434.120758,10.710505 419.366882,11.946806 
	C409.838440,12.745236 400.277374,13.168658 390.756348,14.038406 
	C378.164185,15.188700 365.599335,16.635193 353.017975,17.907427 
	C345.653473,18.652130 338.268829,19.206882 330.912750,20.023064 
	C319.994659,21.234474 309.097229,22.631289 298.184631,23.893919 
	C288.886780,24.969711 279.567657,25.869144 270.280548,27.028034 
	C261.347046,28.142805 252.446426,29.518799 243.524338,30.728235 
	C232.807495,32.180962 222.073212,33.507977 211.365067,35.021065 
	C201.160446,36.463001 190.975845,38.048878 180.789597,39.617897 
	C169.312073,41.385818 157.804306,42.993130 146.377823,45.048958 
	C125.329796,48.835876 104.325287,52.866535 83.315002,56.860634 
	C71.130135,59.177002 58.947155,61.513470 46.805164,64.041824 
	C38.048470,65.865250 31.994482,72.887268 30.985924,81.766716 
	C29.004808,99.208687 26.993252,116.647217 24.983271,134.085892 
	C22.991852,151.363510 20.965618,168.637146 18.993711,185.916977 
	C16.965446,203.690643 15.011300,221.472778 12.974947,239.245499 
	C11.014085,256.359344 8.969486,273.463593 6.999905,290.576477 
	C5.610927,302.644684 4.297953,314.721710 2.892903,326.788025 
	C2.829119,327.335785 2.191432,327.816711 1.410524,328.164368 
	C1.000000,219.052582 1.000000,110.105171 1.000000,1.000000 
	C194.020859,1.000000 387.041779,1.000000 580.531372,0.999996 
z"/>
<path fill="#FFFDFD" opacity="1.000000" stroke="none" 
	d="
M267.058289,223.048309 
	C263.060791,245.468353 248.521637,258.904266 225.441177,259.938599 
	C204.159729,260.892303 182.812469,260.381165 161.494156,260.506165 
	C157.521606,260.529449 153.548782,260.509491 149.288788,260.509491 
	C149.288788,209.909714 149.288788,159.709869 149.288788,108.996529 
	C150.638321,108.996529 151.915756,108.996384 153.193192,108.996559 
	C173.349411,108.999268 193.505920,108.938782 213.661758,109.027771 
	C226.358154,109.083824 238.081528,112.292534 247.793854,120.893471 
	C262.691681,134.086502 268.801849,165.104248 246.364594,181.782547 
	C263.333344,190.362747 269.470215,204.394897 267.058289,223.048309 
M195.505524,197.832458 
	C190.890610,197.832458 186.275696,197.832458 181.534485,197.832458 
	C181.534485,209.532455 181.534485,220.724380 181.534485,232.091415 
	C194.205688,232.091415 206.515518,232.287323 218.815903,232.030548 
	C228.989243,231.818146 235.458786,224.779678 235.399551,214.671234 
	C235.339508,204.424393 229.022720,198.063751 218.470276,197.862793 
	C211.150681,197.723404 203.826324,197.833710 195.505524,197.832458 
M197.501678,136.876892 
	C192.231842,136.876892 186.962006,136.876892 181.471863,136.876892 
	C181.471863,148.471268 181.471863,159.523621 181.471863,171.033020 
	C192.143173,171.033020 202.576248,171.237457 212.997543,170.974640 
	C223.111374,170.719589 229.175079,164.375656 229.237091,154.623062 
	C229.302505,144.332001 223.067169,137.468231 212.963272,136.977463 
	C208.152084,136.743790 203.322052,136.898239 197.501678,136.876892 
z"/>
<path fill="#FFFBFC" opacity="1.000000" stroke="none" 
	d="
M805.169922,195.830765 
	C797.965332,188.964676 791.008728,182.351440 783.979492,175.669220 
	C783.979492,203.526291 783.979492,231.726624 783.979492,260.219971 
	C773.070923,260.219971 762.637573,260.219971 751.842407,260.219971 
	C751.842407,209.694595 751.842407,159.152222 751.842407,108.593948 
	C757.640442,107.372330 762.029724,108.468864 766.449402,113.068649 
	C791.385071,139.020538 816.724060,164.584839 841.899841,190.306412 
	C843.041931,191.473251 843.935852,192.883026 844.945251,194.179703 
	C845.361206,193.983032 845.777100,193.786362 846.193054,193.589676 
	C846.193054,165.610992 846.193054,137.632294 846.193054,109.325928 
	C857.389038,109.325928 867.946838,109.325928 878.842407,109.325928 
	C878.842407,159.661835 878.842407,210.052475 878.842407,260.809692 
	C873.629639,261.628418 869.254639,261.441589 864.848572,256.824097 
	C845.295166,236.332260 825.271423,216.289093 805.169922,195.830765 
z"/>
<path fill="#FFFBFC" opacity="1.000000" stroke="none" 
	d="
M413.254089,255.079163 
	C413.612946,256.863525 413.758453,258.323151 414.047302,261.220764 
	C403.854309,260.393890 393.911835,260.741058 384.659454,258.381805 
	C379.531738,257.074280 374.560638,251.949921 371.264099,247.306900 
	C363.569092,236.468781 356.846252,224.932068 349.923553,213.560272 
	C348.337952,210.955612 346.605682,209.999069 343.563141,210.099258 
	C336.260101,210.339706 328.943787,210.177017 321.004333,210.177017 
	C321.004333,226.966309 321.004333,243.492493 321.004333,260.262756 
	C309.950134,260.262756 299.524841,260.262756 288.790863,260.262756 
	C288.790863,209.757858 288.790863,159.383606 288.790863,109.068977 
	C289.237274,108.856064 289.525024,108.598045 289.811676,108.599297 
	C312.628143,108.698532 335.464203,108.276299 358.255005,109.101364 
	C377.726379,109.806267 392.877106,119.132683 401.136536,137.018677 
	C409.760406,155.693878 408.816284,174.458954 396.412567,191.387573 
	C392.206665,197.127792 385.883606,201.316711 380.206116,206.508942 
	C390.764557,222.022995 401.902618,238.388718 413.254089,255.079163 
M320.523529,181.933105 
	C321.284943,182.563370 322.049469,183.745361 322.807343,183.741119 
	C334.124786,183.678024 345.491852,184.054672 356.743439,183.101944 
	C367.273102,182.210342 374.639435,172.673996 374.960419,161.445663 
	C375.316986,148.970245 369.108673,139.040192 358.056000,137.948242 
	C345.774780,136.734955 333.281281,137.670517 320.500244,137.670517 
	C320.500244,152.081833 320.500244,166.552368 320.523529,181.933105 
z"/>
<path fill="#FFFDFD" opacity="1.000000" stroke="none" 
	d="
M1033.837769,243.998016 
	C1033.837769,249.807587 1033.837769,255.117584 1033.837769,260.753204 
	C1028.219604,261.612854 1023.847778,261.403198 1019.423096,256.815826 
	C993.978333,230.435440 968.136292,204.438522 942.469971,178.271255 
	C941.335693,177.114746 940.602539,175.564728 939.682617,174.197998 
	C939.227783,174.509674 938.773010,174.821350 938.318237,175.133026 
	C938.318237,203.339813 938.318237,231.546600 938.318237,260.130280 
	C927.359863,260.130280 916.827454,260.130280 906.227539,260.130280 
	C906.227539,209.515305 906.227539,159.090866 906.227539,108.649155 
	C912.340637,107.227951 916.853577,108.507271 921.384827,113.226639 
	C946.192078,139.064041 971.394714,164.521713 996.433228,190.137497 
	C997.685120,191.418198 998.674072,192.955902 999.785400,194.373978 
	C1000.172058,194.158691 1000.558655,193.943405 1000.945312,193.728119 
	C1000.945312,165.719620 1000.945312,137.711121 1000.945312,109.350960 
	C1012.013672,109.350960 1022.581665,109.350960 1033.837769,109.350960 
	C1033.837769,154.006561 1033.837769,198.752502 1033.837769,243.998016 
z"/>
<path fill="#FFFCFC" opacity="1.000000" stroke="none" 
	d="
M618.105713,181.057800 
	C629.646973,156.340134 641.056641,131.973373 652.434387,107.674919 
	C667.505432,106.830658 667.491394,106.837196 673.710388,120.213158 
	C694.232605,164.352600 714.780945,208.479919 735.251343,252.643387 
	C736.303589,254.913589 736.722839,257.477173 737.615112,260.510376 
	C726.255859,260.510376 715.939697,260.617828 705.631897,260.374451 
	C704.342712,260.344025 702.597107,258.715942 701.917297,257.390076 
	C698.811157,251.332397 695.910278,245.162567 693.149414,238.938263 
	C692.095398,236.562073 690.947998,235.409332 688.064575,235.433792 
	C669.406311,235.592148 650.745544,235.576614 632.086853,235.447281 
	C629.338440,235.428223 627.977600,236.261780 626.884338,238.788559 
	C624.115051,245.188980 621.096985,251.488556 617.949463,257.712677 
	C617.341431,258.915070 615.707703,260.364044 614.520447,260.388275 
	C604.208557,260.598572 593.890503,260.509552 582.616699,260.509552 
	C583.292908,257.742706 583.492981,255.306747 584.457520,253.224930 
	C595.562805,229.255157 606.783875,205.339066 618.105713,181.057800 
M655.502686,208.084381 
	C663.716980,208.084381 671.931213,208.084381 680.937195,208.084381 
	C673.895813,191.297501 667.206787,175.350677 660.009033,158.191101 
	C652.792480,175.427948 646.073669,191.475845 639.120117,208.084381 
	C644.883423,208.084381 649.693665,208.084381 655.502686,208.084381 
z"/>
<path fill="#FFFCFC" opacity="1.000000" stroke="none" 
	d="
M1152.197754,244.244293 
	C1150.037109,248.969223 1148.154175,253.412216 1145.935181,257.680664 
	C1145.308594,258.886078 1143.715332,260.362671 1142.537842,260.386871 
	C1132.225220,260.598663 1121.906494,260.509369 1110.673828,260.509369 
	C1111.242432,257.918701 1111.334351,255.616272 1112.231445,253.688538 
	C1134.452759,205.938736 1156.734985,158.217224 1179.165527,110.565559 
	C1179.842163,109.127899 1182.148926,107.818764 1183.831909,107.623497 
	C1187.609863,107.185143 1191.473511,107.486160 1195.216309,107.486160 
	C1208.907227,131.941177 1264.911621,255.353287 1264.446045,260.502747 
	C1254.016357,260.502747 1243.541626,260.596222 1233.074097,260.366608 
	C1231.955322,260.342072 1230.493164,258.628815 1229.846558,257.363556 
	C1226.748535,251.300720 1224.066284,245.018341 1220.798218,239.054031 
	C1219.915405,237.443161 1217.512695,235.688980 1215.786011,235.666580 
	C1197.128784,235.424347 1178.466675,235.572571 1159.807007,235.452866 
	C1157.016113,235.434967 1155.507324,236.318359 1154.676025,238.946716 
	C1154.131226,240.669632 1153.139771,242.251282 1152.197754,244.244293 
M1170.369141,199.869431 
	C1169.345337,202.451996 1168.321533,205.034546 1167.264771,207.700043 
	C1181.121216,207.700043 1194.589722,207.700043 1208.666870,207.700043 
	C1201.741577,191.218430 1195.046997,175.285721 1187.871094,158.207672 
	C1181.804321,172.711075 1176.264648,185.954163 1170.369141,199.869431 
z"/>
<path fill="#FFFEFE" opacity="1.000000" stroke="none" 
	d="
M561.062561,177.000031 
	C561.062561,204.974258 561.062561,232.448471 561.062561,260.213379 
	C550.664124,260.213379 540.570190,260.213379 529.888428,260.213379 
	C529.888428,219.269485 529.888428,178.408752 529.888428,137.162140 
	C515.546936,137.162140 501.781219,137.162140 487.647705,137.162140 
	C487.647705,127.730064 487.647705,118.678818 487.647705,109.310898 
	C529.025452,109.310898 570.382568,109.310898 612.566223,109.310898 
	C608.944275,116.641533 605.838257,123.769814 601.978638,130.463577 
	C599.073914,135.501328 593.770569,136.958710 588.172852,136.988434 
	C579.359863,137.035217 570.546509,137.000870 561.062561,137.000870 
	C561.062561,150.324753 561.062561,163.412384 561.062561,177.000031 
z"/>
<path fill="#FFFCFC" opacity="1.000000" stroke="none" 
	d="
M1087.835571,108.973495 
	C1089.626709,108.973549 1090.935791,108.973549 1092.561523,108.973549 
	C1092.561523,159.678757 1092.561523,210.059601 1092.561523,260.681946 
	C1081.915894,260.681946 1071.324829,260.681946 1060.429688,260.681946 
	C1060.429688,210.302658 1060.429688,159.923615 1060.429688,108.973450 
	C1069.471680,108.973450 1078.412598,108.973450 1087.835571,108.973495 
z"/>
<path fill="#FFFBFB" opacity="1.000000" stroke="none" 
	d="
M434.300903,192.999847 
	C434.300934,164.871292 434.300934,137.242752 434.300934,109.293503 
	C445.241699,109.293503 455.791229,109.293503 466.606720,109.293503 
	C466.606720,159.341293 466.606720,209.265823 466.606720,259.602173 
	C456.141968,259.602173 445.580811,259.602173 434.300903,259.602173 
	C434.300903,237.682312 434.300903,215.591080 434.300903,192.999847 
z"/>
<path fill="#EB1B25" opacity="1.000000" stroke="none" 
	d="
M196.004822,197.832458 
	C203.826324,197.833710 211.150681,197.723404 218.470276,197.862793 
	C229.022720,198.063751 235.339508,204.424393 235.399551,214.671234 
	C235.458786,224.779678 228.989243,231.818146 218.815903,232.030548 
	C206.515518,232.287323 194.205688,232.091415 181.534485,232.091415 
	C181.534485,220.724380 181.534485,209.532455 181.534485,197.832458 
	C186.275696,197.832458 190.890610,197.832458 196.004822,197.832458 
z"/>
<path fill="#EB1C25" opacity="1.000000" stroke="none" 
	d="
M198.001114,136.876892 
	C203.322052,136.898239 208.152084,136.743790 212.963272,136.977463 
	C223.067169,137.468231 229.302505,144.332001 229.237091,154.623062 
	C229.175079,164.375656 223.111374,170.719589 212.997543,170.974640 
	C202.576248,171.237457 192.143173,171.033020 181.471863,171.033020 
	C181.471863,159.523621 181.471863,148.471268 181.471863,136.876892 
	C186.962006,136.876892 192.231842,136.876892 198.001114,136.876892 
z"/>
<path fill="#EB1D27" opacity="1.000000" stroke="none" 
	d="
M320.511902,181.477997 
	C320.500244,166.552368 320.500244,152.081833 320.500244,137.670517 
	C333.281281,137.670517 345.774780,136.734955 358.056000,137.948242 
	C369.108673,139.040192 375.316986,148.970245 374.960419,161.445663 
	C374.639435,172.673996 367.273102,182.210342 356.743439,183.101944 
	C345.491852,184.054672 334.124786,183.678024 322.807343,183.741119 
	C322.049469,183.745361 321.284943,182.563370 320.511902,181.477997 
z"/>
<path fill="#EB1C26" opacity="1.000000" stroke="none" 
	d="
M655.003296,208.084381 
	C649.693665,208.084381 644.883423,208.084381 639.120117,208.084381 
	C646.073669,191.475845 652.792480,175.427948 660.009033,158.191101 
	C667.206787,175.350677 673.895813,191.297501 680.937195,208.084381 
	C671.931213,208.084381 663.716980,208.084381 655.003296,208.084381 
z"/>
<path fill="#EB1C26" opacity="1.000000" stroke="none" 
	d="
M1170.547119,199.533340 
	C1176.264648,185.954163 1181.804321,172.711075 1187.871094,158.207672 
	C1195.046997,175.285721 1201.741577,191.218430 1208.666870,207.700043 
	C1194.589722,207.700043 1181.121216,207.700043 1167.264771,207.700043 
	C1168.321533,205.034546 1169.345337,202.451996 1170.547119,199.533340 
z"/>
</svg>