<svg xmlns="http://www.w3.org/2000/svg" xmlns:xlink="http://www.w3.org/1999/xlink" version="1.1" id="Layer_1" x="0px" y="0px" width="100%" viewBox="0 0 1316 1344" enable-background="new 0 0 1316 1344" xml:space="preserve"><script xmlns="" id="nimlmejbmnecnaghgmbahmbaddhjbecg"/><script xmlns=""/><script xmlns=""/>
<path fill="#233F8C" opacity="1.000000" stroke="none" d=" M643.000000,1.000008   C663.687561,1.000000 684.375122,1.000000 705.516113,1.421854   C706.649536,2.212632 707.301880,2.833199 708.013794,2.911361   C714.739319,3.649794 721.515198,4.025369 728.200073,5.019849   C747.254028,7.854436 766.322571,10.642915 785.294006,13.970468   C825.479675,21.018944 864.629517,31.899141 902.999634,45.817947   C940.236511,59.325729 975.829346,76.191521 1010.078613,96.006737   C1049.985718,119.095345 1086.916626,146.309738 1120.241943,178.084610   C1139.082642,196.048828 1156.973145,215.141617 1173.978149,234.858994   C1188.703369,251.933014 1202.413208,270.038879 1215.043335,288.721985   C1228.977173,309.333862 1241.936279,330.700897 1253.938477,352.499603   C1271.484375,384.367065 1286.481323,417.521484 1297.998535,452.088165   C1304.192627,470.678467 1309.320190,489.623596 1315.005371,508.385406   C1315.303223,509.368134 1316.318726,510.133453 1317.000000,511.000000   C1317.000000,513.700012 1317.000000,516.400024 1316.531372,519.550049   C1192.733765,519.999939 1069.404785,519.963989 946.075989,520.129700   C941.074646,520.136414 938.344238,518.633545 935.980652,514.353699   C932.081482,507.293152 927.672485,500.495758 923.194153,493.776825   C907.509277,470.244080 889.421936,448.800903 867.885193,430.340149   C851.254150,416.084442 833.089111,404.135406 813.752808,393.957062   C791.276184,382.125763 767.414124,373.957489 742.687866,368.434357   C718.935913,363.128845 694.832642,359.867615 670.476318,360.152008   C653.611755,360.348938 636.710876,361.446747 619.925049,363.128723   C606.182495,364.505798 592.540894,367.094086 578.935669,369.588043   C560.065857,373.047028 543.004761,381.287781 526.025879,389.895599   C499.732605,403.225555 476.014954,420.213898 454.579071,440.226746   C443.713745,450.370728 433.793549,461.678833 424.448975,473.269196   C403.419159,499.353302 388.279175,528.824524 376.890717,560.244873   C370.079712,579.036255 365.187164,598.318726 361.749084,618.042542   C358.391266,637.305908 356.033478,656.604004 356.002716,676.164490   C355.987274,685.997559 355.821411,695.835205 356.076141,705.661682   C356.203766,710.586487 356.757019,715.566223 357.756256,720.388855   C359.960541,731.027527 362.276947,741.660278 365.074219,752.155090   C371.032196,774.508667 378.756866,796.262817 388.646149,817.196411   C401.416016,844.227783 416.841888,869.638977 437.264984,891.586182   C448.647308,903.818115 460.494568,915.821899 473.391449,926.392212   C492.859833,942.348633 514.302551,955.664490 537.877502,964.763550   C554.127625,971.035400 570.829346,976.331421 587.655823,980.846497   C598.725464,983.816833 610.342712,984.885620 621.774719,986.332703   C638.459473,988.444763 655.164185,990.596680 671.926941,991.817566   C681.304810,992.500610 690.904358,992.031311 700.248901,990.852234   C715.588318,988.916687 731.023315,986.894348 746.016052,983.253479   C768.529663,977.786194 789.841492,968.905823 810.146362,957.522949   C833.650330,944.346680 854.992676,928.285156 874.421692,909.805969   C885.079651,899.669067 894.540405,888.247803 904.275879,877.172607   C919.049133,860.366394 931.159363,841.662170 942.185669,822.263000   C943.980896,819.104675 945.739319,817.909546 949.410278,817.912781   C1069.573486,818.019104 1189.736816,817.999207 1309.900146,818.013611   C1311.644531,818.013855 1313.388794,818.211243 1315.411011,818.333374   C1314.901367,823.158630 1314.764893,827.408752 1313.960938,831.528564   C1311.093018,846.222412 1309.016724,861.172241 1304.797363,875.481689   C1292.448486,917.363464 1274.075806,956.720886 1251.832397,994.216248   C1231.107300,1029.151978 1209.296265,1063.451050 1183.464478,1094.881348   C1165.827148,1116.341553 1147.600098,1137.388794 1128.529297,1157.574463   C1115.712769,1171.140137 1101.344604,1183.338013 1086.972046,1195.309082   C1071.009277,1208.604492 1054.773682,1221.701538 1037.695068,1233.491577   C1020.613953,1245.283325 1002.844177,1256.306641 984.470947,1265.939819   C960.790283,1278.355713 936.578186,1289.940552 911.900330,1300.214722   C891.857422,1308.559204 871.003052,1315.181641 850.114868,1321.202026   C831.001404,1326.711182 811.415771,1330.652222 791.929871,1334.771973   C781.142944,1337.052490 770.169189,1338.571655 759.215271,1339.906128   C747.906616,1341.283936 736.516602,1341.987061 725.174988,1343.114258   C724.395203,1343.191772 723.722534,1344.346436 723.000000,1345.000000   C698.979126,1345.000000 674.958191,1345.000000 650.479309,1344.574341   C649.172852,1343.775146 648.343384,1343.129883 647.473206,1343.069214   C636.907227,1342.332642 626.318481,1341.875000 615.768921,1340.960938   C602.283813,1339.792603 588.720398,1338.941162 575.383667,1336.768799   C547.265259,1332.188721 519.337463,1326.712402 491.763977,1319.247803   C450.994507,1308.210693 411.676788,1293.497192 373.666748,1275.239868   C338.444672,1258.321655 305.243317,1237.996094 273.441437,1215.282959   C249.030838,1197.848877 226.093002,1178.681763 204.560226,1157.875610   C193.350494,1147.044189 182.622543,1135.632568 172.491119,1123.786865   C159.298065,1108.361328 146.006439,1092.878174 134.399414,1076.272095   C118.068115,1052.907104 102.236145,1029.066650 88.066429,1004.353943   C74.531616,980.748535 62.418026,956.197510 51.452690,931.281860   C37.095520,898.659363 26.035389,864.748596 18.509632,829.832520   C14.590755,811.650696 11.053584,793.364685 8.095123,775.004700   C5.788647,760.690918 4.674124,746.186218 2.909481,731.781128   C2.788182,730.790955 1.659960,729.924194 1.000005,729.000000   C1.000000,693.979126 1.000000,658.958191 1.409189,623.398254   C2.874375,615.639771 3.958738,608.424377 4.980444,601.200073   C7.080218,586.352905 8.630997,571.406372 11.333080,556.670471   C17.076307,525.349609 24.644459,494.442566 36.225964,464.711212   C45.982204,439.665619 55.498516,414.463409 66.721527,390.066803   C84.280365,351.897400 105.114807,315.475616 129.436111,281.108337   C147.416382,255.701218 166.918823,231.502518 188.576691,209.216263   C205.102753,192.210739 222.484329,175.946030 240.410599,160.420105   C255.091919,147.704651 270.824890,136.126785 286.646576,124.821205   C316.281403,103.645279 347.718384,85.396088 381.024384,70.632782   C403.179138,60.812386 425.456238,51.035965 448.335114,43.143024   C473.841827,34.343498 499.902893,26.947805 526.079224,20.357145   C546.801147,15.139803 567.971008,11.472878 589.111633,8.219973   C606.052551,5.613275 623.251038,4.689690 640.323303,2.904665   C641.271545,2.805519 642.110291,1.659017 643.000000,1.000008  z"/>




</svg>
