<svg version="1.1" id="Layer_1" xmlns="http://www.w3.org/2000/svg" xmlns:xlink="http://www.w3.org/1999/xlink" x="0px" y="0px"
	 width="100%" viewBox="0 0 768 477" enable-background="new 0 0 768 477" xml:space="preserve">
<path fill="#47704C" opacity="1.000000" stroke="none" 
	d="
M1.000001,220.000000 
	C1.000000,147.056442 1.000000,74.112885 1.000000,1.000000 
	C116.354172,1.000000 231.708435,1.000000 347.332001,1.387741 
	C341.350708,2.180616 335.084778,2.425966 328.852722,3.024232 
	C315.978699,4.260113 303.003052,4.993751 290.288177,7.197340 
	C272.571289,10.267820 254.946426,14.056795 237.488922,18.374260 
	C224.669373,21.544703 212.193405,26.095400 199.543198,29.961845 
	C180.163895,35.885002 161.622421,43.891869 143.541595,52.923344 
	C125.070717,62.149658 107.028419,72.295967 90.852783,85.165550 
	C77.421455,95.851700 64.085304,106.904884 52.245419,119.268707 
	C42.048717,129.916626 33.471954,142.272095 25.191837,154.555374 
	C16.835630,166.951538 10.594724,180.581802 6.937253,195.216415 
	C4.877648,203.457489 2.973939,211.737518 1.000001,220.000000 
z"/>
<path fill="#47704C" opacity="1.000000" stroke="none" 
	d="
M422.000000,1.000001 
	C537.577209,1.000000 653.154419,1.000000 769.000000,1.000000 
	C769.000000,73.687340 769.000000,146.375015 768.623779,219.350571 
	C765.492310,208.149597 763.562622,196.382263 759.802002,185.232529 
	C752.953796,164.928513 741.955505,146.648407 727.846252,130.612701 
	C717.357056,118.691261 705.717285,107.742050 694.151184,96.824661 
	C688.055542,91.070961 681.305420,85.888611 674.340942,81.206810 
	C664.387817,74.515930 654.284424,67.913239 643.672119,62.370071 
	C627.778442,54.068230 611.602905,46.217781 595.136597,39.129280 
	C582.716248,33.782524 569.811035,29.396507 556.836121,25.544746 
	C539.942444,20.529652 522.879639,15.951363 505.674500,12.161697 
	C492.659027,9.294853 479.340515,7.689349 466.094513,6.015748 
	C452.937531,4.353389 439.700867,3.324713 426.504364,1.967478 
	C424.985809,1.811299 423.500641,1.330364 422.000000,1.000001 
z"/>
<path fill="#47704C" opacity="1.000000" stroke="none" 
	d="
M348.000000,478.000000 
	C232.422760,478.000000 116.845535,478.000000 1.000000,478.000000 
	C1.000000,405.312653 1.000000,332.625000 1.376176,259.649536 
	C4.507567,270.850677 6.436697,282.618256 10.197959,293.767761 
	C17.047249,314.071075 28.043678,332.352264 42.153446,348.387695 
	C52.642807,360.308594 64.282257,371.257660 75.848267,382.174713 
	C81.944031,387.928436 88.694412,393.110687 95.658951,397.792725 
	C105.612091,404.483765 115.715317,411.087006 126.327728,416.630219 
	C142.221375,424.932007 158.397049,432.782074 174.863358,439.870514 
	C187.283691,445.217194 200.188766,449.603455 213.163681,453.455170 
	C230.057419,458.470276 247.120331,463.048462 264.325531,466.838043 
	C277.341034,469.704803 290.659576,471.310211 303.905579,472.983917 
	C317.062561,474.646332 330.299194,475.675171 343.495697,477.032562 
	C345.014221,477.188782 346.499359,477.669647 348.000000,478.000000 
z"/>
<path fill="#47704C" opacity="1.000000" stroke="none" 
	d="
M769.000000,259.000000 
	C769.000000,331.943542 769.000000,404.887115 769.000000,478.000000 
	C653.645813,478.000000 538.291565,478.000000 422.667969,477.612244 
	C428.649292,476.819672 434.915314,476.574982 441.147369,475.976685 
	C454.021393,474.740753 466.996979,474.006653 479.711823,471.802979 
	C497.428650,468.732422 515.053467,464.943542 532.510864,460.625946 
	C545.330383,457.455444 557.805969,452.903961 570.456360,449.038116 
	C589.836060,443.115814 608.377197,435.108032 626.458069,426.076874 
	C644.929077,416.850891 662.971436,406.704346 679.146973,393.834351 
	C692.578064,383.147858 705.914612,372.095123 717.754639,359.731323 
	C727.951233,349.083496 736.527588,336.727844 744.807739,324.444702 
	C753.164185,312.048492 759.404846,298.418121 763.062378,283.783478 
	C765.122009,275.542389 767.025940,267.262451 769.000000,259.000000 
z"/>
<path fill="#FEFAFA" opacity="1.000000" stroke="none" 
	d="
M769.000000,258.531342 
	C767.025940,267.262451 765.122009,275.542389 763.062378,283.783478 
	C759.404846,298.418121 753.164185,312.048492 744.807739,324.444702 
	C736.527588,336.727844 727.951233,349.083496 717.754639,359.731323 
	C705.914612,372.095123 692.578064,383.147858 679.146973,393.834351 
	C662.971436,406.704346 644.929077,416.850891 626.458069,426.076874 
	C608.377197,435.108032 589.836060,443.115814 570.456360,449.038116 
	C557.805969,452.903961 545.330383,457.455444 532.510864,460.625946 
	C515.053467,464.943542 497.428650,468.732422 479.711823,471.802979 
	C466.996979,474.006653 454.021393,474.740753 441.147369,475.976685 
	C434.915314,476.574982 428.649292,476.819672 422.199341,477.612244 
	C397.645782,478.000000 373.291534,478.000000 348.468658,478.000000 
	C346.499359,477.669647 345.014221,477.188782 343.495697,477.032562 
	C330.299194,475.675171 317.062561,474.646332 303.905579,472.983917 
	C290.659576,471.310211 277.341034,469.704803 264.325531,466.838043 
	C247.120331,463.048462 230.057419,458.470276 213.163681,453.455170 
	C200.188766,449.603455 187.283691,445.217194 174.863358,439.870514 
	C158.397049,432.782074 142.221375,424.932007 126.327728,416.630219 
	C115.715317,411.087006 105.612091,404.483765 95.658951,397.792725 
	C88.694412,393.110687 81.944031,387.928436 75.848267,382.174713 
	C64.282257,371.257660 52.642807,360.308594 42.153446,348.387695 
	C28.043678,332.352264 17.047249,314.071075 10.197959,293.767761 
	C6.436697,282.618256 4.507567,270.850677 1.376176,259.180908 
	C1.000000,246.312439 1.000000,233.624878 1.000001,220.468658 
	C2.973939,211.737518 4.877648,203.457489 6.937253,195.216415 
	C10.594724,180.581802 16.835630,166.951538 25.191837,154.555374 
	C33.471954,142.272095 42.048717,129.916626 52.245419,119.268707 
	C64.085304,106.904884 77.421455,95.851700 90.852783,85.165550 
	C107.028419,72.295967 125.070717,62.149658 143.541595,52.923344 
	C161.622421,43.891869 180.163895,35.885002 199.543198,29.961845 
	C212.193405,26.095400 224.669373,21.544703 237.488922,18.374260 
	C254.946426,14.056795 272.571289,10.267820 290.288177,7.197340 
	C303.003052,4.993751 315.978699,4.260113 328.852722,3.024232 
	C335.084778,2.425966 341.350708,2.180616 347.800659,1.387741 
	C372.354218,1.000000 396.708466,1.000000 421.531342,1.000001 
	C423.500641,1.330364 424.985809,1.811299 426.504364,1.967478 
	C439.700867,3.324713 452.937531,4.353389 466.094513,6.015748 
	C479.340515,7.689349 492.659027,9.294853 505.674500,12.161697 
	C522.879639,15.951363 539.942444,20.529652 556.836121,25.544746 
	C569.811035,29.396507 582.716248,33.782524 595.136597,39.129280 
	C611.602905,46.217781 627.778442,54.068230 643.672119,62.370071 
	C654.284424,67.913239 664.387817,74.515930 674.340942,81.206810 
	C681.305420,85.888611 688.055542,91.070961 694.151184,96.824661 
	C705.717285,107.742050 717.357056,118.691261 727.846252,130.612701 
	C741.955505,146.648407 752.953796,164.928513 759.802002,185.232529 
	C763.562622,196.382263 765.492310,208.149597 768.623779,219.819229 
	C769.000000,232.687561 769.000000,245.375122 769.000000,258.531342 
M730.014221,146.521866 
	C706.939331,114.589081 676.994141,90.486206 643.038757,71.223412 
	C575.357849,32.828224 501.709473,15.286753 424.719757,10.110023 
	C380.195038,7.116218 335.822357,9.031761 291.695984,15.928855 
	C239.215805,24.131674 188.755905,38.823666 141.432297,63.284031 
	C105.436989,81.889084 73.070953,105.261711 47.264530,136.957825 
	C-3.447732,199.243896 -4.488982,275.121490 44.572414,338.566895 
	C66.938606,367.490509 95.114273,389.629883 126.649864,407.589111 
	C190.613724,444.015930 260.183197,461.638611 332.965240,467.965576 
	C379.279144,471.991669 425.493469,470.695831 471.529572,464.064606 
	C526.283752,456.177704 578.928711,441.301788 628.245300,415.854065 
	C666.081909,396.330078 700.013428,371.722961 726.180298,337.560974 
	C745.728638,312.039795 758.454102,283.661163 760.995300,251.273468 
	C764.021606,212.703568 752.450012,178.357086 730.014221,146.521866 
z"/>
<path fill="#E20816" opacity="1.000000" stroke="none" 
	d="
M730.218384,146.815735 
	C752.450012,178.357086 764.021606,212.703568 760.995300,251.273468 
	C758.454102,283.661163 745.728638,312.039795 726.180298,337.560974 
	C700.013428,371.722961 666.081909,396.330078 628.245300,415.854065 
	C578.928711,441.301788 526.283752,456.177704 471.529572,464.064606 
	C425.493469,470.695831 379.279144,471.991669 332.965240,467.965576 
	C260.183197,461.638611 190.613724,444.015930 126.649864,407.589111 
	C95.114273,389.629883 66.938606,367.490509 44.572414,338.566895 
	C-4.488982,275.121490 -3.447732,199.243896 47.264530,136.957825 
	C73.070953,105.261711 105.436989,81.889084 141.432297,63.284031 
	C188.755905,38.823666 239.215805,24.131674 291.695984,15.928855 
	C335.822357,9.031761 380.195038,7.116218 424.719757,10.110023 
	C501.709473,15.286753 575.357849,32.828224 643.038757,71.223412 
	C676.994141,90.486206 706.939331,114.589081 730.218384,146.815735 
M199.910095,419.663177 
	C241.839798,434.660645 285.082977,443.764832 329.366333,447.761932 
	C386.777069,452.943909 443.868011,450.504425 500.433868,438.951080 
	C551.537598,428.513397 600.231140,411.604980 644.680725,383.804840 
	C675.832275,364.321716 703.071777,340.640961 722.204163,308.716797 
	C738.218567,281.995331 745.307312,253.239655 740.965149,222.115189 
	C737.003052,193.714813 724.237915,169.315460 706.078308,147.561325 
	C679.280090,115.458488 645.360046,92.841415 607.957581,75.141335 
	C550.777222,48.081650 490.102448,34.589382 427.300812,30.175377 
	C374.367493,26.454960 321.756989,29.369915 269.682129,40.016293 
	C220.582001,50.054504 173.691299,66.090988 130.536316,92.001701 
	C99.348801,110.727013 71.735657,133.499847 51.555805,164.242325 
	C30.592428,196.178436 22.382881,230.823349 31.206907,268.524597 
	C38.455601,299.495148 55.603222,324.831421 77.982605,346.799805 
	C112.523697,380.706512 154.190582,402.845795 199.910095,419.663177 
z"/>
<path fill="#FFFEFE" opacity="1.000000" stroke="none" 
	d="
M199.555756,419.495361 
	C154.190582,402.845795 112.523697,380.706512 77.982605,346.799805 
	C55.603222,324.831421 38.455601,299.495148 31.206907,268.524597 
	C22.382881,230.823349 30.592428,196.178436 51.555805,164.242325 
	C71.735657,133.499847 99.348801,110.727013 130.536316,92.001701 
	C173.691299,66.090988 220.582001,50.054504 269.682129,40.016293 
	C321.756989,29.369915 374.367493,26.454960 427.300812,30.175377 
	C490.102448,34.589382 550.777222,48.081650 607.957581,75.141335 
	C645.360046,92.841415 679.280090,115.458488 706.078308,147.561325 
	C724.237915,169.315460 737.003052,193.714813 740.965149,222.115189 
	C745.307312,253.239655 738.218567,281.995331 722.204163,308.716797 
	C703.071777,340.640961 675.832275,364.321716 644.680725,383.804840 
	C600.231140,411.604980 551.537598,428.513397 500.433868,438.951080 
	C443.868011,450.504425 386.777069,452.943909 329.366333,447.761932 
	C285.082977,443.764832 241.839798,434.660645 199.555756,419.495361 
M296.286957,285.771912 
	C294.284088,287.771667 292.367645,289.867615 290.264862,291.756104 
	C270.652985,309.369659 247.000977,312.447296 225.300278,300.257751 
	C218.500092,296.438019 217.998474,294.592834 222.003464,288.110077 
	C222.703598,286.976776 223.420227,285.853668 224.119705,284.719940 
	C241.437195,256.651764 257.710754,228.024307 270.394104,197.504044 
	C272.582520,192.237991 274.257690,186.758652 276.077026,181.639374 
	C265.441376,181.639374 255.470383,181.751999 245.504486,181.575882 
	C242.193314,181.517349 241.140457,183.107590 240.030518,185.900772 
	C232.726517,204.281342 225.637604,222.769638 217.569977,240.816650 
	C212.245453,252.727463 205.404434,263.960327 199.157501,275.655731 
	C196.070038,273.466919 193.842651,271.712158 191.449036,270.224915 
	C185.038788,266.241974 178.094376,264.160980 170.506378,265.303802 
	C153.002518,267.939972 131.806412,288.425354 128.345062,305.914154 
	C125.903091,318.252472 132.088028,328.060822 144.664200,328.994141 
	C152.899155,329.605316 162.019333,328.996338 169.540375,325.957428 
	C180.267212,321.623138 188.633286,322.548950 197.822021,329.266235 
	C205.220291,334.674591 214.050415,337.901947 223.628586,337.069641 
	C230.911163,336.436768 238.269440,335.925812 245.401672,334.438263 
	C281.573242,326.894104 310.041443,307.062378 332.412262,278.234131 
	C348.468414,257.543213 358.143372,234.263046 356.982788,207.562698 
	C355.580109,175.292542 341.690277,151.224213 310.506744,138.945206 
	C288.026154,130.093124 264.835632,128.716507 241.253082,132.508316 
	C219.861862,135.947784 200.114471,143.498779 183.489746,157.864868 
	C171.117645,168.556107 162.759323,181.720367 160.423782,198.136688 
	C157.888535,215.956726 174.350952,232.442139 190.997955,229.020889 
	C203.701004,226.410187 217.075974,210.584076 217.628189,198.391235 
	C211.633942,196.388580 205.515152,195.176514 200.249527,192.365997 
	C194.210876,189.142914 193.332520,183.417267 197.545868,177.967972 
	C200.240448,174.482971 203.630722,171.239090 207.342712,168.887146 
	C227.049255,156.401001 248.772003,151.530914 271.804474,154.354370 
	C298.115875,157.579758 315.160553,173.525345 319.842865,198.720688 
	C325.863983,231.119888 318.492401,260.153534 296.286957,285.771912 
M389.500031,326.089783 
	C366.502075,326.129272 343.504120,326.171173 320.506165,326.206360 
	C315.550140,326.213928 310.784119,326.911896 307.248138,330.812317 
	C303.558899,334.881805 300.013824,339.084351 296.475311,343.287323 
	C294.244354,345.937195 295.302765,347.532532 298.361542,348.119873 
	C299.649384,348.367126 301.008698,348.305267 302.334015,348.285400 
	C368.134766,347.299011 433.935791,346.329712 499.735779,345.293701 
	C530.885315,344.803314 562.044312,344.530670 593.177429,343.504456 
	C615.453308,342.770233 630.841309,319.982727 622.597778,299.269470 
	C613.686584,276.878723 603.887695,254.774963 593.161438,233.199539 
	C587.409851,221.630386 594.955872,215.617065 603.710083,215.013535 
	C612.466858,214.409821 616.129333,218.505554 614.527710,226.959854 
	C614.342041,227.939865 614.126587,228.924942 614.066528,229.916229 
	C613.780090,234.651474 613.393066,239.481888 618.873230,241.869324 
	C624.060059,244.128967 634.398499,242.893921 637.395386,239.737213 
	C646.116882,230.550659 642.535828,211.340240 631.103027,205.981934 
	C611.033447,196.575745 579.635010,206.469147 568.535767,225.703354 
	C563.988770,233.582901 563.334290,241.799179 566.904968,250.154922 
	C571.021240,259.787476 575.580322,269.232941 579.601562,278.903381 
	C583.491394,288.257538 587.398254,297.649719 590.455383,307.292206 
	C593.432312,316.682037 588.679260,323.453491 578.938171,324.774384 
	C574.494446,325.376923 569.968811,325.591187 565.479065,325.606598 
	C507.152863,325.806915 448.826447,325.939819 389.500031,326.089783 
M491.513336,150.988251 
	C488.684845,150.900696 485.573547,150.041626 483.108337,150.945221 
	C480.701843,151.827271 478.366760,154.183060 477.084442,156.493561 
	C475.803284,158.802002 474.199219,161.627365 477.260498,164.544830 
	C488.063629,174.840485 491.434448,188.001846 490.465973,202.366333 
	C488.790161,227.223099 478.381989,248.845093 464.571045,269.002991 
	C460.203735,275.377319 454.994659,281.174927 449.624634,287.922760 
	C447.350555,284.829712 444.871124,282.904938 444.433167,280.593384 
	C443.054596,273.317596 441.144196,265.777283 441.807312,258.556793 
	C443.142609,244.017487 445.924896,229.602295 448.341064,215.174545 
	C449.636353,207.440033 448.016907,204.692169 440.066284,204.100571 
	C434.108368,203.657257 428.089935,203.942856 422.100433,204.034790 
	C417.027618,204.112640 414.973938,206.268875 414.324219,212.035645 
	C413.790039,216.776855 416.407745,219.532059 420.707733,219.958069 
	C426.006439,220.483032 426.270081,223.327469 426.343933,227.747803 
	C426.599335,243.036240 426.999512,258.345459 428.143555,273.586823 
	C428.790405,282.204498 431.233521,290.650146 436.499420,297.852448 
	C440.752533,303.669556 446.383362,305.760254 453.583466,304.161377 
	C461.550964,302.392120 466.372711,296.595520 471.156128,290.896820 
	C503.153198,252.776886 517.936462,207.915161 522.311890,159.063766 
	C522.760376,154.056686 521.146362,152.565964 515.440125,152.188828 
	C507.798309,151.683716 500.142303,151.393875 491.513336,150.988251 
M517.163940,305.845215 
	C529.696655,302.710144 540.151672,296.298615 547.876465,285.862885 
	C548.983276,284.367615 548.904358,281.994690 549.374207,280.027924 
	C547.514343,280.018127 545.652893,279.955750 543.794861,280.009491 
	C539.996948,280.119446 536.200806,280.291931 532.403992,280.438660 
	C532.656494,276.281708 532.892761,272.123596 533.183899,267.969330 
	C533.216797,267.499817 533.575195,267.058289 533.755310,266.593140 
	C540.835388,248.306229 547.943909,230.030182 554.971008,211.722916 
	C557.181824,205.963058 555.372253,202.578552 549.298584,201.815704 
	C545.217041,201.303040 541.018250,201.798279 536.877502,201.666733 
	C528.451721,201.399063 528.494446,201.365509 525.543640,209.209000 
	C516.245544,233.924286 506.880219,258.614349 497.639374,283.350922 
	C496.544128,286.282776 495.729553,289.402557 495.355652,292.504028 
	C494.485657,299.720673 498.304474,304.974213 505.458649,306.048645 
	C509.000580,306.580536 512.704590,306.032898 517.163940,305.845215 
M370.094879,223.582077 
	C364.589203,238.756058 359.130646,253.947357 353.556244,269.096039 
	C351.094147,275.786896 347.702667,282.215698 345.968292,289.075775 
	C343.320404,299.548950 348.796753,306.191803 359.550476,305.897614 
	C375.607666,305.458313 388.070618,297.719879 397.816406,285.363342 
	C398.989502,283.875946 399.005127,281.475647 399.557281,279.498474 
	C397.511536,279.492432 395.464661,279.440857 393.420258,279.490265 
	C389.767670,279.578613 386.116547,279.727936 382.464813,279.851746 
	C382.653870,275.857758 382.826172,271.862823 383.054260,267.871063 
	C383.081177,267.400299 383.423157,266.950562 383.603577,266.485138 
	C390.639374,248.334076 397.689636,230.188599 404.699402,212.027512 
	C407.429016,204.955521 404.926910,201.180725 397.266479,200.902771 
	C392.940308,200.745804 388.565979,201.204575 384.284363,200.736374 
	C380.182678,200.287827 378.029419,201.868378 376.738892,205.513260 
	C374.684174,211.316696 372.498505,217.073761 370.094879,223.582077 
M421.354187,159.015427 
	C419.969177,157.543732 418.725555,154.999100 417.173584,154.794647 
	C411.779572,154.084030 406.270416,153.951828 400.824036,154.142242 
	C399.470062,154.189606 397.549438,156.026031 396.978027,157.470749 
	C393.808350,165.484680 391.045776,173.658417 387.996765,181.721817 
	C386.398193,185.949371 388.193054,187.244492 392.093384,186.990356 
	C397.904388,186.611725 403.727142,186.316940 409.510193,185.674088 
	C410.940887,185.515045 413.042023,184.449051 413.466431,183.296158 
	C416.325134,175.530746 418.815155,167.629623 421.354187,159.015427 
M537.252991,184.580170 
	C538.649231,185.387543 540.060120,186.907822 541.439270,186.879562 
	C547.583313,186.753647 553.734070,186.330612 559.844238,185.664368 
	C561.213135,185.515106 563.103210,184.226746 563.601074,182.996521 
	C566.278320,176.380737 568.847351,169.696487 570.947510,162.879929 
	C572.538086,157.717651 570.448853,154.759949 565.099854,154.199081 
	C560.814331,153.749710 556.420898,153.541656 552.159973,154.004959 
	C550.259155,154.211639 547.621704,155.948166 546.937683,157.643616 
	C543.467957,166.243561 540.529602,175.057907 537.252991,184.580170 
z"/>
<path fill="#E20715" opacity="1.000000" stroke="none" 
	d="
M296.527039,285.514160 
	C318.492401,260.153534 325.863983,231.119888 319.842865,198.720688 
	C315.160553,173.525345 298.115875,157.579758 271.804474,154.354370 
	C248.772003,151.530914 227.049255,156.401001 207.342712,168.887146 
	C203.630722,171.239090 200.240448,174.482971 197.545868,177.967972 
	C193.332520,183.417267 194.210876,189.142914 200.249527,192.365997 
	C205.515152,195.176514 211.633942,196.388580 217.628189,198.391235 
	C217.075974,210.584076 203.701004,226.410187 190.997955,229.020889 
	C174.350952,232.442139 157.888535,215.956726 160.423782,198.136688 
	C162.759323,181.720367 171.117645,168.556107 183.489746,157.864868 
	C200.114471,143.498779 219.861862,135.947784 241.253082,132.508316 
	C264.835632,128.716507 288.026154,130.093124 310.506744,138.945206 
	C341.690277,151.224213 355.580109,175.292542 356.982788,207.562698 
	C358.143372,234.263046 348.468414,257.543213 332.412262,278.234131 
	C310.041443,307.062378 281.573242,326.894104 245.401672,334.438263 
	C238.269440,335.925812 230.911163,336.436768 223.628586,337.069641 
	C214.050415,337.901947 205.220291,334.674591 197.822021,329.266235 
	C188.633286,322.548950 180.267212,321.623138 169.540375,325.957428 
	C162.019333,328.996338 152.899155,329.605316 144.664200,328.994141 
	C132.088028,328.060822 125.903091,318.252472 128.345062,305.914154 
	C131.806412,288.425354 153.002518,267.939972 170.506378,265.303802 
	C178.094376,264.160980 185.038788,266.241974 191.449036,270.224915 
	C193.842651,271.712158 196.070038,273.466919 199.157501,275.655731 
	C205.404434,263.960327 212.245453,252.727463 217.569977,240.816650 
	C225.637604,222.769638 232.726517,204.281342 240.030518,185.900772 
	C241.140457,183.107590 242.193314,181.517349 245.504486,181.575882 
	C255.470383,181.751999 265.441376,181.639374 276.077026,181.639374 
	C274.257690,186.758652 272.582520,192.237991 270.394104,197.504044 
	C257.710754,228.024307 241.437195,256.651764 224.119705,284.719940 
	C223.420227,285.853668 222.703598,286.976776 222.003464,288.110077 
	C217.998474,294.592834 218.500092,296.438019 225.300278,300.257751 
	C247.000977,312.447296 270.652985,309.369659 290.264862,291.756104 
	C292.367645,289.867615 294.284088,287.771667 296.527039,285.514160 
M169.560974,306.854248 
	C172.117523,301.063843 168.948685,291.695831 163.406296,288.659241 
	C158.409531,285.921600 152.836914,288.564819 152.976685,294.148071 
	C153.071945,297.953522 154.079483,302.123871 155.948578,305.408722 
	C158.951736,310.686584 163.862198,311.091614 169.560974,306.854248 
z"/>
<path fill="#E20816" opacity="1.000000" stroke="none" 
	d="
M390.000061,326.089752 
	C448.826447,325.939819 507.152863,325.806915 565.479065,325.606598 
	C569.968811,325.591187 574.494446,325.376923 578.938171,324.774384 
	C588.679260,323.453491 593.432312,316.682037 590.455383,307.292206 
	C587.398254,297.649719 583.491394,288.257538 579.601562,278.903381 
	C575.580322,269.232941 571.021240,259.787476 566.904968,250.154922 
	C563.334290,241.799179 563.988770,233.582901 568.535767,225.703354 
	C579.635010,206.469147 611.033447,196.575745 631.103027,205.981934 
	C642.535828,211.340240 646.116882,230.550659 637.395386,239.737213 
	C634.398499,242.893921 624.060059,244.128967 618.873230,241.869324 
	C613.393066,239.481888 613.780090,234.651474 614.066528,229.916229 
	C614.126587,228.924942 614.342041,227.939865 614.527710,226.959854 
	C616.129333,218.505554 612.466858,214.409821 603.710083,215.013535 
	C594.955872,215.617065 587.409851,221.630386 593.161438,233.199539 
	C603.887695,254.774963 613.686584,276.878723 622.597778,299.269470 
	C630.841309,319.982727 615.453308,342.770233 593.177429,343.504456 
	C562.044312,344.530670 530.885315,344.803314 499.735779,345.293701 
	C433.935791,346.329712 368.134766,347.299011 302.334015,348.285400 
	C301.008698,348.305267 299.649384,348.367126 298.361542,348.119873 
	C295.302765,347.532532 294.244354,345.937195 296.475311,343.287323 
	C300.013824,339.084351 303.558899,334.881805 307.248138,330.812317 
	C310.784119,326.911896 315.550140,326.213928 320.506165,326.206360 
	C343.504120,326.171173 366.502075,326.129272 390.000061,326.089752 
z"/>
<path fill="#E20916" opacity="1.000000" stroke="none" 
	d="
M492.002869,150.999924 
	C500.142303,151.393875 507.798309,151.683716 515.440125,152.188828 
	C521.146362,152.565964 522.760376,154.056686 522.311890,159.063766 
	C517.936462,207.915161 503.153198,252.776886 471.156128,290.896820 
	C466.372711,296.595520 461.550964,302.392120 453.583466,304.161377 
	C446.383362,305.760254 440.752533,303.669556 436.499420,297.852448 
	C431.233521,290.650146 428.790405,282.204498 428.143555,273.586823 
	C426.999512,258.345459 426.599335,243.036240 426.343933,227.747803 
	C426.270081,223.327469 426.006439,220.483032 420.707733,219.958069 
	C416.407745,219.532059 413.790039,216.776855 414.324219,212.035645 
	C414.973938,206.268875 417.027618,204.112640 422.100433,204.034790 
	C428.089935,203.942856 434.108368,203.657257 440.066284,204.100571 
	C448.016907,204.692169 449.636353,207.440033 448.341064,215.174545 
	C445.924896,229.602295 443.142609,244.017487 441.807312,258.556793 
	C441.144196,265.777283 443.054596,273.317596 444.433167,280.593384 
	C444.871124,282.904938 447.350555,284.829712 449.624634,287.922760 
	C454.994659,281.174927 460.203735,275.377319 464.571045,269.002991 
	C478.381989,248.845093 488.790161,227.223099 490.465973,202.366333 
	C491.434448,188.001846 488.063629,174.840485 477.260498,164.544830 
	C474.199219,161.627365 475.803284,158.802002 477.084442,156.493561 
	C478.366760,154.183060 480.701843,151.827271 483.108337,150.945221 
	C485.573547,150.041626 488.684845,150.900696 492.002869,150.999924 
z"/>
<path fill="#E20816" opacity="1.000000" stroke="none" 
	d="
M516.749634,305.909424 
	C512.704590,306.032898 509.000580,306.580536 505.458649,306.048645 
	C498.304474,304.974213 494.485657,299.720673 495.355652,292.504028 
	C495.729553,289.402557 496.544128,286.282776 497.639374,283.350922 
	C506.880219,258.614349 516.245544,233.924286 525.543640,209.209000 
	C528.494446,201.365509 528.451721,201.399063 536.877502,201.666733 
	C541.018250,201.798279 545.217041,201.303040 549.298584,201.815704 
	C555.372253,202.578552 557.181824,205.963058 554.971008,211.722916 
	C547.943909,230.030182 540.835388,248.306229 533.755310,266.593140 
	C533.575195,267.058289 533.216797,267.499817 533.183899,267.969330 
	C532.892761,272.123596 532.656494,276.281708 532.403931,280.438660 
	C536.200806,280.291931 539.996948,280.119446 543.794861,280.009491 
	C545.652893,279.955750 547.514343,280.018127 549.374207,280.027924 
	C548.904358,281.994690 548.983276,284.367615 547.876465,285.862885 
	C540.151672,296.298615 529.696655,302.710144 516.749634,305.909424 
z"/>
<path fill="#E20816" opacity="1.000000" stroke="none" 
	d="
M370.231537,223.216248 
	C372.498505,217.073761 374.684174,211.316696 376.738892,205.513260 
	C378.029419,201.868378 380.182678,200.287827 384.284363,200.736374 
	C388.565979,201.204575 392.940308,200.745804 397.266479,200.902771 
	C404.926910,201.180725 407.429016,204.955521 404.699402,212.027512 
	C397.689636,230.188599 390.639374,248.334076 383.603577,266.485138 
	C383.423157,266.950562 383.081177,267.400299 383.054260,267.871063 
	C382.826172,271.862823 382.653870,275.857758 382.464813,279.851746 
	C386.116547,279.727936 389.767670,279.578613 393.420258,279.490265 
	C395.464661,279.440857 397.511536,279.492432 399.557281,279.498474 
	C399.005127,281.475647 398.989502,283.875946 397.816406,285.363342 
	C388.070618,297.719879 375.607666,305.458313 359.550476,305.897614 
	C348.796753,306.191803 343.320404,299.548950 345.968292,289.075775 
	C347.702667,282.215698 351.094147,275.786896 353.556244,269.096039 
	C359.130646,253.947357 364.589203,238.756058 370.231537,223.216248 
z"/>
<path fill="#E20917" opacity="1.000000" stroke="none" 
	d="
M421.389404,159.393936 
	C418.815155,167.629623 416.325134,175.530746 413.466431,183.296158 
	C413.042023,184.449051 410.940887,185.515045 409.510193,185.674088 
	C403.727142,186.316940 397.904388,186.611725 392.093384,186.990356 
	C388.193054,187.244492 386.398193,185.949371 387.996765,181.721817 
	C391.045776,173.658417 393.808350,165.484680 396.978027,157.470749 
	C397.549438,156.026031 399.470062,154.189606 400.824036,154.142242 
	C406.270416,153.951828 411.779572,154.084030 417.173584,154.794647 
	C418.725555,154.999100 419.969177,157.543732 421.389404,159.393936 
z"/>
<path fill="#E20A17" opacity="1.000000" stroke="none" 
	d="
M537.328979,184.188644 
	C540.529602,175.057907 543.467957,166.243561 546.937683,157.643616 
	C547.621704,155.948166 550.259155,154.211639 552.159973,154.004959 
	C556.420898,153.541656 560.814331,153.749710 565.099854,154.199081 
	C570.448853,154.759949 572.538086,157.717651 570.947510,162.879929 
	C568.847351,169.696487 566.278320,176.380737 563.601074,182.996521 
	C563.103210,184.226746 561.213135,185.515106 559.844238,185.664368 
	C553.734070,186.330612 547.583313,186.753647 541.439270,186.879562 
	C540.060120,186.907822 538.649231,185.387543 537.328979,184.188644 
z"/>
<path fill="#FEF8F8" opacity="1.000000" stroke="none" 
	d="
M169.306641,307.154022 
	C163.862198,311.091614 158.951736,310.686584 155.948578,305.408722 
	C154.079483,302.123871 153.071945,297.953522 152.976685,294.148071 
	C152.836914,288.564819 158.409531,285.921600 163.406296,288.659241 
	C168.948685,291.695831 172.117523,301.063843 169.306641,307.154022 
z"/>
</svg>