<?xml version="1.0" encoding="UTF-8" standalone="no"?>
<svg
   xmlns:dc="http://purl.org/dc/elements/1.1/"
   xmlns:cc="http://creativecommons.org/ns#"
   xmlns:rdf="http://www.w3.org/1999/02/22-rdf-syntax-ns#"
   xmlns:svg="http://www.w3.org/2000/svg"
   xmlns="http://www.w3.org/2000/svg"
   viewBox="0 0 1515.52 1474.9067"
   height="1474.9067"
   width="1515.52"
   xml:space="preserve"
   id="svg2"
   version="1.1"><metadata
     id="metadata8"><rdf:RDF><cc:Work
         rdf:about=""><dc:format>image/svg+xml</dc:format><dc:type
           rdf:resource="http://purl.org/dc/dcmitype/StillImage" /></cc:Work></rdf:RDF></metadata><defs
     id="defs6" /><g
     transform="matrix(1.3333333,0,0,-1.3333333,0,1474.9067)"
     id="g10"><g
       transform="scale(0.1)"
       id="g12"><path
         id="path14"
         style="fill:#ffffff;fill-opacity:1;fill-rule:nonzero;stroke:none"
         d="M 0,11061.8 H 11366.4 V 0 H 0 v 11061.8" /><path
         id="path16"
         style="fill:#2b9043;fill-opacity:1;fill-rule:nonzero;stroke:none"
         d="M 10362,1004.4 H 1004.41 V 2868.54 H 10362 V 1004.4" /><g
         transform="scale(10)"
         id="g18"><text
           id="text22"
           style="font-variant:normal;font-weight:bold;font-size:136px;font-family:CenturyGothic;-inkscape-font-specification:CenturyGothic-Bold;writing-mode:lr-tb;fill:#ffffff;fill-opacity:1;fill-rule:nonzero;stroke:none"
           transform="matrix(1,0,0,-1,310.644,144.803)"><tspan
             id="tspan20"
             y="0"
             x="0 112.17775 189.02895 284.87506 356.27698 389.56802">GRASIM</tspan></text>
</g><path
         id="path24"
         style="fill:#ae1c22;fill-opacity:1;fill-rule:nonzero;stroke:none"
         d="m 2197.71,9878.57 h 79.05 c 220.13,0 341.35,-113.68 341.35,-320.1 0,-206.51 -121.22,-320.16 -341.35,-320.16 h -79.05 z m 87.03,182.13 H 2007.7 V 9056.25 h 277.04 c 320.37,0 527.38,197.1 527.38,502.22 0,305.03 -207.01,502.23 -527.38,502.23" /><path
         id="path26"
         style="fill:#ae1c22;fill-opacity:1;fill-rule:nonzero;stroke:none"
         d="m 3020.92,9056.25 h 191.44 V 10060.7 H 3020.92 V 9056.25" /><path
         id="path28"
         style="fill:#ae1c22;fill-opacity:1;fill-rule:nonzero;stroke:none"
         d="m 3394.5,9879.9 h 279.45 v -823.65 h 189.99 v 823.65 h 278.12 v 180.8 H 3394.5 v -180.8" /><path
         id="path30"
         style="fill:#ae1c22;fill-opacity:1;fill-rule:nonzero;stroke:none"
         d="m 4884.01,10060.7 -232.3,-401.18 -232.11,401.18 h -217.25 l 353.68,-606.34 v -398.11 h 191.4 v 399.49 l 349.18,604.96 h -212.6" /><path
         id="path32"
         style="fill:#ae1c22;fill-opacity:1;fill-rule:nonzero;stroke:none"
         d="m 6694.58,9487.84 h 173.18 c 102.5,0 154.57,-42.66 154.57,-126.77 0,-84.41 -49.74,-125.42 -152.01,-125.42 h -175.74 z m 157.23,393.35 c 86.25,0 128.18,-35.45 128.18,-108.26 0,-74.76 -35.66,-109.58 -112.23,-109.58 h -173.18 v 217.84 z m 244.74,-293.72 c 46.68,45.95 72.13,111.52 72.13,190.79 0,171.53 -121.25,282.44 -308.9,282.44 H 6504.54 V 9056.25 h 373.83 c 203.73,0 335.35,117.6 335.35,299.55 0,102.91 -40.86,182.39 -117.17,231.67" /><path
         id="path34"
         style="fill:#ae1c22;fill-opacity:1;fill-rule:nonzero;stroke:none"
         d="m 7421.18,9056.25 h 191.39 V 10060.7 H 7421.18 V 9056.25" /><path
         id="path36"
         style="fill:#ae1c22;fill-opacity:1;fill-rule:nonzero;stroke:none"
         d="m 8066.87,9879.9 h 125.41 c 110.31,0 163.92,-45.86 163.92,-140.12 0,-58.4 -16.99,-136.08 -163.92,-136.08 h -125.41 z m 483.39,-140.12 c 0,191.91 -141.72,320.92 -352.65,320.92 h -320.8 V 9056.25 h 190.06 v 368.05 h 120.29 l 227.85,-368.05 h 219.24 l -252.81,406.55 c 106.93,51.2 168.82,150.83 168.82,276.98" /><path
         id="path38"
         style="fill:#ae1c22;fill-opacity:1;fill-rule:nonzero;stroke:none"
         d="M 8966.42,10060.7 H 8776.24 V 9056.25 h 608.54 v 180.82 h -418.36 v 823.63" /><path
         id="path40"
         style="fill:#ae1c22;fill-opacity:1;fill-rule:nonzero;stroke:none"
         d="m 1342.32,9432.09 88.75,220.43 88.72,-220.43 z m -337.9,-375.84 h 186.7 l 82.68,207.24 h 314.65 l 84,-207.24 h 190.19 L 1433.53,10096.6 1004.42,9056.25" /><path
         id="path42"
         style="fill:#ae1c22;fill-opacity:1;fill-rule:nonzero;stroke:none"
         d="m 5365.77,9432.17 88.77,220.37 88.69,-220.37 z m -337.93,-375.92 h 186.76 l 82.64,207.42 h 314.64 l 83.95,-207.42 h 190.31 l -429.1,1040.45 -429.2,-1040.45" /><path
         id="path44"
         style="fill:#ae1c22;fill-opacity:1;fill-rule:nonzero;stroke:none"
         d="m 9841.63,9432.09 88.73,220.43 88.74,-220.43 z m -337.99,-375.84 h 186.68 l 82.72,207.24 h 314.66 l 84,-207.24 h 190.3 l -429.16,1040.35 -429.2,-1040.35" /><path
         id="path46"
         style="fill:#ae1c22;fill-opacity:1;fill-rule:nonzero;stroke:none"
         d="M 10362,5204.89 9097.99,4621.94 7710.47,6350.73 9260.78,8876.5 H 10362 V 5204.89" /><path
         id="path48"
         style="fill:#f25b28;fill-opacity:1;fill-rule:nonzero;stroke:none"
         d="M 10362,3046.9 V 5204.89 L 9097.99,4621.94 Z" /><path
         id="path50"
         style="fill:#f25b28;fill-opacity:1;fill-rule:nonzero;stroke:none"
         d="M 7710.47,6350.73 5683.24,8876.5 h 3577.54 z" /><path
         id="path52"
         style="fill:#fcd43f;fill-opacity:1;fill-rule:nonzero;stroke:none"
         d="M 7154,5443.86 7710.47,6350.73 5683.24,8876.5 V 5851.48 c 4.53,0.02 9.06,0.17 13.62,0.17 533.65,0 1032.48,-149.07 1457.14,-407.79" /><path
         id="path54"
         style="fill:#ae1c22;fill-opacity:1;fill-rule:nonzero;stroke:none"
         d="m 5696.86,5851.65 c -4.56,0 -9.09,-0.15 -13.62,-0.17 V 3046.9 L 7154,5443.86 c -424.66,258.72 -923.49,407.79 -1457.14,407.79" /><path
         id="path56"
         style="fill:#f25b28;fill-opacity:1;fill-rule:nonzero;stroke:none"
         d="M 8241.78,4227.01 9097.99,4621.94 7710.47,6350.73 7154,5443.86 c 472.54,-287.87 853.07,-711.6 1087.78,-1216.85" /><path
         id="path58"
         style="fill:#da1c23;fill-opacity:1;fill-rule:nonzero;stroke:none"
         d="M 7154,5443.86 5683.24,3046.9 8241.78,4227.01 C 8007.07,4732.26 7626.54,5155.99 7154,5443.86" /><path
         id="path60"
         style="fill:#fcd43f;fill-opacity:1;fill-rule:nonzero;stroke:none"
         d="M 9097.99,4621.94 8241.78,4227.01 C 8408.4,3868.27 8501.6,3468.5 8501.6,3046.9 H 10362 L 9097.99,4621.94" /><path
         id="path62"
         style="fill:#ae1c22;fill-opacity:1;fill-rule:nonzero;stroke:none"
         d="M 5683.24,3046.9 H 8501.6 c 0,421.6 -93.2,821.37 -259.82,1180.11 L 5683.24,3046.9" /><path
         id="path64"
         style="fill:#ae1c22;fill-opacity:1;fill-rule:nonzero;stroke:none"
         d="M 1004.46,5204.89 2268.5,4621.94 3656.03,6350.73 2105.7,8876.5 H 1004.46 V 5204.89" /><path
         id="path66"
         style="fill:#f25b28;fill-opacity:1;fill-rule:nonzero;stroke:none"
         d="M 1004.46,3046.9 V 5204.89 L 2268.5,4621.94 Z" /><path
         id="path68"
         style="fill:#f25b28;fill-opacity:1;fill-rule:nonzero;stroke:none"
         d="M 3656.03,6350.73 5683.24,8876.5 H 2105.7 Z" /><path
         id="path70"
         style="fill:#da1c23;fill-opacity:1;fill-rule:nonzero;stroke:none"
         d="M 4212.46,5443.86 3656.03,6350.73 5683.24,8876.5 V 5851.48 c -4.55,0.02 -9.06,0.17 -13.61,0.17 -533.65,0 -1032.48,-149.07 -1457.17,-407.79" /><path
         id="path72"
         style="fill:#f25b28;fill-opacity:1;fill-rule:nonzero;stroke:none"
         d="m 5669.63,5851.65 c 4.55,0 9.06,-0.15 13.61,-0.17 V 3046.9 L 4212.46,5443.86 c 424.69,258.72 923.52,407.79 1457.17,407.79" /><path
         id="path74"
         style="fill:#f25b28;fill-opacity:1;fill-rule:nonzero;stroke:none"
         d="m 3124.71,4227.01 -856.19,394.93 1387.51,1728.79 556.43,-906.87 C 3739.96,5155.99 3359.4,4732.26 3124.71,4227.01" /><path
         id="path76"
         style="fill:#da1c23;fill-opacity:1;fill-rule:nonzero;stroke:none"
         d="M 4212.46,5443.86 5683.24,3046.9 3124.71,4227.01 c 234.69,505.25 615.25,928.98 1087.75,1216.85" /><path
         id="path78"
         style="fill:#fcd43f;fill-opacity:1;fill-rule:nonzero;stroke:none"
         d="m 2268.52,4621.94 856.19,-394.93 C 2958.08,3868.27 2864.87,3468.5 2864.87,3046.9 H 1004.48 l 1264.04,1575.04" /><path
         id="path80"
         style="fill:#ae1c22;fill-opacity:1;fill-rule:nonzero;stroke:none"
         d="M 5683.24,3046.9 H 2864.87 c 0,421.6 93.21,821.37 259.84,1180.11 L 5683.24,3046.9" /></g></g></svg>