<svg version="1.2" xmlns="http://www.w3.org/2000/svg" viewBox="0 0 1512 602" width="1512" height="602">
	<title>hcltech-new-logo-svg</title>
	<style>
		.s0 { fill: #ffffff } 
	</style>
	<path id="Layer" class="s0" d="m458.6 6.7v588h-126.9v-246.1h-205.6v246.1h-126.1v-588h126.1v233.5h205.6v-233.5zm68.5 294c0-198.2 128.2-300.7 274.4-300.7 137.6 0 238.5 84 253.3 210.8h-122.7c-7.8-61.3-61.8-102.5-130.6-102.5-88.3 0-156.4 66.4-156.4 192.4 0 125.9 68.1 191.5 156.4 191.5 70.4 0 124.3-41.1 133.7-101.6h117.3c-10.1 126-111 210.8-250.9 210.8-148.6 0-274.5-102.5-274.5-300.7zm728 184.8v-478.8h-126.1v475.4c0 73.1 39.5 112.6 112.7 112.6h269.4v-109.2z"/>
</svg>