<svg xmlns="http://www.w3.org/2000/svg" xmlns:xlink="http://www.w3.org/1999/xlink" version="1.1" id="Layer_1" x="0px" y="0px" width="100%" viewBox="0 0 1481 1232" enable-background="new 0 0 1481 1232" xml:space="preserve"><script xmlns="" id="nimlmejbmnecnaghgmbahmbaddhjbecg"/><script xmlns=""/><script xmlns=""/>
<path fill="#9A383A" opacity="1.000000" stroke="none" d=" M612.000000,1233.000000   C571.312439,1233.000000 530.624878,1233.000000 489.547852,1232.607910   C487.380310,1231.598267 485.611298,1230.953003 483.822723,1230.367432   C475.522156,1227.649536 473.768951,1219.245361 475.428650,1209.421265   C477.530029,1196.982544 480.435425,1184.679932 482.973511,1172.314575   C487.754730,1149.020996 492.459137,1125.711426 497.310669,1102.432617   C502.462402,1077.713135 507.801422,1053.032715 512.960510,1028.314697   C518.555481,1001.508240 524.036255,974.677856 529.568726,947.858276   C534.372742,924.570251 539.194763,901.286011 543.980591,877.994263   C549.195251,852.615417 554.401184,827.234680 559.566467,801.845764   C564.078430,779.668396 568.523071,757.477295 573.008057,735.294373   C577.460571,713.271851 581.892151,691.244934 586.395386,669.232727   C591.226624,645.617310 596.168579,622.024597 600.991455,598.407532   C605.256775,577.520447 609.429626,556.614380 613.634583,535.714905   C618.098755,513.527100 622.528809,491.332336 627.017761,469.149475   C631.343994,447.770905 635.524902,426.359863 640.164673,405.049042   C642.711304,393.352142 650.170898,386.310242 660.663269,385.112122   C667.226196,384.362701 673.869263,384.226807 680.482666,384.024933   C694.088135,383.609558 707.698975,383.372009 721.305664,382.993530   C744.190002,382.356995 767.074280,381.709991 789.955994,380.987213   C809.008972,380.385376 828.055298,379.556854 847.110229,379.035187   C864.879822,378.548645 882.657288,378.356354 900.430481,377.992493   C912.995789,377.735291 916.528381,388.046906 914.445923,396.194031   C911.846680,406.363159 909.330322,416.558228 907.039856,426.800598   C901.278809,452.563324 895.654175,478.356537 889.997986,504.142609   C888.135620,512.633057 886.344543,521.139099 884.234985,530.970032   C886.489502,528.859314 887.734253,527.801086 888.856140,526.625671   C895.044189,520.142700 900.994080,513.416443 907.420044,507.180176   C916.814819,498.062775 926.388123,489.114777 936.170349,480.414917   C948.009460,469.885620 959.846191,459.315216 972.220581,449.434631   C993.093445,432.768280 1015.418213,418.177551 1039.209351,406.001038   C1067.425537,391.559723 1096.956909,380.516357 1128.045898,374.100067   C1140.726807,371.482971 1153.632690,369.941040 1166.452515,368.019409   C1171.601929,367.247528 1176.795410,366.769745 1182.433594,366.089355   C1194.613647,366.065277 1206.328613,366.109955 1218.314453,366.470245   C1223.517700,367.186890 1228.493774,367.301941 1233.375000,368.042053   C1248.452637,370.328339 1263.724487,371.902740 1278.501221,375.484985   C1308.285156,382.705353 1336.923584,393.231445 1363.793823,408.308380   C1393.886841,425.193573 1418.484131,448.092651 1437.629639,476.558533   C1453.633545,500.353394 1464.736572,526.629700 1470.864746,554.649841   C1474.816650,572.719299 1476.997681,591.174866 1480.072632,609.440552   C1480.230103,610.375366 1481.335815,611.150513 1482.000000,612.000000   C1482.000000,647.354248 1482.000000,682.708435 1481.580078,718.578735   C1480.773315,720.733521 1480.162231,722.355713 1480.039795,724.013916   C1479.577759,730.275208 1479.506470,736.572266 1478.859863,742.811462   C1477.742798,753.591736 1476.328247,764.341675 1474.995728,775.098999   C1473.622803,786.183838 1472.461304,797.303467 1470.732910,808.333557   C1468.399414,823.225769 1465.653687,838.054321 1463.009766,852.896790   C1459.934570,870.161194 1456.938843,887.442139 1453.609375,904.658081   C1450.623779,920.096497 1447.170654,935.443970 1444.034180,950.854004   C1439.004395,975.566467 1434.065796,1000.297546 1429.050171,1025.458252   C1428.955933,1027.944092 1428.900269,1029.992432 1428.516113,1032.208984   C1427.821289,1032.911987 1427.239380,1033.402710 1427.119751,1033.988037   C1423.381714,1052.274780 1419.669556,1070.566895 1415.993652,1088.866211   C1411.737061,1110.057495 1407.418579,1131.237061 1403.313354,1152.457764   C1399.735596,1170.951660 1396.513184,1189.514282 1392.946655,1208.010498   C1390.870117,1218.778687 1387.683228,1228.916870 1374.578003,1231.912476   C1286.055908,1231.986450 1197.999390,1231.993774 1109.942871,1231.993652   C1108.947388,1231.993652 1107.951904,1231.896973 1106.731689,1231.542847   C1100.226074,1231.127563 1095.739868,1227.873047 1092.088135,1222.575195   C1092.066284,1215.728882 1092.111938,1209.347778 1092.545166,1202.930664   C1093.197632,1202.721069 1093.654663,1202.587891 1093.700684,1202.368530   C1097.802124,1182.787476 1101.957153,1163.216797 1105.924805,1143.608398   C1112.723389,1110.008057 1119.283203,1076.359009 1126.164429,1042.775757   C1134.293945,1003.098755 1142.825562,963.503784 1150.872559,923.810364   C1158.498535,886.194275 1166.032593,848.553894 1172.991577,810.810730   C1176.383057,792.416565 1178.947144,773.821289 1180.802612,755.209045   C1182.132812,741.866211 1181.750122,728.345581 1181.979980,714.901672   C1182.312744,695.422913 1179.304321,676.478333 1171.944580,658.387390   C1163.459839,637.530701 1149.244385,621.554749 1129.022827,611.668457   C1106.685425,600.747620 1082.693237,599.147461 1058.430908,602.181885   C1040.668579,604.403320 1023.284546,608.500854 1006.432190,614.917236   C982.357544,624.083435 961.199768,637.771545 942.444275,655.176453   C927.000244,669.508423 913.691895,685.789429 903.135864,704.020203   C893.984680,719.824646 884.881531,735.794128 877.530334,752.472229   C865.593262,779.554749 856.942444,807.868225 850.631409,836.819824   C845.567749,860.049622 840.856934,883.356201 835.931824,906.616455   C829.477905,937.096924 822.942505,967.560242 816.496521,998.042358   C814.599121,1007.015076 812.886353,1016.026794 811.050415,1025.422363   C810.956116,1026.896362 810.900330,1027.968628 810.512451,1029.213013   C809.795898,1030.085205 809.213501,1030.743774 809.056091,1031.491577   C806.125122,1045.421387 803.244385,1059.361450 800.353821,1073.299683   C795.899780,1094.776978 791.383118,1116.241577 787.009277,1137.735107   C781.917114,1162.758301 777.167480,1187.853882 771.815491,1212.820679   C769.839417,1222.038818 764.440918,1228.916138 754.510498,1231.111328   C753.897827,1231.246826 753.498535,1232.348145 753.000000,1233.000000   C710.645752,1233.000000 668.291565,1233.000000 625.521606,1232.572021   C620.917969,1231.872070 616.730835,1231.581665 612.539001,1231.399780   C612.382751,1231.393066 612.180664,1232.442627 612.000000,1233.000000  z"/>
<path fill="#9A383B" opacity="1.000000" stroke="none" d=" M209.999969,1233.000000   C173.645767,1233.000000 137.291550,1233.000000 100.520737,1232.569824   C99.602730,1231.782104 99.103394,1231.115845 98.599594,1231.112427   C87.404427,1231.036743 76.208466,1231.000000 65.013985,1231.102905   C64.336899,1231.109009 63.671059,1232.339233 62.999992,1233.000000   C46.645771,1233.000000 30.291544,1233.000000 13.568995,1232.632568   C10.616446,1230.720459 7.908361,1229.344971 5.490199,1227.573730   C3.789312,1226.327759 2.482714,1224.543701 1.000017,1223.000000   C1.000000,1215.645752 1.000000,1208.291504 1.397733,1200.431152   C2.865029,1195.926270 4.102192,1191.963745 4.976524,1187.922852   C10.036846,1164.535400 15.031011,1141.133545 20.008970,1117.728394   C23.725597,1100.253662 27.341211,1082.757324 31.081905,1065.287842   C33.962009,1051.837524 36.966702,1038.413696 39.952736,1024.533936   C40.044621,1021.712280 40.099758,1019.334656 40.484013,1016.790405   C41.200928,1015.923279 41.786419,1015.264954 41.946293,1014.515808   C43.827522,1005.700256 45.628349,996.867676 47.482533,988.046265   C52.306213,965.097473 57.227619,942.168945 61.957294,919.200806   C67.150772,893.980469 72.084488,868.706482 77.296852,843.490173   C82.076546,820.366943 87.132500,797.301025 91.963570,774.188293   C96.593575,752.037537 101.105164,729.861877 105.642387,707.691772   C109.785706,687.446594 113.837196,667.182556 118.032394,646.948242   C122.592735,624.952820 127.296799,602.987122 131.892532,580.999023   C136.288269,559.967712 140.629196,538.924927 144.987198,517.885803   C150.508713,491.229614 156.035202,464.574402 161.536743,437.914093   C165.712799,417.676971 169.845673,397.430939 174.011490,377.191711   C178.475021,355.506226 182.921829,333.817200 187.436218,312.142273   C192.251007,289.025055 197.206924,265.937073 201.971268,242.809525   C206.901581,218.876236 211.633377,194.902069 216.530502,170.961853   C221.296005,147.665100 226.152710,124.386963 230.984543,101.103798   C235.981903,77.022888 240.642029,52.864120 246.146118,28.899366   C249.170609,15.730748 256.953552,6.120755 270.981445,2.933497   C271.760498,2.756490 272.331909,1.665544 273.000000,0.999997   C289.354218,1.000000 305.708466,1.000000 322.479248,1.430248   C324.732574,2.240328 326.568848,2.949384 328.406067,2.951840   C374.282227,3.013179 420.158508,3.000007 466.034760,2.999992   C475.342987,2.999989 484.652679,3.080583 493.957825,2.910748   C495.316406,2.885951 496.653137,1.666609 498.000000,1.000000   C511.020905,1.000000 524.041809,1.000000 537.459106,1.400832   C538.516296,2.193879 539.143066,2.848091 539.842834,2.938711   C549.251099,4.157022 553.886780,8.364401 552.795410,17.466690   C551.041077,32.097511 548.211731,46.617886 545.388916,61.097641   C541.467590,81.212639 537.126404,101.245697 532.976074,121.316132   C528.194641,144.438721 523.466248,167.572372 518.639404,190.685455   C513.813354,213.794922 508.816284,236.868851 504.036804,259.987823   C498.824860,285.198730 493.849152,310.458435 488.636169,335.669098   C483.855682,358.787964 478.831635,381.856415 474.033020,404.971619   C468.767395,430.336334 463.654297,455.732727 458.442322,481.108643   C453.988831,502.791382 449.456818,524.457947 445.019623,546.144043   C440.451080,568.472229 435.984467,590.821350 431.419098,613.150269   C426.985016,634.836975 422.445099,656.502075 418.019440,678.190491   C413.134735,702.128662 408.367889,726.090759 403.473907,750.027039   C399.039978,771.713257 394.471863,793.372070 390.022400,815.055115   C385.770813,835.774109 381.596039,856.508728 377.387146,877.236511   C372.264160,902.465820 367.103973,927.687622 362.027771,952.926392   C356.563110,980.096436 351.271271,1007.301575 345.731628,1034.456177   C339.603516,1064.495239 333.243378,1094.486816 327.052338,1124.513184   C321.324310,1152.293701 315.914520,1180.142334 309.898071,1207.859741   C307.427490,1219.241699 301.392853,1228.228394 289.020905,1231.181763   C288.562103,1231.291260 288.335083,1232.371948 288.000000,1233.000000   C269.645782,1233.000000 251.291550,1233.000000 232.520752,1232.569824   C224.923492,1231.865601 217.743073,1231.579956 210.560120,1231.389160   C210.387787,1231.384399 210.187317,1232.439331 209.999969,1233.000000  z"/>

<path fill="#FFFFFF" opacity="1.000000" stroke="none" d=" M1182.433594,366.089355   C1156.828613,366.105438 1131.688477,366.030731 1106.548340,366.006012   C1079.583740,365.979492 1052.619263,366.000000 1025.000000,366.000000   C1025.000000,244.554123 1025.000000,123.245720 1025.000000,1.468657   C1177.252197,1.000000 1329.504517,1.000000 1482.000000,1.000000   C1482.000000,122.354118 1482.000000,243.708405 1481.531372,365.531342   C1395.216064,366.000000 1309.369385,365.999023 1223.522705,366.006439   C1221.696411,366.006592 1219.869995,366.103058 1218.043701,366.154602   C1206.328613,366.109955 1194.613647,366.065277 1182.433594,366.089355  z"/>

<path fill="#FFFFFF" opacity="1.000000" stroke="none" d=" M1428.844604,1032.040894   C1428.900269,1029.992432 1428.955933,1027.944092 1429.509766,1025.448608   C1447.338501,1025.001099 1464.669189,1025.000610 1482.000000,1025.000000   C1482.000000,1094.299072 1482.000000,1163.598145 1482.000000,1233.000000   C1258.644653,1233.000000 1035.289307,1233.000000 811.466980,1232.531372   C811.000000,1173.697021 811.006775,1115.331177 810.992981,1056.965454   C810.990784,1047.657227 810.896362,1038.349121 810.844604,1029.040894   C810.900330,1027.968628 810.956116,1026.896362 811.509888,1025.412842   C905.262939,1025.001587 998.517944,1025.001587 1092.000000,1025.001587   C1092.000000,1027.207031 1092.000000,1028.850586 1092.000000,1030.494141   C1092.000000,1065.824219 1091.981201,1101.154297 1092.006592,1136.484375   C1092.022461,1158.645142 1092.104858,1180.805908 1092.157471,1202.966675   C1092.111938,1209.347778 1092.066284,1215.728882 1092.015869,1223.028809   C1092.011108,1226.509888 1092.011108,1229.072021 1092.011108,1231.845337   C1097.245483,1231.845337 1102.100952,1231.845337 1106.956421,1231.845337   C1107.951904,1231.896973 1108.947388,1231.993652 1109.942871,1231.993652   C1197.999390,1231.993774 1286.055908,1231.986450 1375.040771,1231.984253   C1393.568359,1231.988892 1411.167480,1231.988892 1429.000000,1231.988892   C1429.000000,1229.642334 1429.000000,1227.831665 1429.000000,1226.020996   C1429.000000,1177.189819 1429.012329,1128.358765 1428.992798,1079.527588   C1428.986450,1063.698730 1428.896362,1047.869751 1428.844604,1032.040894  z"/>
<path fill="#FFFFFF" opacity="1.000000" stroke="none" d=" M39.538746,1.000000   C40.003548,339.349396 40.007095,677.698792 40.082771,1016.502625   C40.099758,1019.334656 40.044621,1021.712280 39.492821,1024.544067   C26.330770,1024.998779 13.665385,1024.999390 1.000000,1025.000000   C1.000000,683.802368 0.999999,342.604767 1.003807,1.407166   C1.003808,1.271443 1.061757,1.135722 1.092636,1.000000   C13.754254,1.000000 26.415873,1.000000 39.538746,1.000000  z"/>












</svg>
