<svg version="1.1" id="Layer_1" xmlns="http://www.w3.org/2000/svg" xmlns:xlink="http://www.w3.org/1999/xlink" x="0px" y="0px"
	 width="100%" viewBox="0 0 1480 1273" enable-background="new 0 0 1480 1273" xml:space="preserve">
<path fill="#003874" opacity="1.000000" stroke="none" 
	d="
M1481.000000,597.000000 
	C1481.000000,623.687561 1481.000000,650.375122 1480.584106,677.547119 
	C1479.786011,678.877441 1479.163208,679.694214 1479.057007,680.573364 
	C1476.997559,697.612671 1476.100220,714.880859 1472.727173,731.652100 
	C1467.754150,756.379150 1461.890381,781.007507 1454.769409,805.196106 
	C1449.226807,824.022766 1442.067505,842.508911 1434.030151,860.430359 
	C1424.554199,881.559753 1413.958374,902.249390 1402.753906,922.524963 
	C1389.062622,947.300659 1373.106812,970.696106 1355.113281,992.598206 
	C1342.937866,1007.418457 1331.118774,1022.647156 1317.770508,1036.359741 
	C1299.831421,1054.788330 1280.972900,1072.382568 1261.743896,1089.473999 
	C1247.933350,1101.749512 1233.151245,1112.993530 1218.306152,1124.030273 
	C1190.381836,1144.790894 1160.996094,1163.407837 1130.037231,1179.249390 
	C1106.457031,1191.315430 1082.307251,1202.356201 1057.977783,1212.848389 
	C1026.049561,1226.617310 993.061646,1237.624512 959.301758,1245.938110 
	C933.679626,1252.247803 907.809570,1257.623535 881.912415,1262.716064 
	C867.523560,1265.545532 852.888977,1267.265869 838.298889,1268.890747 
	C825.158630,1270.354248 811.924805,1270.969360 798.743591,1272.092041 
	C797.781860,1272.173828 796.912415,1273.338745 796.000000,1274.000000 
	C759.645752,1274.000000 723.291565,1274.000000 686.451660,1273.582520 
	C680.500305,1272.451904 675.043152,1271.662354 669.567078,1271.039551 
	C651.689697,1269.006226 633.693726,1267.727661 615.951172,1264.868530 
	C591.700073,1260.960449 567.523132,1256.401367 543.526733,1251.150879 
	C512.003235,1244.253418 481.216766,1234.634399 450.940125,1223.456543 
	C416.095001,1210.591919 382.046448,1195.898804 349.592499,1177.767334 
	C331.687439,1167.763916 313.748566,1157.719116 296.566406,1146.552002 
	C279.120911,1135.213745 262.118134,1123.067261 245.779892,1110.185913 
	C227.609360,1095.859985 210.041122,1080.708496 192.912201,1065.144409 
	C181.243652,1054.541992 170.629547,1042.754517 159.825912,1031.232666 
	C151.558701,1022.415894 143.131134,1013.642395 135.837891,1004.042114 
	C121.352745,984.975037 107.096420,965.692322 93.677345,945.867981 
	C77.972321,922.666504 64.852730,897.936523 53.108097,872.464539 
	C37.405403,838.408325 24.844805,803.273743 16.494722,766.722412 
	C12.750637,750.333191 9.727334,733.752808 7.091638,717.145752 
	C5.127514,704.770142 4.348860,692.208008 2.911992,679.743958 
	C2.799574,678.768799 1.661427,677.911865 1.000001,677.000000 
	C1.000000,650.979126 1.000000,624.958191 1.415879,598.452820 
	C2.214095,597.122437 2.846526,596.303284 2.940467,595.426514 
	C3.996337,585.571655 4.546967,575.642639 6.058430,565.861084 
	C8.677459,548.911865 11.327819,531.933594 14.950268,515.180481 
	C22.203449,481.636017 32.405766,448.922089 46.788372,417.739075 
	C57.322147,394.900757 67.993523,371.969635 80.785919,350.372498 
	C94.067696,327.949188 109.218712,306.508636 124.961174,285.704407 
	C138.914780,267.264282 154.272568,249.796555 170.005829,232.822144 
	C182.291397,219.567352 195.887833,207.489502 209.304260,195.332886 
	C220.335526,185.337494 231.468628,175.331024 243.427704,166.510544 
	C264.044067,151.304855 284.838409,136.225800 306.489624,122.570663 
	C327.331238,109.426117 349.077637,97.624191 370.948120,86.233925 
	C386.636475,78.063316 403.084412,71.309921 419.368622,64.333145 
	C454.410065,49.320049 490.578339,37.572250 527.448486,27.977354 
	C557.514160,20.153225 587.874023,13.664925 618.737793,9.962674 
	C641.200989,7.268117 663.753296,5.319948 686.254272,2.929400 
	C687.556458,2.791051 688.753845,1.665920 690.000000,1.000012 
	C723.687561,1.000000 757.375122,1.000000 791.548584,1.417866 
	C797.836121,2.548780 803.632996,3.302805 809.440186,3.967482 
	C829.945984,6.314529 850.558838,7.965890 870.935486,11.137941 
	C893.255737,14.612559 915.460022,19.019262 937.532959,23.850674 
	C969.563782,30.861692 1000.800720,40.724339 1031.572998,52.025566 
	C1062.850098,63.512215 1093.266357,76.903885 1122.850342,92.296379 
	C1153.464722,108.225060 1182.728882,126.256622 1211.024658,145.965271 
	C1238.516846,165.114258 1264.144897,186.544128 1288.633789,209.319199 
	C1299.458984,219.386841 1309.692505,230.158463 1319.534546,241.199112 
	C1333.184692,256.511627 1346.716187,271.982422 1359.396729,288.095123 
	C1381.968384,316.775574 1401.262329,347.653534 1417.999146,380.087097 
	C1435.821289,414.623718 1450.417114,450.512909 1460.347656,488.090881 
	C1465.822388,508.807098 1470.038330,529.898071 1473.860962,550.994141 
	C1476.445801,565.260071 1477.324463,579.833191 1479.086792,594.254150 
	C1479.206421,595.232788 1480.338745,596.087585 1481.000000,597.000000 
M823.675842,731.645447 
	C823.646240,718.529419 823.616638,705.413391 823.895874,691.623901 
	C842.465881,667.043762 860.694519,642.195984 879.696472,617.954468 
	C901.132629,590.607544 924.890137,565.401367 952.692749,544.318054 
	C999.051025,509.163544 1050.410034,490.985840 1109.144531,500.104797 
	C1153.845581,507.044922 1191.298706,527.138489 1219.099854,563.700378 
	C1220.337769,565.328430 1223.068604,566.678955 1225.118774,566.699768 
	C1246.447144,566.916077 1267.778564,566.838196 1289.109131,566.819153 
	C1290.333984,566.818054 1291.558594,566.618774 1292.962280,566.496033 
	C1283.925293,520.270874 1268.353394,476.960968 1243.964600,437.040497 
	C1223.693115,403.858917 1198.664795,374.883301 1166.782349,352.266724 
	C1133.151611,328.410034 1095.838501,313.839630 1054.897217,308.649750 
	C1022.381165,304.527924 990.085938,305.776855 958.046387,312.733765 
	C915.389526,321.996094 877.642090,341.299591 843.956238,368.818024 
	C837.002380,374.498749 830.187439,380.349609 823.228821,385.172272 
	C823.228821,306.660767 823.228821,228.149246 823.228821,149.004990 
	C765.258362,168.163605 708.281616,186.993820 651.191711,205.861420 
	C651.191711,207.320969 651.192261,208.459747 651.191650,209.598526 
	C651.164001,260.905365 651.147156,312.212189 651.101257,363.519012 
	C651.088867,377.342987 650.988342,391.166901 650.316101,404.735413 
	C628.888000,381.161682 604.608887,361.016602 577.417175,344.427307 
	C519.765259,309.254700 458.163666,295.510376 391.268433,309.995605 
	C347.520264,319.468628 310.120972,340.305573 279.022827,372.332581 
	C243.353577,409.067322 221.180420,453.546417 207.315689,502.203247 
	C188.991241,566.510986 184.567307,631.884399 195.945633,698.006348 
	C205.610580,754.171509 225.001160,806.558411 257.728577,853.568054 
	C279.201721,884.411987 305.425079,910.416199 337.518402,930.230286 
	C372.497894,951.826233 410.681305,963.318604 451.585480,966.243225 
	C509.622559,970.392883 563.431213,957.584167 612.238037,925.632446 
	C625.575378,916.901184 637.966187,906.724060 650.851379,898.118225 
	C650.851379,977.139282 650.851379,1056.160278 650.851379,1135.952637 
	C709.148804,1116.417114 766.515198,1097.193604 823.954346,1077.945801 
	C823.954346,1075.903564 823.955383,1074.246582 823.954224,1072.589600 
	C823.898682,992.608154 823.841431,912.626709 823.795715,832.645264 
	C823.794495,830.482422 823.918884,828.319458 824.544678,826.507080 
	C825.094910,827.339539 825.644897,828.172241 826.195435,829.004517 
	C853.957458,870.967712 886.890747,907.868896 929.809021,935.029297 
	C955.015625,950.981079 982.139038,962.054871 1011.699280,966.483093 
	C1035.560303,970.057495 1059.443604,969.608154 1083.378906,966.127136 
	C1115.541382,961.449585 1145.304688,950.471863 1172.515015,932.938049 
	C1211.689209,907.695129 1239.303345,872.267029 1259.953979,831.062012 
	C1275.417847,800.206421 1285.595093,767.546875 1291.954346,733.676514 
	C1293.906616,723.278503 1295.555664,712.823547 1297.440063,701.831360 
	C1295.060425,701.831360 1293.433228,701.831360 1291.806030,701.831360 
	C1271.310303,701.831360 1250.813477,701.933838 1230.319580,701.738953 
	C1226.531982,701.703003 1224.417969,702.730896 1222.507812,706.144714 
	C1203.834595,739.517700 1174.951782,761.306946 1140.833984,776.750916 
	C1115.787354,788.088745 1089.302612,794.524109 1062.025635,797.652588 
	C1024.369263,801.971558 987.254700,799.575012 950.802795,788.642273 
	C906.063110,775.223877 865.084717,753.330811 823.675842,731.645447 
z"/>
<path fill="#000000" opacity="1.000000" stroke="none" 
	d="
M689.531372,1.000012 
	C688.753845,1.665920 687.556458,2.791051 686.254272,2.929400 
	C663.753296,5.319948 641.200989,7.268117 618.737793,9.962674 
	C587.874023,13.664925 557.514160,20.153225 527.448486,27.977354 
	C490.578339,37.572250 454.410065,49.320049 419.368622,64.333145 
	C403.084412,71.309921 386.636475,78.063316 370.948120,86.233925 
	C349.077637,97.624191 327.331238,109.426117 306.489624,122.570663 
	C284.838409,136.225800 264.044067,151.304855 243.427704,166.510544 
	C231.468628,175.331024 220.335526,185.337494 209.304260,195.332886 
	C195.887833,207.489502 182.291397,219.567352 170.005829,232.822144 
	C154.272568,249.796555 138.914780,267.264282 124.961174,285.704407 
	C109.218712,306.508636 94.067696,327.949188 80.785919,350.372498 
	C67.993523,371.969635 57.322147,394.900757 46.788372,417.739075 
	C32.405766,448.922089 22.203449,481.636017 14.950268,515.180481 
	C11.327819,531.933594 8.677459,548.911865 6.058430,565.861084 
	C4.546967,575.642639 3.996337,585.571655 2.940467,595.426514 
	C2.846526,596.303284 2.214095,597.122437 1.415879,597.984131 
	C1.000000,399.067688 1.000000,200.135391 1.000000,1.000000 
	C230.354187,1.000000 459.708435,1.000000 689.531372,1.000012 
z"/>
<path fill="#000000" opacity="1.000000" stroke="none" 
	d="
M1481.000000,596.531311 
	C1480.338745,596.087585 1479.206421,595.232788 1479.086792,594.254150 
	C1477.324463,579.833191 1476.445801,565.260071 1473.860962,550.994141 
	C1470.038330,529.898071 1465.822388,508.807098 1460.347656,488.090881 
	C1450.417114,450.512909 1435.821289,414.623718 1417.999146,380.087097 
	C1401.262329,347.653534 1381.968384,316.775574 1359.396729,288.095123 
	C1346.716187,271.982422 1333.184692,256.511627 1319.534546,241.199112 
	C1309.692505,230.158463 1299.458984,219.386841 1288.633789,209.319199 
	C1264.144897,186.544128 1238.516846,165.114258 1211.024658,145.965271 
	C1182.728882,126.256622 1153.464722,108.225060 1122.850342,92.296379 
	C1093.266357,76.903885 1062.850098,63.512215 1031.572998,52.025566 
	C1000.800720,40.724339 969.563782,30.861692 937.532959,23.850674 
	C915.460022,19.019262 893.255737,14.612559 870.935486,11.137941 
	C850.558838,7.965890 829.945984,6.314529 809.440186,3.967482 
	C803.632996,3.302805 797.836121,2.548780 792.017212,1.417866 
	C1021.588501,1.000000 1251.177002,1.000000 1481.000000,1.000000 
	C1481.000000,199.354172 1481.000000,397.708435 1481.000000,596.531311 
z"/>
<path fill="#000000" opacity="1.000000" stroke="none" 
	d="
M1.000001,677.468628 
	C1.661427,677.911865 2.799574,678.768799 2.911992,679.743958 
	C4.348860,692.208008 5.127514,704.770142 7.091638,717.145752 
	C9.727334,733.752808 12.750637,750.333191 16.494722,766.722412 
	C24.844805,803.273743 37.405403,838.408325 53.108097,872.464539 
	C64.852730,897.936523 77.972321,922.666504 93.677345,945.867981 
	C107.096420,965.692322 121.352745,984.975037 135.837891,1004.042114 
	C143.131134,1013.642395 151.558701,1022.415894 159.825912,1031.232666 
	C170.629547,1042.754517 181.243652,1054.541992 192.912201,1065.144409 
	C210.041122,1080.708496 227.609360,1095.859985 245.779892,1110.185913 
	C262.118134,1123.067261 279.120911,1135.213745 296.566406,1146.552002 
	C313.748566,1157.719116 331.687439,1167.763916 349.592499,1177.767334 
	C382.046448,1195.898804 416.095001,1210.591919 450.940125,1223.456543 
	C481.216766,1234.634399 512.003235,1244.253418 543.526733,1251.150879 
	C567.523132,1256.401367 591.700073,1260.960449 615.951172,1264.868530 
	C633.693726,1267.727661 651.689697,1269.006226 669.567078,1271.039551 
	C675.043152,1271.662354 680.500305,1272.451904 685.983032,1273.582520 
	C457.744568,1274.000000 229.489136,1274.000000 1.000000,1274.000000 
	C1.000000,1075.312500 1.000000,876.624939 1.000001,677.468628 
z"/>
<path fill="#000000" opacity="1.000000" stroke="none" 
	d="
M796.468628,1274.000000 
	C796.912415,1273.338745 797.781860,1272.173828 798.743591,1272.092041 
	C811.924805,1270.969360 825.158630,1270.354248 838.298889,1268.890747 
	C852.888977,1267.265869 867.523560,1265.545532 881.912415,1262.716064 
	C907.809570,1257.623535 933.679626,1252.247803 959.301758,1245.938110 
	C993.061646,1237.624512 1026.049561,1226.617310 1057.977783,1212.848389 
	C1082.307251,1202.356201 1106.457031,1191.315430 1130.037231,1179.249390 
	C1160.996094,1163.407837 1190.381836,1144.790894 1218.306152,1124.030273 
	C1233.151245,1112.993530 1247.933350,1101.749512 1261.743896,1089.473999 
	C1280.972900,1072.382568 1299.831421,1054.788330 1317.770508,1036.359741 
	C1331.118774,1022.647156 1342.937866,1007.418457 1355.113281,992.598206 
	C1373.106812,970.696106 1389.062622,947.300659 1402.753906,922.524963 
	C1413.958374,902.249390 1424.554199,881.559753 1434.030151,860.430359 
	C1442.067505,842.508911 1449.226807,824.022766 1454.769409,805.196106 
	C1461.890381,781.007507 1467.754150,756.379150 1472.727173,731.652100 
	C1476.100220,714.880859 1476.997559,697.612671 1479.057007,680.573364 
	C1479.163208,679.694214 1479.786011,678.877441 1480.584106,678.015808 
	C1481.000000,876.598816 1481.000000,1075.197632 1481.000000,1274.000000 
	C1252.979126,1274.000000 1024.958252,1274.000000 796.468628,1274.000000 
z"/>
<path fill="#FFFFFF" opacity="1.000000" stroke="none" 
	d="
M823.308472,386.122070 
	C830.187439,380.349609 837.002380,374.498749 843.956238,368.818024 
	C877.642090,341.299591 915.389526,321.996094 958.046387,312.733765 
	C990.085938,305.776855 1022.381165,304.527924 1054.897217,308.649750 
	C1095.838501,313.839630 1133.151611,328.410034 1166.782349,352.266724 
	C1198.664795,374.883301 1223.693115,403.858917 1243.964600,437.040497 
	C1268.353394,476.960968 1283.925293,520.270874 1292.962280,566.496033 
	C1291.558594,566.618774 1290.333984,566.818054 1289.109131,566.819153 
	C1267.778564,566.838196 1246.447144,566.916077 1225.118774,566.699768 
	C1223.068604,566.678955 1220.337769,565.328430 1219.099854,563.700378 
	C1191.298706,527.138489 1153.845581,507.044922 1109.144531,500.104797 
	C1050.410034,490.985840 999.051025,509.163544 952.692749,544.318054 
	C924.890137,565.401367 901.132629,590.607544 879.696472,617.954468 
	C860.694519,642.195984 842.465881,667.043762 823.521606,692.162109 
	C815.831543,702.590576 808.488525,712.460693 801.204651,722.374390 
	C765.134644,771.467285 727.042664,818.916016 685.419312,863.431274 
	C674.417908,875.197083 662.362671,885.977539 650.791382,897.210449 
	C637.966187,906.724060 625.575378,916.901184 612.238037,925.632446 
	C563.431213,957.584167 509.622559,970.392883 451.585480,966.243225 
	C410.681305,963.318604 372.497894,951.826233 337.518402,930.230286 
	C305.425079,910.416199 279.201721,884.411987 257.728577,853.568054 
	C225.001160,806.558411 205.610580,754.171509 195.945633,698.006348 
	C184.567307,631.884399 188.991241,566.510986 207.315689,502.203247 
	C221.180420,453.546417 243.353577,409.067322 279.022827,372.332581 
	C310.120972,340.305573 347.520264,319.468628 391.268433,309.995605 
	C458.163666,295.510376 519.765259,309.254700 577.417175,344.427307 
	C604.608887,361.016602 628.888000,381.161682 650.702881,405.326843 
	C651.013062,447.746490 650.936462,489.574768 650.518005,531.295227 
	C644.557190,527.938599 639.109009,524.340576 633.292114,521.496582 
	C589.527405,500.099182 543.192566,487.248993 495.009125,481.082062 
	C469.287354,477.790009 443.479004,478.868256 417.767578,482.037628 
	C384.584564,486.128052 352.844849,494.779327 323.718140,511.742645 
	C300.085510,525.506226 280.630127,543.455383 267.315948,567.623230 
	C256.529877,587.202148 251.062225,608.223755 249.449203,630.471558 
	C246.912766,665.455994 256.531494,696.596741 279.746887,722.732910 
	C314.076477,761.381714 358.434723,778.798950 409.364868,779.262634 
	C461.448669,779.736816 505.723419,758.759155 544.880249,725.919556 
	C568.429443,706.169495 589.468689,683.850525 608.307617,659.571350 
	C622.893738,640.773071 636.907104,621.530518 651.470337,602.295776 
	C672.356445,574.685059 692.953979,547.269165 713.536255,519.841797 
	C748.182983,473.672424 780.698364,425.754028 823.308472,386.122070 
z"/>
<path fill="#FEFFFF" opacity="1.000000" stroke="none" 
	d="
M823.623413,732.510315 
	C865.084717,753.330811 906.063110,775.223877 950.802795,788.642273 
	C987.254700,799.575012 1024.369263,801.971558 1062.025635,797.652588 
	C1089.302612,794.524109 1115.787354,788.088745 1140.833984,776.750916 
	C1174.951782,761.306946 1203.834595,739.517700 1222.507812,706.144714 
	C1224.417969,702.730896 1226.531982,701.703003 1230.319580,701.738953 
	C1250.813477,701.933838 1271.310303,701.831360 1291.806030,701.831360 
	C1293.433228,701.831360 1295.060425,701.831360 1297.440063,701.831360 
	C1295.555664,712.823547 1293.906616,723.278503 1291.954346,733.676514 
	C1285.595093,767.546875 1275.417847,800.206421 1259.953979,831.062012 
	C1239.303345,872.267029 1211.689209,907.695129 1172.515015,932.938049 
	C1145.304688,950.471863 1115.541382,961.449585 1083.378906,966.127136 
	C1059.443604,969.608154 1035.560303,970.057495 1011.699280,966.483093 
	C982.139038,962.054871 955.015625,950.981079 929.809021,935.029297 
	C886.890747,907.868896 853.957458,870.967712 826.195435,829.004517 
	C825.644897,828.172241 825.094910,827.339539 824.141357,825.921814 
	C823.543579,824.049194 823.180969,822.762085 823.179443,821.474548 
	C823.145569,792.953735 823.146118,764.432922 823.169983,735.912109 
	C823.170959,734.778076 823.465576,733.644226 823.623413,732.510315 
z"/>
<path fill="#ED1C24" opacity="1.000000" stroke="none" 
	d="
M650.859863,531.403015 
	C650.936462,489.574768 651.013062,447.746490 651.008972,405.454529 
	C650.988342,391.166901 651.088867,377.342987 651.101257,363.519012 
	C651.147156,312.212189 651.164001,260.905365 651.191650,209.598526 
	C651.192261,208.459747 651.191711,207.320969 651.191711,205.861420 
	C708.281616,186.993820 765.258362,168.163605 823.228821,149.004990 
	C823.228821,228.149246 823.228821,306.660767 823.268677,385.647156 
	C780.698364,425.754028 748.182983,473.672424 713.536255,519.841797 
	C692.953979,547.269165 672.356445,574.685059 651.402771,601.798218 
	C650.979858,578.127930 650.919861,554.765503 650.859863,531.403015 
z"/>
<path fill="#ED1C24" opacity="1.000000" stroke="none" 
	d="
M823.649658,732.077881 
	C823.465576,733.644226 823.170959,734.778076 823.169983,735.912109 
	C823.146118,764.432922 823.145569,792.953735 823.179443,821.474548 
	C823.180969,822.762085 823.543579,824.049194 823.861328,825.746582 
	C823.918884,828.319458 823.794495,830.482422 823.795715,832.645264 
	C823.841431,912.626709 823.898682,992.608154 823.954224,1072.589600 
	C823.955383,1074.246582 823.954346,1075.903564 823.954346,1077.945801 
	C766.515198,1097.193604 709.148804,1116.417114 650.851379,1135.952637 
	C650.851379,1056.160278 650.851379,977.139282 650.821411,897.664307 
	C662.362671,885.977539 674.417908,875.197083 685.419312,863.431274 
	C727.042664,818.916016 765.134644,771.467285 801.204651,722.374390 
	C808.488525,712.460693 815.831543,702.590576 823.367188,692.498901 
	C823.616638,705.413391 823.646240,718.529419 823.649658,732.077881 
z"/>
<path fill="#003874" opacity="1.000000" stroke="none" 
	d="
M650.518005,531.295227 
	C650.919861,554.765503 650.979858,578.127930 651.107422,601.987915 
	C636.907104,621.530518 622.893738,640.773071 608.307617,659.571350 
	C589.468689,683.850525 568.429443,706.169495 544.880249,725.919556 
	C505.723419,758.759155 461.448669,779.736816 409.364868,779.262634 
	C358.434723,778.798950 314.076477,761.381714 279.746887,722.732910 
	C256.531494,696.596741 246.912766,665.455994 249.449203,630.471558 
	C251.062225,608.223755 256.529877,587.202148 267.315948,567.623230 
	C280.630127,543.455383 300.085510,525.506226 323.718140,511.742645 
	C352.844849,494.779327 384.584564,486.128052 417.767578,482.037628 
	C443.479004,478.868256 469.287354,477.790009 495.009125,481.082062 
	C543.192566,487.248993 589.527405,500.099182 633.292114,521.496582 
	C639.109009,524.340576 644.557190,527.938599 650.518005,531.295227 
z"/>
</svg>