<svg version="1.2" xmlns="http://www.w3.org/2000/svg" viewBox="0 0 1549 1547" width="1549" height="1547"><style>.a{fill:#fff}</style><path class="a" d="m777.3 0.7l-15.9 745.9-50.5-32.6 63.8 832.7h0.6 0.4l17.2-719 48.6 37.2-62.2-827.3-1.6-36.9z"/><path fill-rule="evenodd" class="a" d="m735.8 1545.7c-90.4-4.3-177.1-24.3-256.9-57.5h251.6zm-8.7-88.8h-314.7q-9.6-5-18.9-10h-5c0-3.3-32.3-14.6-32.9-22.6h87.7l7.7-32.5h270.1zm-9.3-96.4h-447.3q-5.6-5-10.9-9.7h-6c0-3.3-19.6-14.9-20.3-23.2h234l5.3-31.6h239.3zm-9.3-96.1h-532.1q-5-6.3-10.3-12.6h-2.3c0-3-12-13.3-12.7-21h343.3l7-35.9 201.1 4zm-9.7-100l-591.5 1.3q-3.3-5.6-6.7-11.3h-1c0-1.7-2.6-3-2.6-4.6-3-13.3-5-3.4-6.3-16h425l9.7-30.2h167.8zm-9-94.4h-630.4q-2.7-6.4-5.3-12.7h-1c0-1.6-2.7-3-2.7-4.6-3.3-13.3-2-3.4-3.3-16.3h493.8l6.3-31.6h136.3zm-9.3-96.7h-647.1q-1.3-5.3-2.6-10.7 0 0 0-0.3-0.4-0.3-0.4-1c-1-7.3-4.3-14.3-3.9-20.3h537.3l6.4-32.2h104.3zm-9.3-97.1l-664 0.7q-1-6.7-1.7-13 0-0.3 0-0.6 0-0.4 0-0.7c0.7-5 4.4-17.3 5.4-18.6h572.9l7-31.6h74.4zm-9.3-97.7h-655q0-2.7 0-5.3 0-1.4 0-2.7h-6.7c0-7.3 4-17.6 8-22.3h605.2l5.3-30.6h37.6zm60.5-191.4h-699.6q1-4.3 2-9h-1q0-2.7 0-5.3c9-11.6 1-9 6.6-15.6h509.2l11.3-31h174.1zm4.7-96.3h-673.7q2.7-6 5-12.3 0-1.7 0-3.4c9-10.9 1-8.3 6.7-14.9h510.7l11-30.3h142.9zm4.3-95.7h-632.1q4-7.3 8.3-14.3h1q0-0.7 0-1.7c9-10.6 1.7-7.9 7.7-14.6h494.8l11.7-30.2h111.6zm4.4-98.8h-511.5c-13.6 16-21.3 26-36.2 45.2h-56.2q20.9-30.9 44.5-59.8h0.4c18.6-16.3 16.9-11.6 24.2-17.3h446.7l12.3-31.9h78.7zm4.4-96.7l-411.1-2.3c-19.6 15.9-21.6 17.2-45.6 38.9h-66.1c17.9-18.7 43.2-39.3 63.1-55.9h0.4c9-8 16.6-7 22.2-11.6h380.6l11.3-30.6h48.2zm4.3-94.1l-259.2-0.3c-31 14.3-34.6 15.9-74.2 37.6h-73.4c25.3-18 55.5-38.9 83.1-53.9h0.3l32.9-12.3h261.9l29.9-75.5q1.7 0 3.3 0zm-25.6 562.1l-72.1-47.8 6 64.5h-647.4q0.7-6 1.3-11.7l-0.3-0.3q0-2.7 0-5.3c9-12-2-9 3.7-16h565.9l-25.9-33.2h170.8zm556.7-481.7l-411.4 1.4v-19h390.5c24.9 22.3 15.6 8.3 20.9 17.6zm96.7 101.7l-487.9 1.7v-25.3h468.3c2 2.7 19.6 16.3 19.6 23.6zm-234-190.1l-308.7 1.3-0.3-22.6 266.2-0.3zm302.1 289.9l-556 1.6-0.4-24.9h542.4c3.7 6 9 12.3 14 23.3zm48.1 96.4l-604.1 0.3-0.4-24.3 594.6 1.4h0.3c0.7 0.9 9.6 18.6 9.6 22.6zm29.3 92.4l-633.4 1.3-0.4-20.6h628.5c3 6.6 2.6 6.3 5.3 19.3zm19.9 97l-597.5 1.4v-24h594.2c4 3.7 3.3 12.3 3.3 22.6zm7 97.1l-635.1 1.3-0.3-23.3h635.1c1 16.3 0.3 21.7 0.3 22zm-6 93.1l-582.9 1.3-0.3-21h585.6c0.6 11.7-1 6.7-2.4 19.7z"/><path class="a" d="m1523.7 941.4h-568.6l0.4 21.9 563.6-1.3c3-14 4-11.3 4.6-20.6z"/><path class="a" d="m1496.2 1036.8h-541.1l0.4 28.2 531.4-1.6c0-0.4 8.6-19.3 9.3-26.6zm-42.9 97h-498.2l0.4 22 488.5-0.4c0-1.6 9-15.9 9.3-21.6zm-62.2 97.1h1-437l0.4 22.3 423.4-0.4c0.6-2.6 11.6-14.3 12.2-21.9zm-76.1 96.7h-359.9l0.4 24 336.9-1.4c5.4-4 17.7-13.3 22.6-22.6zm-121.9 96.4h-238l0.4 23.9 200-1.3c13.3-6 29.6-15.9 37.6-22.6zm330.6-482.6h-568.6l0.4 27.6 563.6-1.7c3-17.6 4-14.3 4.6-25.9z"/><path fill-rule="evenodd" class="a" d="m821.9 1490.2h243.2c-76.4 31.2-158.8 50.2-245.2 55.1zm3.3-98.7h286.1l17.3 52.9h30.9q-11 6.3-22.2 12.3h-314.4zm3.3-95.8h258.2l17.6 52.2h188.1q-7 6.3-13.9 12.3h-452.3zm3.6-100.7l231.3 4 13 51.2h307.4q-5.7 7-11.3 14.3h-542.7zm3.3-91.8h205.7l13.3 46.2h396.2q-4.7 8.3-9.3 16l-608.2-1.7zm3.6-98.7h173.5l12.6 52.9h469.3q-2.7 6.3-5.3 12.3h-652.4zm3-85.1l56.8 39.5-5-50.2h93.8l10.6 52.5h526.8q-1.4 6-3 12h-682zm42.2-107h75.1l17 50.2h566.6q-0.7 7-1.7 14.3h-650.7zm-9.3-94.4h63.2l13.3 48.5h596.8q0 3.7 0 7 0 2.6 0 5.3h-667.3zm-28.9-286.5h114l15.6 44.5 515.1 4q2.7 6 5 12.3h-643.7zm-9.7-95.7h90.1l17 46.5h499.1q4 7 8 14.3h-607.8zm-10.3-98.7h65.4l18 49.5h466.2q22.3 27.3 41.9 56.5l-53.8 3c-18.3-24.3-19.6-26.3-35.6-45.2h-495.5zm-9.6-95.7h41.2l16.3 44.8h404.1q30.2 26 57.8 54.9l-66.8-1.7c-21.9-19.6-21.6-19.3-44.9-37.9l-401.8 1zm-11.6-139.9q2 0 4 0l32.2 92.4 303.1 0.3c31.9 17.3 44.9 26.6 74.1 48.5l-82.4 0.7c-40.5-24.6-41.2-22.6-73.1-36.9h-251.9zm60.1 616.6h137.6l-40.5 52.2h579.9q0.7 5.7 1.3 11l-669.6 3.6-7.3-52.5zm-9-91.4h137.9l17.6 48.9h511.8q1.4 5.3 2.7 10.3l-664 2z"/><path fill-rule="evenodd" class="a" d="m820.2 1541c82.1-4.6 160.8-22.2 234.3-50.8h10.6c-76.4 31.2-158.8 50.2-245.2 55.1zm331-96.7h8.3q-11 6.3-22.3 12.3h-8.6q11.3-6 22.6-12.3zm134.9-96.4h6.3q-7 6.3-13.9 12.3h-6.4q7.4-6 14-12.3zm92.7-98h5q-5.6 7.3-11.3 14.6h-5.3q5.6-7.3 11.6-14.6zm67.2-100.4h4.6q-4.3 8.3-9 15.9h-4.6q4.6-7.6 9-15.9zm44.2-91.8h4.3q-2.7 6-5 12.3h-4.3q2.3-6.3 5-12.3zm31.2-96.4h4q-1.7 6-3.3 12h-4q1.6-6 3.3-12zm18.3-98.7h3.3q-0.7 7.3-1.7 14.3h-3.6q1-7 2-14.3zm5.3-89.1c0-2 0-4.6 0-7h3.3q0 3.7 0 7 0 2.7 0 5.3h-3.3q0-2.6 0-5.3zm-57.5-293.5h3q2.6 6 5 12.3h-3q-2.7-6.3-5-12.3zm-48.9-97.7h3.4q4.3 7 8.3 14.3h-3.4q-4.3-7.3-8.3-14.3zm-67.4-96.1h4.3q22.3 27.3 41.9 56.5l-3.7 0.4q-19.9-29.3-42.5-56.9zm-50.5-55.5q-23.3-23.3-48.2-44.5h5.3q30.2 25.9 57.8 54.8l-5-0.3q-5-5-9.9-10zm-185.5-136.9h8.3c32.3 17.2 45.2 26.9 74.5 48.5h-3q-38.2-26.6-79.8-48.5zm-330.7-88.5l-0.3-4.3c1.3 0 3 0 4.3 0l1.7 4.7zm733.8 664.4h3q0.6 5.4 1.3 11h-3q-0.6-5.3-1.3-11zm-19-94.7h3q1.4 5 2.7 10.3h-3q-1.3-5.3-2.7-10.3zm-783.3 970.3c-90.7-4.3-177.1-24.3-256.9-57.2h13.7c75.7 29.9 157.5 48.2 242.6 52.9zm-311.8-88.8h-11.6q-10-5.3-19.6-10.9l10.3-0.4q10.3 5.7 20.9 11.3zm-144.2-96.7h-8.6q-7-5.7-14-12h8.6q7 6 14 12zm-94.7-95.7h-8q-5.6-7-11.3-14.3h7.7q5.6 7.3 11.6 14.3zm-69.8-98.8h-7.3q-4.7-7.9-9-15.9h7q4.6 8 9.3 15.9zm-48.2-95.7h-7q-3.3-8-6.3-15.9h6.7q3.3 7.9 6.6 15.9zm-52.2-193.1h-6.6q-1-7-1.7-14h6.3q1 7 2 14zm15.7-289.5h-6.7q1.7-6 3.3-12h6.3q-1.6 6-2.9 12zm30.5-96.4h-6.3q2.3-6 5-12.3h6.3q-2.3 6.3-5 12.3zm45.9-95.8h-6.7q4-7.3 8-14.3h7q-4.3 7-8.3 14.3zm32.9-53.5h-6.7q21-30.9 44.6-59.5h7q-23.6 28.6-44.9 59.5zm86.1-105.4h-7.3c17.9-18.6 43.2-39.2 63.1-55.8h4.7q-28 23.3-53.9 49.2-3.3 3.3-6.6 6.6zm160.8-126.3c12-7.6 23.9-14.6 35.2-20.9h3q-19.2 10-38.2 20.9zm358.6-104.7l1.7-4q1.6 0 3.3-0.3v4.3q-2.7 0-5 0zm-732.5 679.5h-6.3q0.7-7.4 1.7-14.7h6.3q-1 7.3-1.7 14.7z"/></svg>
