<svg version="1.2" xmlns="http://www.w3.org/2000/svg" viewBox="0 0 1548 1292" width="1548" height="1292">
	<title>SHREECEM</title>
	<style>
		.s0 { fill: #ffffff } 
	</style>
	<path class="s0" d="m1169 423.5v776.3c0.6 59.8 33.3 88.1 80.5 91.9h286.5c18.1-0.9 17.2-50.7-13.7-47.5-43.5 4.6-65.4-16.7-64.2-66.8v-759.8c-1.7-34.1-23.3-47.5-58.3-46.9h-178q-54.3-1.5-52.8 52.8zm-411.6-317q-5.6-108.5 111.1-105.9h238.7c57.7 0 91 34.1 86.9 94.8v186.3c-1.8 33.9-49.9 30.7-50.5 0v-148.4c0-85.8-102.7-87.8-102.7 1.4v1065.1c-0.8 24.5 46.7 27.2 47.6 0v-197.7c-0.9-35.9 52.2-43.5 53.1 0v207.7c0 54.5-46.1 80.7-97.8 79h-191.9c-66.8-4.7-100.1-63-100.1-133.6zm-696.9 727.7l199.2-87.8 147.1 159.2c75.5 81.7 110.8 196-19 253.2l-180.9 80.2c-25.3 15.4-12.2 53.6 19.3 47.2 166-55.4 318.6-122.5 443.4-213.2 169.8-123.3 3.8-361.3-115.2-448.8 89-146.4 51.3-278.8-98-338.3-118.8-47.3-267.6 4.9-324.7 121q-70.9 142 80.8 283.8l-200.7 102.1c-35.9 18.6 25.6 51.6 48.7 41.4zm402.6-297.2c-42-32.7-67.1-69.4-68.6-104.4-2-46.1 46.7-70.6 83.2-47.9 35.6 22.2 56 51.7 58.6 90.5 2.6 36.7-29.8 95-73.2 61.8z"/>
</svg>