<svg version="1.2" xmlns="http://www.w3.org/2000/svg" viewBox="0 0 1552 2084" width="1552" height="2084">
	<title>sw-logo-svg</title>
	<defs>
		<clipPath clipPathUnits="userSpaceOnUse" id="cp1">
			<path d="m6889.26 4.51v2192.26h-7002.05v-2192.26z"/>
		</clipPath>
		<clipPath clipPathUnits="userSpaceOnUse" id="cp2">
			<path d="m6889.26 4.51v2192.26h-7002.05v-2192.26z"/>
		</clipPath>
	</defs>
	<style>
		.s0 { fill: #ffffff } 
		.s1 { fill: #000000 } 
	</style>
	<g id="Layer">
		<g id="Clip-Path" clip-path="url(#cp1)">
			<g id="Layer">
				<g id="Clip-Path" clip-path="url(#cp2)">
					<g id="Layer">
						<path id="Layer" fill-rule="evenodd" class="s0" d="m1153.8 2014.6c11 25.1 11 48.5 0 59.5-8.8 8.9-26.1 8.9-45.9 4.7l-370-101.8-54.9-172.7c-18.3-13.6-35.5-11-46.5 2.6l-17.7 75.6-480.8 51.2c-24-2.6-26.1-43.3-8.9-52.7l259.7-66.8-8.8-73.1c-129.6-30.3-235.2-60-259.7-85.6l66.3-418.6c6.3-35 4.2-71.5 0-110.7-17.7-131-35-250.5-52.8-342.9l-79.4-315.3 19.9-18.3c4.2-4.6 8.3-8.8 8.3-13.5-35.5-50.7-52.7-92.4-39.2-124.3-28.2-17.7-42.3-43.8-42.8-82.9 0-17.3 5.7-34.5 18.3-46 11-10.9 25.1-15.6 41.3-11.5 15.1-23.4 32.9-30.2 57.4-20.8 15.7-23 39.8-38.7 63.8-43.4-2.1-60 7.3-101.2 39.7-102.8 23.5-1 39.7 15.1 55.4 72.6 17.2 60 32.9 117.4 43.9 177.4 6.8 15.7 10.4 43.4 4.2 68.9-4.2 22.5-11 52.8-8.4 71 28.2 60 54.9 157.1 94.1 221.3 15.1-4.7 30.3-13.5 46-27.1 6.7-7.3 4.7-39.2 0-53.2-43.9-100.8-11-181.7 48.6-227.6 52.2-63.7 116-83 191.2-83 83.1 0 199.6 32.3 230.4 101.2 4.7 9.4 8.9 20.9 26.7 27.7 15.7 4.7 80.5-48 125.4 52.7 15.7 35.5 2.6 76.2-28.7 108.6-19.4 17.7-26.2 39.1-24.1 62.1 2.6 13.6 32.9 13.6 28.8 80.4-2.1 29.7-14.1 44.9-26.2 50.6-37.1 17.2-45.9 59.5-39.7 96.1l323.5 156.6c41.8 13.5 83.6 47.5 74.7 133.6-13.1 129.9-19.3 273.5-35 399.8l-11.5 16.2c7.3 25.6 4.7 53.2-6.3 85.1l169.9-18.3 45.9 374.8zm-677.7-234.9l-6.3-59.5-37.1 2.1 4.7 60zm537.7 136.2l-21.9-128.9c-11-16.2-22-23-35.6-23-15.6 11-32.9 18.3-48.6 25.6v63.7c30.9 14.1 68.5 48 106.1 62.6z"/>
						<path id="Layer" fill-rule="evenodd" class="s1" d="m671.5 386.1c35.1 8.8 61.2 8.8 87.3-9.4 11 6.8 26.1 13 41.3 10.9 47-5.7 87.3-20.3 116 15.7 4.2 14.1 0 23.5-13.1 30.3-58.5-18.3-82.5 0-113.4 54.8 2.1 13.5 21.5 4.1 43.4-13.1 13.1-16.7 32.9-24 43.4-18.8l61.1 11.5c17.8 0 32.9 23 30.3 54.8 2.6 73.1-17.2 139.9-10.4 267.8 1 14.6-1.6 25.6-6.8 34.4-5.8 10-15.2 16.2-26.1 18.3-59.1 11-118.1 23.5-177.2 38.1-21.4 3.1-41.8 3.1-63.2-4.2-43.9-13.5-98.3-27.1-129.1-47.5-28.7-16.1-44.4-48.5-41.8-91.8 2.1-39.2 15.2-70.5 13.1-121.1l-11-146.2c4.2-41.2 19.9-68.9 59.1-68.9 6.2 2.1 13 16.2 13 25.6-11 15.7-20.4 33.4-26.1 52.2-2.6 16.7 13.1 25.1 26.1 11.5 11-23 28.2-33.9 61.2-23 24 20.4 39.1 42.8 39.1 77.8-2 33.9-2 57.4-4.1 89.2 0 14.1 2.1 23 13 27.7 6.8 6.3 6.8 15.7 4.2 22.5-11 8.8-21.9 13.5-32.4 11.4-26.6-6.7-50.2-22.9-72.6-43.3-8.4-13.6-23.5 0-18.8 13.6l39.2 38.6c23.5 23 39.1 91.4 120.1 91.4 81 4.7 96.2-54.3 115.5-82 8.9-13.6 17.8-29.7 30.8-43.3 13.1-2.6 21.5-7.3 26.2-18.3-4.7-11.5-15.7-23-26.2-18.8-6.7 0-4.7 4.7-10.9 11.5l-11 20.4c-65.8 45.4-91.4 38.6-100.3 11.4l24-25c6.8-16.2-4.2-23-13.1-18.8-28.7 18.8-54.8 18.8-65.8-13.6 2.6-32.3 9.4-71 6.8-100.7-6.8-36.5-26.1-66.8-67.9-96.1-14.1-10.4-7.3-46.9 27.1-37.5zm153.1 169.1c0 15.6 11.5 27.1 26.7 27.1 15.7 0 26.1-10.9 26.1-27.1 0-16.7-10.9-28.2-26.1-28.2-15.7 0-26.7 12.5-26.7 28.2zm-231.4 6.8c0 16.2 12.5 27.1 26.1 27.1 15.1 0 28.2-10.9 28.2-27.1 0-16.2-13.1-27.7-28.2-27.7-13.1 0-26.1 11.5-26.1 27.7zm94 155h111.3c8.9 0 13.1 5.2 11.5 13.6-11.5 32.3-35 45.9-67.9 45.9-30.3 2.6-52.3-11.5-67.4-31.8-14.1-18.3-7.9-27.7 12.5-27.7zm105 185.3c46-9.4 89.9-20.9 128.6-35 15.1-6.2 30.8-2.1 28.2 16.7-8.3 33.4-35 81.5-60.6 115.9-15.2 18.3-32.4 18.3-54.3 0-24.1-20.4-46-45.4-59.1-73.1-2.6-17.7 4.2-26.6 17.2-24.5zm-102.4 32.9c-13 27.1-26.1 48-50.1 68.4-17.8 8.8-13.6 13.5-28.8 0-43.9-41.3-61.1-75.7-67.9-110.2-6.3-27.6 11.5-34.4 26.1-27.6 39.2 13.5 59.1 29.7 105.1 41.2 15.1 2.1 19.3 8.9 15.6 28.2zm-457.2-806.5c-8.9-36-13.1-65.7-15.7-91.3 0-15.7 3.2-22.4 13.6-21.4 7.3 1 13.6 6.3 16.2 13 12 29.3 23.5 65.8 27.2 111.2zm-16.2 91.9c-3.7 16.2-10.5 20.9-23.5 12-26.2-36.5-32.9-71-26.2-100.7 6.8-23 17.8-29.3 37.1-27.2 4.8 25.6-8.8 73.1 12.6 115.9zm-58 12c-32.9 31.8-61.1 2.1-59.1-64.2 2.1-22.5 10.5-36.5 34.5-27.7 0 27.7 8.9 59.5 24.6 91.9zm-67.9 23c-19.9 22.4-45.5-14.1-43.9-62.2 2.6-16.1 6.8-25 21.9-18.2 2.1 20.9 8.9 57.4 22 80.4zm67.9 4.1c15.1-13.5 21.4-4.1 28.2 13.6 2.1 14.1 8.9 27.7 24 41.2 8.9 11.5 24.1 23 30.3 34.5 8.9-2.1 15.2-13.6 8.9-24.5-26.6-20.9-30.8-27.7-28.2-55.4 1.6-17.7 17.8-27.6 41.3-34.4-17.2-20.4-30.8-41.3-28.2-61.1 2.1-16.2 19.3-20.9 32.4-9.4 15.1 9.4 26.1 27.2 43.9 75.7 6.2 16.2 8.9 31.8 4.2 50.1-13.1 79.9-78.4 104.9-123.9 74.7-13.6 20.8-39.7 25.5-59.6 18.7-34.4-18.7-39.2-45.9-39.2-79.8-2-18.8 4.8-27.7 15.7-32.4 13.1-4.7 40.8-4.7 50.2-11.5zm971.9 1359.8l345.9-27.7 32.4 274-339.1 50.1zm-117.6 6.8l83.1-4.2 35 294.4c-24 11-52.2 8.9-82.5-4.7zm70-127.8c-4.7-46 17.2-79.9 41.8-98.7 15.1-11.5 38.7-13.6 58.5 2.1 13.1-2.1 28.2 2.6 43.9 16.2 13.1-2.6 26.1 4.7 39.2 16.2 35 13.5 63.2 14 52.8 63.6-3.7 16.7-14.7 30.3-30.9 43.9-21.4 18.2-43.8 22.4-47.5-2.6 0 0-28.2 24.5-39.7 29.2-35 14.1-24.6-29.8-28.8-61.1-5.7-44.3-32.4-48-41.8-25-4.1 43.3-42.8 48.5-47.5 18.2 0-0.5 0-2 0-2z"/>
					</g>
				</g>
			</g>
		</g>
	</g>
</svg>