<svg xmlns="http://www.w3.org/2000/svg" xmlns:xlink="http://www.w3.org/1999/xlink" version="1.1" id="Layer_1" x="0px" y="0px" width="100%" viewBox="0 0 869 217" enable-background="new 0 0 869 217" xml:space="preserve"><script xmlns="" id="nimlmejbmnecnaghgmbahmbaddhjbecg"/><script xmlns=""/><script xmlns=""/>
<path fill="#3C78BB" opacity="1.000000" stroke="none" d=" M870.000000,211.000000   C870.000000,213.322296 870.000000,215.644608 870.000000,218.000000   C841.645752,218.000000 813.291565,218.000000 784.466553,217.603531   C777.350525,197.802002 770.722351,178.391037 764.055115,158.993515   C757.121033,138.819595 750.171997,118.650711 743.145447,98.508942   C742.646912,97.079735 741.457764,95.891479 740.075989,93.821548   C738.647400,97.446991 737.729614,99.532433 736.993896,101.680244   C727.484680,129.441605 717.937683,157.190308 708.543274,184.990555   C704.845947,195.931885 701.503845,206.993286 698.000000,218.000000   C669.979126,218.000000 641.958191,218.000000 613.470703,217.604675   C618.556763,202.057434 624.014160,186.869751 629.683716,171.761658   C639.082703,146.715469 648.580933,121.706284 658.107178,96.708130   C666.821289,73.841026 675.693115,51.033920 684.361206,28.149500   C687.762024,19.170847 690.797852,10.053932 694.000000,0.999997   C724.687561,1.000000 755.375122,1.000000 786.533264,1.388110   C787.641174,3.445078 788.275024,5.115242 788.916321,6.782574   C801.743591,40.133904 814.502319,73.511826 827.419006,106.828484   C840.514893,140.607224 853.750183,174.332016 867.020325,208.042694   C867.489563,209.234726 868.983521,210.023376 870.000000,211.000000  z"/>
<path fill="#3C78BB" opacity="1.000000" stroke="none" d=" M446.000000,218.000000   C417.645782,218.000000 389.291534,218.000000 360.466553,217.603531   C357.678070,210.419922 355.377777,203.626785 353.039581,196.846695   C342.397095,165.986649 331.735413,135.133240 321.105743,104.268776   C319.815613,100.522636 318.677551,96.724113 317.468994,92.949883   C315.828613,94.044670 315.312500,95.133720 314.918854,96.265373   C308.913330,113.529663 302.905396,130.793137 296.936096,148.069962   C291.605194,163.499054 286.215912,178.909317 281.060638,194.397186   C278.468292,202.185318 276.338776,210.127487 274.000000,218.000000   C245.979111,218.000000 217.958206,218.000000 189.468979,217.598419   C189.043594,216.368347 188.879486,215.461197 189.159988,214.722961   C195.012665,199.318832 200.938278,183.942444 206.803772,168.543152   C216.908188,142.014862 226.978714,115.473671 237.068527,88.939827   C245.128952,67.742775 253.238312,46.564194 261.240387,25.345139   C264.283234,17.276466 267.087158,9.117703 270.000000,0.999999   C300.687561,1.000000 331.375122,1.000000 362.236816,1.299816   C365.512390,9.506090 368.617554,17.411081 371.714508,25.319277   C382.128326,51.911465 392.579712,78.489029 402.940430,105.101898   C414.424225,134.599533 425.866394,164.113556 437.232727,193.656601   C440.328949,201.704208 443.086823,209.881973 446.000000,218.000000  z"/>
<path fill="#3C78BB" opacity="1.000000" stroke="none" d=" M1.000000,65.000000   C1.000000,43.700771 1.000000,22.401545 1.000000,1.000000   C70.687531,1.000000 140.375107,1.000000 210.531342,1.468657   C211.000000,22.838680 211.000000,43.740047 211.000000,65.200737   C190.644302,65.200737 170.947433,65.200737 151.000000,65.200737   C151.000000,116.511055 151.000000,167.255524 151.000000,218.000000   C121.979103,218.000000 92.958214,218.000000 63.468658,217.531342   C63.000000,166.502777 63.000000,115.942879 63.000000,65.000000   C41.905460,65.000000 21.452730,65.000000 1.000000,65.000000  z"/>
<path fill="#3C78BB" opacity="1.000000" stroke="none" d=" M425.000000,1.000000   C494.687561,1.000000 564.375122,1.000000 634.531372,1.468657   C635.000000,22.838690 635.000000,43.740063 635.000000,65.200768   C614.644287,65.200768 594.947388,65.200768 575.000000,65.200768   C575.000000,116.511070 575.000000,167.255539 575.000000,218.000000   C545.979126,218.000000 516.958191,218.000000 487.468658,217.531342   C487.000000,166.526474 487.000000,115.990280 487.000000,64.890762   C466.070465,64.890762 445.707642,64.890762 425.000000,64.890762   C425.000000,43.218163 425.000000,22.109081 425.000000,1.000000  z"/>







</svg>
