<svg version="1.2" xmlns="http://www.w3.org/2000/svg" viewBox="0 0 1536 1337" width="1536" height="1337">
	<title>TATACONSUM</title>
	<style>
		.s0 { fill: #ffffff } 
	</style>
	<g id="Page 1">
		<path id="Path 2" fill-rule="evenodd" class="s0" d="m370.8 954.6v112.8h-106.1v263.1h-153.6v-263.1h-111.1v-112.8z"/>
		<path id="Path 3" class="s0" d="m478.7 961.1l-142.2 375.9h147.1l76.8-222.2 76.7 222.2h148.7l-145.4-375.9z"/>
		<path id="Path 4" class="s0" d="m753.1 961.1v112.8h109.5v263.1h153.6v-263.1h106.1v-112.8z"/>
		<path id="Path 5" fill-rule="evenodd" class="s0" d="m1228.5 961.1l-142.1 375.9h148.7l75.1-222.2 76.8 222.2h148.7l-145.4-375.9zm83.3-702.6q-21.3-40.9-55.6-78.5c-49-53.9-120.9-99.7-205.8-130.7-85-31.1-183-49-281-49-98 0-196 17.9-281 49-84.9 31-155.2 76.8-205.8 130.7q-34.3 37.6-55.6 78.5c111.1-27.8 299-62.1 473.8-65.4 16.3-1.6 27.8 4.9 35.9 14.7 9.8 11.4 8.2 53.9 8.2 71.9l-4.9 487q14.7 0 29.4 0 14.7 0 29.4 0l-4.9-487c0-18 0-60.5 8.2-71.9 8.1-9.8 19.6-16.3 35.9-14.7 174.8 3.3 362.7 37.6 473.8 65.4z"/>
		<path id="Path 6" fill-rule="evenodd" class="s0" d="m1336.4 320.6c-161.8-36-268-42.5-374.2-49.1-93.1-4.9-94.7 27.8-84.9 91.5q0 6.6 1.6 14.8c31.1 183 70.3 341.5 76.8 367.6 225.5-50.6 388.8-194.4 388.8-361.1q-1.6-32.7-8.1-63.7zm-671.5 42.4c8.2-63.7 8.2-96.4-84.9-91.5-106.2 6.6-214.1 13.1-374.2 49.1q-8.1 31-8.1 63.7c0 71.9 29.4 142.2 84.9 202.6 50.7 54 122.6 99.7 207.5 130.8q45.7 17.9 96.4 29.4c4.9-26.2 45.7-188 76.8-374.2q0-4.9 1.6-9.9z"/>
	</g>
</svg>