<svg version="1.1" id="Layer_1" xmlns="http://www.w3.org/2000/svg" xmlns:xlink="http://www.w3.org/1999/xlink" x="0px" y="0px"
	 width="100%" viewBox="0 0 1400 431" enable-background="new 0 0 1400 431" xml:space="preserve">
<path fill="#FAF21C" opacity="1.000000" stroke="none" 
	d="
M934.000000,432.000000 
	C622.666687,432.000000 311.833374,432.000000 1.000042,432.000000 
	C1.000028,288.333374 1.000028,144.666718 1.000014,1.000061 
	C467.666626,1.000041 934.333252,1.000041 1401.000000,1.000020 
	C1401.000000,144.666611 1401.000000,288.333221 1401.000000,431.999908 
	C1245.500000,432.000000 1090.000000,432.000000 934.000000,432.000000 
M480.500122,265.746429 
	C419.345825,265.769196 358.191528,265.776184 297.037231,265.819305 
	C240.557144,265.859100 184.076935,266.002563 127.597290,265.875793 
	C123.078217,265.865662 121.214371,267.349731 119.934998,271.432953 
	C114.056488,290.194672 108.146820,308.952850 101.791168,327.556122 
	C98.712090,336.568726 95.485077,345.744690 90.680801,353.875122 
	C87.725433,358.876526 81.663879,362.042480 76.119286,366.783051 
	C105.440819,366.783051 134.059937,366.809448 162.678986,366.778656 
	C317.988434,366.611420 473.297882,366.386749 628.607361,366.265656 
	C788.251770,366.141205 947.896362,366.171875 1107.540771,366.009888 
	C1161.186890,365.955444 1214.832642,365.487946 1268.479004,365.331116 
	C1271.690796,365.321716 1273.118042,364.324768 1274.075562,361.288055 
	C1280.292358,341.572540 1286.649780,321.900970 1293.038696,302.240234 
	C1297.824829,287.511688 1303.876221,273.658417 1319.074707,265.746460 
	C1039.883179,265.746460 760.691650,265.746460 480.500122,265.746429 
M104.003723,195.793747 
	C104.139977,200.945206 103.715599,206.185501 104.515167,211.231873 
	C107.158577,227.915405 119.007278,235.320114 133.984283,238.947250 
	C152.459091,243.421478 171.301514,243.149277 190.023361,241.637619 
	C204.407013,240.476257 218.443237,237.082520 231.378265,230.125351 
	C251.963654,219.053391 263.863586,200.954910 270.842285,179.580750 
	C281.563263,146.744690 291.379456,113.612968 301.546661,80.596573 
	C303.803497,73.267899 305.923309,65.897034 308.279449,57.962212 
	C290.211884,57.962212 273.069427,57.898983 255.930420,58.111973 
	C254.848633,58.125412 253.243118,60.117802 252.810608,61.483788 
	C248.068878,76.459953 243.556778,91.508568 238.894791,106.510307 
	C231.435883,130.512131 223.628693,154.410034 216.505402,178.510483 
	C211.073318,196.888947 195.133942,208.145477 176.280792,205.913574 
	C164.690048,204.541412 159.049652,197.707108 160.850250,186.149521 
	C161.858582,179.677368 163.870026,173.330444 165.787659,167.036240 
	C175.130630,136.370193 184.614807,105.747185 193.996399,75.092842 
	C195.649170,69.692375 197.051819,64.215347 198.693573,58.330650 
	C196.044937,58.169106 194.573059,58.003143 193.100998,58.001366 
	C178.778336,57.984043 164.450317,58.215706 150.135849,57.873970 
	C145.257645,57.757507 143.382126,59.918518 142.148621,64.033989 
	C135.893005,84.905403 129.336548,105.688263 123.247101,126.607407 
	C116.641487,149.299744 110.434029,172.107956 104.003723,195.793747 
M1196.471313,153.077667 
	C1201.598999,143.055984 1209.039795,136.340042 1220.716431,134.688019 
	C1232.846680,132.971832 1239.652100,139.410126 1236.265747,151.069046 
	C1228.567017,177.574921 1220.253052,203.901947 1212.230347,230.314194 
	C1211.593140,232.411942 1211.273071,234.605957 1210.576904,237.806610 
	C1225.977295,237.806610 1240.427856,237.815613 1254.878418,237.798782 
	C1257.663696,237.795547 1259.822998,237.257126 1260.830078,233.925827 
	C1268.386963,208.928253 1276.264648,184.027100 1283.735474,159.004257 
	C1286.706543,149.052902 1289.544434,138.980133 1291.296631,128.765976 
	C1293.836304,113.963448 1286.524170,102.759995 1271.989136,99.105293 
	C1250.235474,93.635567 1230.269775,98.261688 1212.217041,111.444847 
	C1211.006836,112.328629 1209.793701,113.208389 1208.114868,114.429794 
	C1208.114868,112.818886 1207.954834,112.117203 1208.138184,111.521126 
	C1213.431030,94.312210 1218.761597,77.114914 1224.077637,59.913170 
	C1225.661133,54.789268 1225.249268,54.235470 1219.739014,54.225830 
	C1209.240967,54.207466 1198.742920,54.220486 1188.244873,54.220482 
	C1176.924438,54.220474 1176.623779,54.123207 1173.111816,64.980377 
	C1166.858032,84.314041 1160.975098,103.768158 1154.997681,123.190552 
	C1146.637451,150.354935 1138.323242,177.533432 1130.010010,204.712204 
	C1126.779175,215.274902 1123.604614,225.854843 1120.159424,237.236191 
	C1136.494629,238.242859 1152.222656,238.742126 1167.947632,237.027893 
	C1169.002686,236.912857 1170.281982,234.926315 1170.707397,233.574295 
	C1174.628540,221.113205 1178.264526,208.562088 1182.219482,196.112106 
	C1186.719849,181.944504 1191.461914,167.853638 1196.471313,153.077667 
M621.480774,101.946754 
	C600.413208,108.115753 587.653564,122.693481 579.252869,143.631287 
	C594.820007,143.631287 609.407410,143.661880 623.993958,143.562057 
	C624.960999,143.555450 626.404236,142.798279 626.812805,141.982819 
	C634.014343,127.607292 646.888062,125.354683 660.981689,126.114723 
	C665.815918,126.375427 670.806519,127.697098 672.784729,132.901337 
	C674.774780,138.136917 669.096252,148.716827 663.502197,149.871765 
	C655.096252,151.607224 646.547363,152.653305 638.056519,153.974838 
	C623.346436,156.264343 608.334778,157.379776 593.990234,161.082382 
	C569.893188,167.302307 556.505676,184.235184 552.231873,208.467529 
	C549.799255,222.260803 554.810791,232.524490 566.940674,237.855347 
	C571.382812,239.807587 576.432068,240.833313 581.297363,241.289459 
	C602.751404,243.300873 623.404663,241.220032 641.582703,228.043442 
	C642.919556,227.074387 644.548340,226.508209 646.775696,225.384171 
	C646.592407,227.766937 646.393677,229.061295 646.410400,230.352890 
	C646.489502,236.453629 648.319580,238.283722 654.394531,238.244446 
	C666.385681,238.166916 678.378479,238.128662 690.366821,237.888809 
	C696.951294,237.757095 698.753052,234.460373 696.762268,228.168533 
	C695.828369,225.216827 695.225098,221.592148 696.061279,218.737930 
	C703.261108,194.159470 710.915527,169.714569 718.208435,145.162704 
	C719.849426,139.638351 721.469849,133.872177 721.606812,128.181396 
	C722.004089,111.670074 716.013184,104.852997 699.299500,100.012756 
	C684.834106,95.823601 669.911255,96.510696 655.183472,97.209999 
	C644.167725,97.733055 633.243530,100.185173 621.480774,101.946754 
M913.500000,180.042526 
	C916.331543,180.042526 919.163086,180.045166 921.994629,180.042099 
	C934.153320,180.028931 946.312073,179.980774 958.470581,180.016815 
	C963.093933,180.030518 966.257202,178.832840 967.040527,173.427322 
	C968.296875,164.756683 970.625244,156.231171 971.690125,147.544968 
	C974.814209,122.061378 964.186829,105.331619 940.539368,99.663246 
	C922.419617,95.319885 903.972351,95.381325 885.747681,99.721001 
	C840.050110,110.602608 814.053345,150.139267 812.108215,197.813034 
	C811.248596,218.880402 821.233704,231.692078 841.443604,238.055679 
	C856.452942,242.781738 871.815430,242.599792 887.325195,241.133224 
	C906.789673,239.292679 924.519775,233.433105 939.615906,220.612015 
	C948.156189,213.358704 955.139648,205.024384 959.501404,193.010788 
	C942.979919,193.010788 927.372742,192.931335 911.769958,193.156555 
	C910.474609,193.175262 908.841675,195.027435 907.989014,196.411758 
	C902.349304,205.568176 894.418396,211.074921 883.704956,212.714767 
	C871.653748,214.559357 862.145508,208.999664 861.178040,198.904221 
	C860.818970,195.156998 861.189453,191.248978 861.826904,187.516724 
	C863.019531,180.534515 863.403809,180.329544 870.537598,180.268311 
	C884.524658,180.148239 898.512512,180.112915 913.500000,180.042526 
M786.766663,203.227905 
	C797.543030,168.180695 808.319397,133.133484 819.109253,98.042465 
	C820.563354,98.042465 821.555969,98.059387 822.547852,98.039925 
	C837.354126,97.749519 852.162354,97.517914 866.963257,97.055634 
	C868.347229,97.012405 870.528992,95.784973 870.912903,94.632072 
	C874.304138,84.447884 877.403931,74.165665 880.503906,63.886482 
	C881.001038,62.237926 881.071716,60.460773 881.423828,58.203190 
	C828.946838,58.203190 777.193909,58.203190 725.513733,58.203190 
	C721.566162,70.991898 717.680115,83.581459 713.415771,97.396545 
	C730.416565,97.396545 746.621704,97.396545 764.436951,97.396545 
	C749.939087,144.677292 735.881531,190.522186 721.832214,236.340164 
	C727.229736,238.722290 769.740967,238.561737 776.679077,236.258087 
	C779.927917,225.447586 783.160034,214.692825 786.766663,203.227905 
M1072.517578,96.917511 
	C1065.255737,97.608940 1057.865601,97.666954 1050.755859,99.108665 
	C1028.000854,103.722961 1008.815552,114.525261 995.077942,133.692978 
	C983.073059,150.443008 975.705444,169.300995 973.352051,189.639252 
	C970.613159,213.309708 978.281494,232.602570 1005.959534,239.141037 
	C1019.703186,242.387741 1033.559082,242.314621 1047.588013,241.152130 
	C1073.100586,239.038040 1094.754395,229.661011 1111.051636,209.400970 
	C1117.592529,201.269699 1122.289307,192.129028 1126.212402,181.680527 
	C1123.163452,181.406921 1120.889648,181.041733 1118.613281,181.026016 
	C1107.784180,180.951202 1096.931030,181.393372 1086.133423,180.799240 
	C1079.685181,180.444412 1076.200317,182.298462 1073.284180,188.322815 
	C1066.531250,202.273468 1055.473633,209.746643 1039.216919,208.063416 
	C1030.139526,207.123566 1025.096191,202.046738 1025.002441,192.825623 
	C1024.837646,176.617493 1030.322632,161.948990 1037.662476,147.901230 
	C1046.003296,131.937714 1059.702393,127.626068 1075.682739,130.178268 
	C1083.804688,131.475403 1088.091675,138.375381 1086.711060,146.855972 
	C1086.400269,148.765060 1086.187988,150.690186 1085.832886,153.334412 
	C1102.443481,153.334412 1118.467651,153.334412 1135.278809,153.334412 
	C1135.853638,146.807922 1136.703369,140.408035 1136.929321,133.986206 
	C1137.596313,115.023109 1126.282227,103.167839 1108.656738,100.124626 
	C1097.101685,98.129547 1085.237671,97.924515 1072.517578,96.917511 
M382.892212,239.781082 
	C388.387909,239.781860 393.885986,239.885132 399.378723,239.758362 
	C406.856293,239.585800 414.331879,239.283386 421.804260,238.947021 
	C426.071442,238.754929 429.032135,237.343979 430.191040,232.427231 
	C431.815552,225.534775 434.455933,218.885483 436.538208,212.094284 
	C436.992554,210.612396 436.925476,208.970596 437.170502,206.750717 
	C433.450562,206.750717 430.317261,206.764023 427.184113,206.748367 
	C414.873993,206.686829 412.701965,203.683090 416.375427,191.964859 
	C421.859253,174.471420 427.583740,157.044724 432.567596,139.409271 
	C433.847382,134.880753 435.936859,133.946915 439.828278,134.019119 
	C444.822357,134.111786 449.866241,134.424118 454.794037,133.841461 
	C456.929565,133.588928 459.957886,131.756622 460.638733,129.921448 
	C463.505249,122.195107 465.515625,114.156380 468.092133,106.315033 
	C469.398834,102.338120 468.250580,100.779335 464.151825,100.692528 
	C458.035675,100.562996 451.924652,100.190865 445.031708,99.887642 
	C449.027100,86.288391 452.933350,72.992577 457.056610,58.958160 
	C441.578613,58.958160 427.447876,59.186954 413.332367,58.823017 
	C408.921722,58.709293 407.193481,60.374489 406.064819,64.187981 
	C402.830536,75.115646 399.480194,86.012314 395.899567,96.829842 
	C395.456207,98.169296 393.431183,99.698418 391.990845,99.866043 
	C386.889618,100.459763 381.713470,100.380363 376.589844,100.830566 
	C375.195984,100.953049 373.009979,101.742546 372.674225,102.730942 
	C369.212738,112.920959 366.056732,123.214737 362.467072,134.583496 
	C370.606293,134.583496 377.307831,134.583496 384.493622,134.583496 
	C378.827026,153.103424 373.340302,170.740677 368.053009,188.437500 
	C365.316956,197.595230 361.561310,206.731293 360.692871,216.102020 
	C359.134521,232.916061 362.666504,235.986725 376.553436,238.954239 
	C378.337646,239.335510 380.167938,239.501099 382.892212,239.781082 
M502.284607,200.812790 
	C505.181244,191.693375 508.101807,182.581467 510.969238,173.452881 
	C515.926025,157.672668 526.829407,148.235809 542.522644,144.049316 
	C551.334473,141.698593 560.247192,141.983490 569.160889,143.674759 
	C571.937927,144.201660 574.720703,144.911026 575.896301,140.867508 
	C579.535889,128.348816 583.415588,115.900139 587.132935,103.403694 
	C588.609192,98.440742 587.936829,97.708595 582.804260,97.201263 
	C564.508057,95.392784 549.375366,102.100838 536.225830,114.284210 
	C533.473816,116.834045 530.671326,119.329384 527.892090,121.849838 
	C527.530334,121.609161 527.168640,121.368492 526.806885,121.127823 
	C528.825256,114.632805 530.843628,108.137787 532.943115,101.381859 
	C531.307190,101.139481 530.015625,100.786781 528.722717,100.781746 
	C517.097229,100.736465 505.471466,100.751572 493.845795,100.750320 
	C484.166016,100.749283 484.166962,100.750473 480.700043,109.595421 
	C480.518921,110.057465 480.247711,110.488686 480.104340,110.960365 
	C471.168182,140.357880 462.253326,169.761871 453.307068,199.156311 
	C449.522064,211.592651 445.672668,224.009415 441.787659,236.646225 
	C443.486267,237.090790 444.756622,237.718246 446.022583,237.709442 
	C460.317932,237.610123 474.614227,237.475723 488.904297,237.115463 
	C489.966370,237.088669 491.543701,235.434158 491.932861,234.229813 
	C495.435455,223.389923 498.725800,212.481445 502.284607,200.812790 
M276.796356,219.192352 
	C274.995911,224.922470 273.195465,230.652603 270.985779,237.685196 
	C287.037140,237.685196 301.806641,237.750793 316.574585,237.627548 
	C319.389130,237.604065 321.164337,236.132141 322.098297,232.986252 
	C329.252228,208.889603 336.578857,184.843521 343.979919,160.821182 
	C354.441956,126.863449 365.022339,92.942177 375.507965,58.991692 
	C375.927643,57.632832 375.894470,56.134121 376.111816,54.382236 
	C361.011475,54.382236 346.377197,54.350040 331.743225,54.406620 
	C328.407593,54.419518 326.698212,56.010841 325.636871,59.526661 
	C316.987610,88.179245 308.009369,116.732292 299.214844,145.341324 
	C291.734222,169.676132 284.364655,194.045059 276.796356,219.192352 
z"/>
<path fill="#080804" opacity="1.000000" stroke="none" 
	d="
M481.000122,265.746460 
	C760.691650,265.746460 1039.883179,265.746460 1319.074707,265.746460 
	C1303.876221,273.658417 1297.824829,287.511688 1293.038696,302.240234 
	C1286.649780,321.900970 1280.292358,341.572540 1274.075562,361.288055 
	C1273.118042,364.324768 1271.690796,365.321716 1268.479004,365.331116 
	C1214.832642,365.487946 1161.186890,365.955444 1107.540771,366.009888 
	C947.896362,366.171875 788.251770,366.141205 628.607361,366.265656 
	C473.297882,366.386749 317.988434,366.611420 162.678986,366.778656 
	C134.059937,366.809448 105.440819,366.783051 76.119286,366.783051 
	C81.663879,362.042480 87.725433,358.876526 90.680801,353.875122 
	C95.485077,345.744690 98.712090,336.568726 101.791168,327.556122 
	C108.146820,308.952850 114.056488,290.194672 119.934998,271.432953 
	C121.214371,267.349731 123.078217,265.865662 127.597290,265.875793 
	C184.076935,266.002563 240.557144,265.859100 297.037231,265.819305 
	C358.191528,265.776184 419.345825,265.769196 481.000122,265.746460 
M614.006226,329.512573 
	C612.311218,335.083160 610.616211,340.653748 608.684875,347.001221 
	C615.344910,347.001221 620.825378,346.610168 626.221252,347.118134 
	C631.015076,347.569397 632.839478,345.593719 634.177063,341.309174 
	C638.264343,328.216797 642.778259,315.257904 647.101807,302.238953 
	C649.147766,296.078033 651.138062,289.898621 653.463013,282.780151 
	C642.656677,282.780151 633.182495,283.086487 623.741272,282.662262 
	C618.305237,282.417969 615.367310,284.272278 613.071350,289.234070 
	C608.746155,298.581268 603.673828,307.582764 598.912048,316.727966 
	C598.410767,316.584930 597.909485,316.441925 597.408203,316.298889 
	C598.912598,305.344360 600.416992,294.389801 601.962158,283.138000 
	C588.772095,283.138000 576.677063,283.138000 564.620850,283.138000 
	C557.573120,304.433960 550.636230,325.394745 543.415466,347.213440 
	C550.211182,347.213440 556.019104,347.079559 561.817383,347.258301 
	C566.015625,347.387726 568.231201,345.432678 569.384155,341.576355 
	C570.804810,336.824738 572.452393,332.140717 574.014893,327.431793 
	C576.253113,320.686707 578.503052,313.945557 580.748047,307.202728 
	C581.301147,307.314209 581.854248,307.425690 582.407349,307.537170 
	C581.488586,316.328430 580.440247,325.108459 579.679932,333.913422 
	C578.372498,349.054260 575.324951,347.025055 591.705017,347.150299 
	C595.991150,347.183075 598.295959,345.575409 600.234253,341.949036 
	C606.012878,331.137238 612.080688,320.479675 618.065613,309.778748 
	C618.648987,308.735718 619.440613,307.809174 620.135620,306.828583 
	C620.547180,307.016907 620.958740,307.205231 621.370300,307.393524 
	C618.965576,314.505341 616.560852,321.617157 614.006226,329.512573 
M1017.760803,291.228821 
	C1014.914429,299.564362 1012.067993,307.899933 1009.221619,316.235474 
	C1008.738098,316.196259 1008.254639,316.157043 1007.771179,316.117828 
	C1006.510315,306.826355 1005.119873,297.549652 1004.057739,288.235504 
	C1003.679443,284.918823 1002.757080,282.889648 999.026367,282.922363 
	C991.864563,282.985229 984.700623,282.948792 977.539062,282.848785 
	C973.652283,282.794556 972.002625,285.023102 971.030823,288.399536 
	C969.483032,293.776886 967.841003,299.131805 966.062622,304.437164 
	C961.863464,316.964966 957.535950,329.449646 953.316467,341.970673 
	C952.231689,345.189575 953.148193,347.148834 956.933289,347.120514 
	C961.762756,347.084320 966.596680,347.057037 971.421936,347.223022 
	C974.977356,347.345398 976.910645,345.750885 977.974976,342.437988 
	C980.551575,334.418060 983.284546,326.448151 985.986206,318.468811 
	C986.532593,316.855255 987.219238,315.289124 988.246643,312.665955 
	C989.189575,314.660217 989.795227,315.449738 989.935852,316.314819 
	C991.346680,324.991608 992.791138,333.665741 993.979858,342.374237 
	C994.420044,345.598846 995.692017,347.116760 999.070618,347.047150 
	C1005.560242,346.913452 1012.055115,346.961853 1018.546814,347.028870 
	C1022.486938,347.069550 1024.538208,345.042542 1025.718018,341.445160 
	C1031.021606,325.274048 1036.468994,309.150116 1041.783569,292.982574 
	C1042.794922,289.906067 1043.441162,286.709595 1044.460205,282.780609 
	C1038.536499,282.780609 1033.396973,282.776855 1028.257446,282.781464 
	C1020.302856,282.788605 1020.302856,282.791046 1017.760803,291.228821 
M175.768341,347.995239 
	C183.548538,348.329773 191.350784,349.200317 199.104095,348.881287 
	C212.939240,348.312042 223.955063,342.281586 231.070419,330.038727 
	C232.421768,327.713623 233.437500,325.193451 235.082001,321.779358 
	C228.475128,321.779358 223.149475,322.057251 217.865128,321.708771 
	C211.311142,321.276550 205.539032,321.744629 203.186691,329.273376 
	C202.954285,330.017212 202.276321,330.677002 201.678787,331.242157 
	C198.930954,333.841125 195.888519,336.055511 191.923676,334.318939 
	C187.728622,332.481567 187.452484,328.386932 188.456345,324.923859 
	C190.566544,317.644104 193.278046,310.521271 196.094009,303.474335 
	C196.912125,301.426971 198.590408,298.942657 200.457153,298.265747 
	C203.814911,297.048248 207.652466,296.603363 211.193344,296.918152 
	C211.880096,296.979218 212.770370,302.070374 212.415100,304.684784 
	C211.968658,307.970093 213.612732,307.974487 215.749863,308.001038 
	C222.743576,308.087891 229.743927,308.324371 236.726044,308.071198 
	C238.067947,308.022583 240.091400,306.249634 240.520340,304.873230 
	C243.294769,295.970490 239.415863,287.639282 230.574173,284.224365 
	C226.484055,282.644592 221.935074,282.043091 217.532120,281.523987 
	C206.087265,280.174591 194.910599,281.558929 184.700516,287.059357 
	C170.508850,294.704803 164.673111,308.414154 161.129578,322.957642 
	C157.838684,336.464111 162.049606,343.041290 175.768341,347.995239 
M827.641846,306.778046 
	C819.462402,306.778046 811.283020,306.778046 802.975464,306.778046 
	C803.563354,300.409821 805.913757,298.462555 811.150330,298.618439 
	C819.779602,298.875275 828.436829,298.298706 837.077209,297.948090 
	C838.226135,297.901459 840.068115,297.396820 840.357910,296.635529 
	C841.956665,292.436035 843.173279,288.091034 844.770630,282.999908 
	C824.322510,282.999908 805.196960,282.952820 786.073486,283.131134 
	C785.055603,283.140594 783.541382,284.877411 783.124451,286.104431 
	C777.276428,303.314789 771.555054,320.568359 765.870178,337.833618 
	C764.975281,340.551422 764.411621,343.378296 763.647827,346.336487 
	C765.128113,346.692444 765.751038,346.972321 766.374329,346.973206 
	C784.528076,346.998779 802.681946,347.025360 820.835205,346.931183 
	C821.996521,346.925171 823.833008,346.235931 824.195740,345.375580 
	C825.925354,341.273376 827.253967,337.002106 829.214417,331.390747 
	C816.743469,331.390747 806.027222,331.390747 795.274414,331.390747 
	C795.716797,323.661713 796.811646,322.398804 803.044312,322.254028 
	C810.868530,322.072296 818.698425,322.131500 826.522644,321.949982 
	C827.677490,321.923248 829.528564,321.435303 829.842041,320.665619 
	C831.596619,316.358490 832.977783,311.899261 834.730835,306.778137 
	C831.841919,306.778137 830.199951,306.778137 827.641846,306.778046 
M356.092621,342.546448 
	C354.335052,346.413513 356.502869,346.995697 359.680450,347.003174 
	C377.160553,347.044373 394.640564,347.175476 412.120483,347.161682 
	C413.406097,347.160675 415.461700,346.597107 415.844910,345.720490 
	C417.657501,341.574188 419.012909,337.227997 420.997070,331.641663 
	C408.756409,331.641663 397.902557,331.641663 386.988373,331.641663 
	C387.666199,323.229309 388.626495,322.279694 395.423798,322.220154 
	C401.081635,322.170593 406.738892,322.035614 412.396729,322.011383 
	C420.928986,321.974854 420.929108,322.001862 424.274109,313.861481 
	C426.699890,307.958038 426.144104,307.074219 419.629852,307.021362 
	C411.499603,306.955353 403.368439,307.005493 395.222076,307.005493 
	C395.591003,299.751190 396.268188,299.095306 402.424133,298.958282 
	C411.229736,298.762268 420.034424,298.503448 428.836212,298.182037 
	C429.881958,298.143860 431.585205,297.806641 431.832916,297.164276 
	C433.554565,292.699493 434.972076,288.117371 436.656311,283.065430 
	C418.271606,283.065430 401.135803,283.051697 384.000092,283.087463 
	C382.348328,283.090881 380.468994,282.964569 379.102203,283.678070 
	C377.292053,284.622955 375.026093,286.041412 374.433502,287.764496 
	C368.255585,305.727905 362.374054,323.793274 356.092621,342.546448 
M1169.781494,342.342621 
	C1167.925049,345.632721 1169.252319,346.946350 1172.656128,346.992615 
	C1177.817627,347.062775 1182.985229,347.012878 1188.138306,347.262573 
	C1192.403198,347.469238 1194.768311,345.904266 1196.069092,341.614868 
	C1199.138550,331.493439 1202.693115,321.519470 1206.023315,311.476532 
	C1210.126953,299.101196 1210.114624,299.099884 1223.385742,298.954865 
	C1224.549683,298.942139 1225.828125,299.147949 1226.847534,298.739044 
	C1228.131226,298.224213 1229.795532,297.429413 1230.260254,296.321289 
	C1231.942017,292.309845 1233.190308,288.116577 1234.817139,283.363953 
	C1232.354492,283.224487 1230.738159,283.062469 1229.120850,283.052216 
	C1212.630371,282.947662 1196.139648,282.766571 1179.649414,282.815277 
	C1167.878174,282.850037 1170.311401,281.365021 1166.774292,292.585510 
	C1165.010132,298.181915 1165.620239,298.887787 1171.515381,298.967682 
	C1175.635254,299.023529 1179.754150,299.151978 1184.010254,299.251190 
	C1179.038452,314.246521 1174.512329,327.897858 1169.781494,342.342621 
z"/>
<path fill="#080804" opacity="1.000000" stroke="none" 
	d="
M104.028336,195.329697 
	C110.434029,172.107956 116.641487,149.299744 123.247101,126.607407 
	C129.336548,105.688263 135.893005,84.905403 142.148621,64.033989 
	C143.382126,59.918518 145.257645,57.757507 150.135849,57.873970 
	C164.450317,58.215706 178.778336,57.984043 193.100998,58.001366 
	C194.573059,58.003143 196.044937,58.169106 198.693573,58.330650 
	C197.051819,64.215347 195.649170,69.692375 193.996399,75.092842 
	C184.614807,105.747185 175.130630,136.370193 165.787659,167.036240 
	C163.870026,173.330444 161.858582,179.677368 160.850250,186.149521 
	C159.049652,197.707108 164.690048,204.541412 176.280792,205.913574 
	C195.133942,208.145477 211.073318,196.888947 216.505402,178.510483 
	C223.628693,154.410034 231.435883,130.512131 238.894791,106.510307 
	C243.556778,91.508568 248.068878,76.459953 252.810608,61.483788 
	C253.243118,60.117802 254.848633,58.125412 255.930420,58.111973 
	C273.069427,57.898983 290.211884,57.962212 308.279449,57.962212 
	C305.923309,65.897034 303.803497,73.267899 301.546661,80.596573 
	C291.379456,113.612968 281.563263,146.744690 270.842285,179.580750 
	C263.863586,200.954910 251.963654,219.053391 231.378265,230.125351 
	C218.443237,237.082520 204.407013,240.476257 190.023361,241.637619 
	C171.301514,243.149277 152.459091,243.421478 133.984283,238.947250 
	C119.007278,235.320114 107.158577,227.915405 104.515167,211.231873 
	C103.715599,206.185501 104.139977,200.945206 104.028336,195.329697 
z"/>
<path fill="#080804" opacity="1.000000" stroke="none" 
	d="
M1196.285156,153.403534 
	C1191.461914,167.853638 1186.719849,181.944504 1182.219482,196.112106 
	C1178.264526,208.562088 1174.628540,221.113205 1170.707397,233.574295 
	C1170.281982,234.926315 1169.002686,236.912857 1167.947632,237.027893 
	C1152.222656,238.742126 1136.494629,238.242859 1120.159424,237.236191 
	C1123.604614,225.854843 1126.779175,215.274902 1130.010010,204.712204 
	C1138.323242,177.533432 1146.637451,150.354935 1154.997681,123.190552 
	C1160.975098,103.768158 1166.858032,84.314041 1173.111816,64.980377 
	C1176.623779,54.123207 1176.924438,54.220474 1188.244873,54.220482 
	C1198.742920,54.220486 1209.240967,54.207466 1219.739014,54.225830 
	C1225.249268,54.235470 1225.661133,54.789268 1224.077637,59.913170 
	C1218.761597,77.114914 1213.431030,94.312210 1208.138184,111.521126 
	C1207.954834,112.117203 1208.114868,112.818886 1208.114868,114.429794 
	C1209.793701,113.208389 1211.006836,112.328629 1212.217041,111.444847 
	C1230.269775,98.261688 1250.235474,93.635567 1271.989136,99.105293 
	C1286.524170,102.759995 1293.836304,113.963448 1291.296631,128.765976 
	C1289.544434,138.980133 1286.706543,149.052902 1283.735474,159.004257 
	C1276.264648,184.027100 1268.386963,208.928253 1260.830078,233.925827 
	C1259.822998,237.257126 1257.663696,237.795547 1254.878418,237.798782 
	C1240.427856,237.815613 1225.977295,237.806610 1210.576904,237.806610 
	C1211.273071,234.605957 1211.593140,232.411942 1212.230347,230.314194 
	C1220.253052,203.901947 1228.567017,177.574921 1236.265747,151.069046 
	C1239.652100,139.410126 1232.846680,132.971832 1220.716431,134.688019 
	C1209.039795,136.340042 1201.598999,143.055984 1196.285156,153.403534 
z"/>
<path fill="#080804" opacity="1.000000" stroke="none" 
	d="
M621.879639,101.862541 
	C633.243530,100.185173 644.167725,97.733055 655.183472,97.209999 
	C669.911255,96.510696 684.834106,95.823601 699.299500,100.012756 
	C716.013184,104.852997 722.004089,111.670074 721.606812,128.181396 
	C721.469849,133.872177 719.849426,139.638351 718.208435,145.162704 
	C710.915527,169.714569 703.261108,194.159470 696.061279,218.737930 
	C695.225098,221.592148 695.828369,225.216827 696.762268,228.168533 
	C698.753052,234.460373 696.951294,237.757095 690.366821,237.888809 
	C678.378479,238.128662 666.385681,238.166916 654.394531,238.244446 
	C648.319580,238.283722 646.489502,236.453629 646.410400,230.352890 
	C646.393677,229.061295 646.592407,227.766937 646.775696,225.384171 
	C644.548340,226.508209 642.919556,227.074387 641.582703,228.043442 
	C623.404663,241.220032 602.751404,243.300873 581.297363,241.289459 
	C576.432068,240.833313 571.382812,239.807587 566.940674,237.855347 
	C554.810791,232.524490 549.799255,222.260803 552.231873,208.467529 
	C556.505676,184.235184 569.893188,167.302307 593.990234,161.082382 
	C608.334778,157.379776 623.346436,156.264343 638.056519,153.974838 
	C646.547363,152.653305 655.096252,151.607224 663.502197,149.871765 
	C669.096252,148.716827 674.774780,138.136917 672.784729,132.901337 
	C670.806519,127.697098 665.815918,126.375427 660.981689,126.114723 
	C646.888062,125.354683 634.014343,127.607292 626.812805,141.982819 
	C626.404236,142.798279 624.960999,143.555450 623.993958,143.562057 
	C609.407410,143.661880 594.820007,143.631287 579.252869,143.631287 
	C587.653564,122.693481 600.413208,108.115753 621.879639,101.862541 
M609.772400,189.398804 
	C608.640808,192.131119 607.204163,194.780762 606.436707,197.611786 
	C604.404663,205.108078 607.564209,209.459290 615.454285,209.966339 
	C619.915222,210.253021 624.430298,210.257660 628.888123,209.935043 
	C646.904724,208.631134 662.096619,191.185730 660.808289,173.167221 
	C650.888855,174.770004 640.978577,176.304367 631.093933,177.989334 
	C622.993774,179.370132 615.220276,181.509323 609.772400,189.398804 
z"/>
<path fill="#080804" opacity="1.000000" stroke="none" 
	d="
M913.000000,180.042526 
	C898.512512,180.112915 884.524658,180.148239 870.537598,180.268311 
	C863.403809,180.329544 863.019531,180.534515 861.826904,187.516724 
	C861.189453,191.248978 860.818970,195.156998 861.178040,198.904221 
	C862.145508,208.999664 871.653748,214.559357 883.704956,212.714767 
	C894.418396,211.074921 902.349304,205.568176 907.989014,196.411758 
	C908.841675,195.027435 910.474609,193.175262 911.769958,193.156555 
	C927.372742,192.931335 942.979919,193.010788 959.501404,193.010788 
	C955.139648,205.024384 948.156189,213.358704 939.615906,220.612015 
	C924.519775,233.433105 906.789673,239.292679 887.325195,241.133224 
	C871.815430,242.599792 856.452942,242.781738 841.443604,238.055679 
	C821.233704,231.692078 811.248596,218.880402 812.108215,197.813034 
	C814.053345,150.139267 840.050110,110.602608 885.747681,99.721001 
	C903.972351,95.381325 922.419617,95.319885 940.539368,99.663246 
	C964.186829,105.331619 974.814209,122.061378 971.690125,147.544968 
	C970.625244,156.231171 968.296875,164.756683 967.040527,173.427322 
	C966.257202,178.832840 963.093933,180.030518 958.470581,180.016815 
	C946.312073,179.980774 934.153320,180.028931 921.994629,180.042099 
	C919.163086,180.045166 916.331543,180.042526 913.000000,180.042526 
M917.579895,127.612427 
	C900.756226,122.125153 883.210083,127.789543 874.150146,147.850677 
	C872.219482,152.125687 872.738281,152.963043 877.637756,152.951508 
	C891.764221,152.918259 905.891357,152.728119 920.016479,152.830902 
	C923.376526,152.855347 925.038757,151.412170 925.549500,148.456345 
	C926.693970,141.832703 926.493286,132.180038 917.579895,127.612427 
z"/>
<path fill="#080804" opacity="1.000000" stroke="none" 
	d="
M786.579346,203.582977 
	C783.160034,214.692825 779.927917,225.447586 776.679077,236.258087 
	C769.740967,238.561737 727.229736,238.722290 721.832214,236.340164 
	C735.881531,190.522186 749.939087,144.677292 764.436951,97.396545 
	C746.621704,97.396545 730.416565,97.396545 713.415771,97.396545 
	C717.680115,83.581459 721.566162,70.991898 725.513733,58.203190 
	C777.193909,58.203190 828.946838,58.203190 881.423828,58.203190 
	C881.071716,60.460773 881.001038,62.237926 880.503906,63.886482 
	C877.403931,74.165665 874.304138,84.447884 870.912903,94.632072 
	C870.528992,95.784973 868.347229,97.012405 866.963257,97.055634 
	C852.162354,97.517914 837.354126,97.749519 822.547852,98.039925 
	C821.555969,98.059387 820.563354,98.042465 819.109253,98.042465 
	C808.319397,133.133484 797.543030,168.180695 786.579346,203.582977 
z"/>
<path fill="#080804" opacity="1.000000" stroke="none" 
	d="
M1073.014771,96.917648 
	C1085.237671,97.924515 1097.101685,98.129547 1108.656738,100.124626 
	C1126.282227,103.167839 1137.596313,115.023109 1136.929321,133.986206 
	C1136.703369,140.408035 1135.853638,146.807922 1135.278809,153.334412 
	C1118.467651,153.334412 1102.443481,153.334412 1085.832886,153.334412 
	C1086.187988,150.690186 1086.400269,148.765060 1086.711060,146.855972 
	C1088.091675,138.375381 1083.804688,131.475403 1075.682739,130.178268 
	C1059.702393,127.626068 1046.003296,131.937714 1037.662476,147.901230 
	C1030.322632,161.948990 1024.837646,176.617493 1025.002441,192.825623 
	C1025.096191,202.046738 1030.139526,207.123566 1039.216919,208.063416 
	C1055.473633,209.746643 1066.531250,202.273468 1073.284180,188.322815 
	C1076.200317,182.298462 1079.685181,180.444412 1086.133423,180.799240 
	C1096.931030,181.393372 1107.784180,180.951202 1118.613281,181.026016 
	C1120.889648,181.041733 1123.163452,181.406921 1126.212402,181.680527 
	C1122.289307,192.129028 1117.592529,201.269699 1111.051636,209.400970 
	C1094.754395,229.661011 1073.100586,239.038040 1047.588013,241.152130 
	C1033.559082,242.314621 1019.703186,242.387741 1005.959534,239.141037 
	C978.281494,232.602570 970.613159,213.309708 973.352051,189.639252 
	C975.705444,169.300995 983.073059,150.443008 995.077942,133.692978 
	C1008.815552,114.525261 1028.000854,103.722961 1050.755859,99.108665 
	C1057.865601,97.666954 1065.255737,97.608940 1073.014771,96.917648 
z"/>
<path fill="#080804" opacity="1.000000" stroke="none" 
	d="
M382.434570,239.773834 
	C380.167938,239.501099 378.337646,239.335510 376.553436,238.954239 
	C362.666504,235.986725 359.134521,232.916061 360.692871,216.102020 
	C361.561310,206.731293 365.316956,197.595230 368.053009,188.437500 
	C373.340302,170.740677 378.827026,153.103424 384.493622,134.583496 
	C377.307831,134.583496 370.606293,134.583496 362.467072,134.583496 
	C366.056732,123.214737 369.212738,112.920959 372.674225,102.730942 
	C373.009979,101.742546 375.195984,100.953049 376.589844,100.830566 
	C381.713470,100.380363 386.889618,100.459763 391.990845,99.866043 
	C393.431183,99.698418 395.456207,98.169296 395.899567,96.829842 
	C399.480194,86.012314 402.830536,75.115646 406.064819,64.187981 
	C407.193481,60.374489 408.921722,58.709293 413.332367,58.823017 
	C427.447876,59.186954 441.578613,58.958160 457.056610,58.958160 
	C452.933350,72.992577 449.027100,86.288391 445.031708,99.887642 
	C451.924652,100.190865 458.035675,100.562996 464.151825,100.692528 
	C468.250580,100.779335 469.398834,102.338120 468.092133,106.315033 
	C465.515625,114.156380 463.505249,122.195107 460.638733,129.921448 
	C459.957886,131.756622 456.929565,133.588928 454.794037,133.841461 
	C449.866241,134.424118 444.822357,134.111786 439.828278,134.019119 
	C435.936859,133.946915 433.847382,134.880753 432.567596,139.409271 
	C427.583740,157.044724 421.859253,174.471420 416.375427,191.964859 
	C412.701965,203.683090 414.873993,206.686829 427.184113,206.748367 
	C430.317261,206.764023 433.450562,206.750717 437.170502,206.750717 
	C436.925476,208.970596 436.992554,210.612396 436.538208,212.094284 
	C434.455933,218.885483 431.815552,225.534775 430.191040,232.427231 
	C429.032135,237.343979 426.071442,238.754929 421.804260,238.947021 
	C414.331879,239.283386 406.856293,239.585800 399.378723,239.758362 
	C393.885986,239.885132 388.387909,239.781860 382.434570,239.773834 
z"/>
<path fill="#080804" opacity="1.000000" stroke="none" 
	d="
M502.181519,201.202942 
	C498.725800,212.481445 495.435455,223.389923 491.932861,234.229813 
	C491.543701,235.434158 489.966370,237.088669 488.904297,237.115463 
	C474.614227,237.475723 460.317932,237.610123 446.022583,237.709442 
	C444.756622,237.718246 443.486267,237.090790 441.787659,236.646225 
	C445.672668,224.009415 449.522064,211.592651 453.307068,199.156311 
	C462.253326,169.761871 471.168182,140.357880 480.104340,110.960365 
	C480.247711,110.488686 480.518921,110.057465 480.700043,109.595421 
	C484.166962,100.750473 484.166016,100.749283 493.845795,100.750320 
	C505.471466,100.751572 517.097229,100.736465 528.722717,100.781746 
	C530.015625,100.786781 531.307190,101.139481 532.943115,101.381859 
	C530.843628,108.137787 528.825256,114.632805 526.806885,121.127823 
	C527.168640,121.368492 527.530334,121.609161 527.892090,121.849838 
	C530.671326,119.329384 533.473816,116.834045 536.225830,114.284210 
	C549.375366,102.100838 564.508057,95.392784 582.804260,97.201263 
	C587.936829,97.708595 588.609192,98.440742 587.132935,103.403694 
	C583.415588,115.900139 579.535889,128.348816 575.896301,140.867508 
	C574.720703,144.911026 571.937927,144.201660 569.160889,143.674759 
	C560.247192,141.983490 551.334473,141.698593 542.522644,144.049316 
	C526.829407,148.235809 515.926025,157.672668 510.969238,173.452881 
	C508.101807,182.581467 505.181244,191.693375 502.181519,201.202942 
z"/>
<path fill="#090904" opacity="1.000000" stroke="none" 
	d="
M276.871155,218.795624 
	C284.364655,194.045059 291.734222,169.676132 299.214844,145.341324 
	C308.009369,116.732292 316.987610,88.179245 325.636871,59.526661 
	C326.698212,56.010841 328.407593,54.419518 331.743225,54.406620 
	C346.377197,54.350040 361.011475,54.382236 376.111816,54.382236 
	C375.894470,56.134121 375.927643,57.632832 375.507965,58.991692 
	C365.022339,92.942177 354.441956,126.863449 343.979919,160.821182 
	C336.578857,184.843521 329.252228,208.889603 322.098297,232.986252 
	C321.164337,236.132141 319.389130,237.604065 316.574585,237.627548 
	C301.806641,237.750793 287.037140,237.685196 270.985779,237.685196 
	C273.195465,230.652603 274.995911,224.922470 276.871155,218.795624 
z"/>
<path fill="#F9F11C" opacity="1.000000" stroke="none" 
	d="
M614.081177,329.120758 
	C616.560852,321.617157 618.965576,314.505341 621.370300,307.393524 
	C620.958740,307.205231 620.547180,307.016907 620.135620,306.828583 
	C619.440613,307.809174 618.648987,308.735718 618.065613,309.778748 
	C612.080688,320.479675 606.012878,331.137238 600.234253,341.949036 
	C598.295959,345.575409 595.991150,347.183075 591.705017,347.150299 
	C575.324951,347.025055 578.372498,349.054260 579.679932,333.913422 
	C580.440247,325.108459 581.488586,316.328430 582.407349,307.537170 
	C581.854248,307.425690 581.301147,307.314209 580.748047,307.202728 
	C578.503052,313.945557 576.253113,320.686707 574.014893,327.431793 
	C572.452393,332.140717 570.804810,336.824738 569.384155,341.576355 
	C568.231201,345.432678 566.015625,347.387726 561.817383,347.258301 
	C556.019104,347.079559 550.211182,347.213440 543.415466,347.213440 
	C550.636230,325.394745 557.573120,304.433960 564.620850,283.138000 
	C576.677063,283.138000 588.772095,283.138000 601.962158,283.138000 
	C600.416992,294.389801 598.912598,305.344360 597.408203,316.298889 
	C597.909485,316.441925 598.410767,316.584930 598.912048,316.727966 
	C603.673828,307.582764 608.746155,298.581268 613.071350,289.234070 
	C615.367310,284.272278 618.305237,282.417969 623.741272,282.662262 
	C633.182495,283.086487 642.656677,282.780151 653.463013,282.780151 
	C651.138062,289.898621 649.147766,296.078033 647.101807,302.238953 
	C642.778259,315.257904 638.264343,328.216797 634.177063,341.309174 
	C632.839478,345.593719 631.015076,347.569397 626.221252,347.118134 
	C620.825378,346.610168 615.344910,347.001221 608.684875,347.001221 
	C610.616211,340.653748 612.311218,335.083160 614.081177,329.120758 
z"/>
<path fill="#F9F21C" opacity="1.000000" stroke="none" 
	d="
M1017.874268,290.844147 
	C1020.302856,282.791046 1020.302856,282.788605 1028.257446,282.781464 
	C1033.396973,282.776855 1038.536499,282.780609 1044.460205,282.780609 
	C1043.441162,286.709595 1042.794922,289.906067 1041.783569,292.982574 
	C1036.468994,309.150116 1031.021606,325.274048 1025.718018,341.445160 
	C1024.538208,345.042542 1022.486938,347.069550 1018.546814,347.028870 
	C1012.055115,346.961853 1005.560242,346.913452 999.070618,347.047150 
	C995.692017,347.116760 994.420044,345.598846 993.979858,342.374237 
	C992.791138,333.665741 991.346680,324.991608 989.935852,316.314819 
	C989.795227,315.449738 989.189575,314.660217 988.246643,312.665955 
	C987.219238,315.289124 986.532593,316.855255 985.986206,318.468811 
	C983.284546,326.448151 980.551575,334.418060 977.974976,342.437988 
	C976.910645,345.750885 974.977356,347.345398 971.421936,347.223022 
	C966.596680,347.057037 961.762756,347.084320 956.933289,347.120514 
	C953.148193,347.148834 952.231689,345.189575 953.316467,341.970673 
	C957.535950,329.449646 961.863464,316.964966 966.062622,304.437164 
	C967.841003,299.131805 969.483032,293.776886 971.030823,288.399536 
	C972.002625,285.023102 973.652283,282.794556 977.539062,282.848785 
	C984.700623,282.948792 991.864563,282.985229 999.026367,282.922363 
	C1002.757080,282.889648 1003.679443,284.918823 1004.057739,288.235504 
	C1005.119873,297.549652 1006.510315,306.826355 1007.771179,316.117828 
	C1008.254639,316.157043 1008.738098,316.196259 1009.221619,316.235474 
	C1012.067993,307.899933 1014.914429,299.564362 1017.874268,290.844147 
z"/>
<path fill="#F9F11C" opacity="1.000000" stroke="none" 
	d="
M175.355316,347.943848 
	C162.049606,343.041290 157.838684,336.464111 161.129578,322.957642 
	C164.673111,308.414154 170.508850,294.704803 184.700516,287.059357 
	C194.910599,281.558929 206.087265,280.174591 217.532120,281.523987 
	C221.935074,282.043091 226.484055,282.644592 230.574173,284.224365 
	C239.415863,287.639282 243.294769,295.970490 240.520340,304.873230 
	C240.091400,306.249634 238.067947,308.022583 236.726044,308.071198 
	C229.743927,308.324371 222.743576,308.087891 215.749863,308.001038 
	C213.612732,307.974487 211.968658,307.970093 212.415100,304.684784 
	C212.770370,302.070374 211.880096,296.979218 211.193344,296.918152 
	C207.652466,296.603363 203.814911,297.048248 200.457153,298.265747 
	C198.590408,298.942657 196.912125,301.426971 196.094009,303.474335 
	C193.278046,310.521271 190.566544,317.644104 188.456345,324.923859 
	C187.452484,328.386932 187.728622,332.481567 191.923676,334.318939 
	C195.888519,336.055511 198.930954,333.841125 201.678787,331.242157 
	C202.276321,330.677002 202.954285,330.017212 203.186691,329.273376 
	C205.539032,321.744629 211.311142,321.276550 217.865128,321.708771 
	C223.149475,322.057251 228.475128,321.779358 235.082001,321.779358 
	C233.437500,325.193451 232.421768,327.713623 231.070419,330.038727 
	C223.955063,342.281586 212.939240,348.312042 199.104095,348.881287 
	C191.350784,349.200317 183.548538,348.329773 175.355316,347.943848 
z"/>
<path fill="#F9F11C" opacity="1.000000" stroke="none" 
	d="
M828.099915,306.778076 
	C830.199951,306.778137 831.841919,306.778137 834.730835,306.778137 
	C832.977783,311.899261 831.596619,316.358490 829.842041,320.665619 
	C829.528564,321.435303 827.677490,321.923248 826.522644,321.949982 
	C818.698425,322.131500 810.868530,322.072296 803.044312,322.254028 
	C796.811646,322.398804 795.716797,323.661713 795.274414,331.390747 
	C806.027222,331.390747 816.743469,331.390747 829.214417,331.390747 
	C827.253967,337.002106 825.925354,341.273376 824.195740,345.375580 
	C823.833008,346.235931 821.996521,346.925171 820.835205,346.931183 
	C802.681946,347.025360 784.528076,346.998779 766.374329,346.973206 
	C765.751038,346.972321 765.128113,346.692444 763.647827,346.336487 
	C764.411621,343.378296 764.975281,340.551422 765.870178,337.833618 
	C771.555054,320.568359 777.276428,303.314789 783.124451,286.104431 
	C783.541382,284.877411 785.055603,283.140594 786.073486,283.131134 
	C805.196960,282.952820 824.322510,282.999908 844.770630,282.999908 
	C843.173279,288.091034 841.956665,292.436035 840.357910,296.635529 
	C840.068115,297.396820 838.226135,297.901459 837.077209,297.948090 
	C828.436829,298.298706 819.779602,298.875275 811.150330,298.618439 
	C805.913757,298.462555 803.563354,300.409821 802.975464,306.778046 
	C811.283020,306.778046 819.462402,306.778046 828.099915,306.778076 
z"/>
<path fill="#F9F11C" opacity="1.000000" stroke="none" 
	d="
M356.251465,342.188416 
	C362.374054,323.793274 368.255585,305.727905 374.433502,287.764496 
	C375.026093,286.041412 377.292053,284.622955 379.102203,283.678070 
	C380.468994,282.964569 382.348328,283.090881 384.000092,283.087463 
	C401.135803,283.051697 418.271606,283.065430 436.656311,283.065430 
	C434.972076,288.117371 433.554565,292.699493 431.832916,297.164276 
	C431.585205,297.806641 429.881958,298.143860 428.836212,298.182037 
	C420.034424,298.503448 411.229736,298.762268 402.424133,298.958282 
	C396.268188,299.095306 395.591003,299.751190 395.222076,307.005493 
	C403.368439,307.005493 411.499603,306.955353 419.629852,307.021362 
	C426.144104,307.074219 426.699890,307.958038 424.274109,313.861481 
	C420.929108,322.001862 420.928986,321.974854 412.396729,322.011383 
	C406.738892,322.035614 401.081635,322.170593 395.423798,322.220154 
	C388.626495,322.279694 387.666199,323.229309 386.988373,331.641663 
	C397.902557,331.641663 408.756409,331.641663 420.997070,331.641663 
	C419.012909,337.227997 417.657501,341.574188 415.844910,345.720490 
	C415.461700,346.597107 413.406097,347.160675 412.120483,347.161682 
	C394.640564,347.175476 377.160553,347.044373 359.680450,347.003174 
	C356.502869,346.995697 354.335052,346.413513 356.251465,342.188416 
z"/>
<path fill="#FAF21C" opacity="1.000000" stroke="none" 
	d="
M1169.883789,341.945923 
	C1174.512329,327.897858 1179.038452,314.246521 1184.010254,299.251190 
	C1179.754150,299.151978 1175.635254,299.023529 1171.515381,298.967682 
	C1165.620239,298.887787 1165.010132,298.181915 1166.774292,292.585510 
	C1170.311401,281.365021 1167.878174,282.850037 1179.649414,282.815277 
	C1196.139648,282.766571 1212.630371,282.947662 1229.120850,283.052216 
	C1230.738159,283.062469 1232.354492,283.224487 1234.817139,283.363953 
	C1233.190308,288.116577 1231.942017,292.309845 1230.260254,296.321289 
	C1229.795532,297.429413 1228.131226,298.224213 1226.847534,298.739044 
	C1225.828125,299.147949 1224.549683,298.942139 1223.385742,298.954865 
	C1210.114624,299.099884 1210.126953,299.101196 1206.023315,311.476532 
	C1202.693115,321.519470 1199.138550,331.493439 1196.069092,341.614868 
	C1194.768311,345.904266 1192.403198,347.469238 1188.138306,347.262573 
	C1182.985229,347.012878 1177.817627,347.062775 1172.656128,346.992615 
	C1169.252319,346.946350 1167.925049,345.632721 1169.883789,341.945923 
z"/>
<path fill="#F9F11C" opacity="1.000000" stroke="none" 
	d="
M609.920166,189.059723 
	C615.220276,181.509323 622.993774,179.370132 631.093933,177.989334 
	C640.978577,176.304367 650.888855,174.770004 660.808289,173.167221 
	C662.096619,191.185730 646.904724,208.631134 628.888123,209.935043 
	C624.430298,210.257660 619.915222,210.253021 615.454285,209.966339 
	C607.564209,209.459290 604.404663,205.108078 606.436707,197.611786 
	C607.204163,194.780762 608.640808,192.131119 609.920166,189.059723 
z"/>
<path fill="#F8F01C" opacity="1.000000" stroke="none" 
	d="
M917.926880,127.786514 
	C926.493286,132.180038 926.693970,141.832703 925.549500,148.456345 
	C925.038757,151.412170 923.376526,152.855347 920.016479,152.830902 
	C905.891357,152.728119 891.764221,152.918259 877.637756,152.951508 
	C872.738281,152.963043 872.219482,152.125687 874.150146,147.850677 
	C883.210083,127.789543 900.756226,122.125153 917.926880,127.786514 
z"/>
</svg>