<svg version="1.2" xmlns="http://www.w3.org/2000/svg" viewBox="0 0 1551 1568" width="1551" height="1568">
	<title>UPL</title>
	<defs>
		<linearGradient id="g1" x2="1" gradientUnits="userSpaceOnUse" gradientTransform="matrix(1255.877,759.644,-743.159,1228.623,118.151,448.577)">
			<stop offset="0" stop-color="#db72ab"/>
			<stop offset=".481" stop-color="#f8a780"/>
			<stop offset=".822" stop-color="#fdc25a"/>
			<stop offset=".998" stop-color="#f79a5c"/>
		</linearGradient>
		<linearGradient id="g2" x2="1" gradientUnits="userSpaceOnUse" gradientTransform="matrix(380.024,-479.747,143.229,113.456,1008.134,1543.384)">
			<stop offset=".015" stop-color="#f27321"/>
			<stop offset=".515" stop-color="#fcbf10"/>
			<stop offset=".993" stop-color="#ffd898"/>
		</linearGradient>
		<linearGradient id="g3" x2="1" gradientUnits="userSpaceOnUse" gradientTransform="matrix(-781.361,839.779,-290.159,-269.975,804.714,17.924)">
			<stop offset=".028" stop-color="#f5906b"/>
			<stop offset=".264" stop-color="#f17895"/>
			<stop offset=".993" stop-color="#f3807c"/>
		</linearGradient>
		<linearGradient id="g4" x2="1" gradientUnits="userSpaceOnUse" gradientTransform="matrix(-890.717,1108.852,-1023.295,-821.991,1237.931,302.322)">
			<stop offset=".003" stop-color="#ffe273" stop-opacity=".5"/>
			<stop offset=".412" stop-color="#fde241" stop-opacity="1"/>
			<stop offset=".75" stop-color="#f58a5d" stop-opacity="1"/>
			<stop offset="1" stop-color="#f3806f" stop-opacity="1"/>
		</linearGradient>
		<linearGradient id="g5" x2="1" gradientUnits="userSpaceOnUse" gradientTransform="matrix(113.99,834.406,-204.525,27.941,1267.153,308.135)">
			<stop offset=".025" stop-color="#fdbe39"/>
			<stop offset=".488" stop-color="#ffdc78"/>
			<stop offset="1" stop-color="#ffcf56"/>
		</linearGradient>
		<linearGradient id="g6" x2="1" gradientUnits="userSpaceOnUse" gradientTransform="matrix(551.699,612.478,-138.189,124.476,86.765,976.912)">
			<stop offset="0" stop-color="#f16a2a"/>
			<stop offset=".473" stop-color="#f47e31"/>
			<stop offset="1" stop-color="#f89d31"/>
		</linearGradient>
		<linearGradient id="g7" x2="1" gradientUnits="userSpaceOnUse" gradientTransform="matrix(753.037,-40.162,9.085,170.344,402.812,246.336)">
			<stop offset=".023" stop-color="#f0572e"/>
			<stop offset=".995" stop-color="#f37d32"/>
		</linearGradient>
		<linearGradient id="g8" x2="1" gradientUnits="userSpaceOnUse" gradientTransform="matrix(553.88,-322.209,64.865,111.503,766.401,1517.028)">
			<stop offset="0" stop-color="#f48438"/>
			<stop offset=".484" stop-color="#f79b37"/>
			<stop offset=".992" stop-color="#fcb734"/>
		</linearGradient>
		<linearGradient id="g9" x2="1" gradientUnits="userSpaceOnUse" gradientTransform="matrix(197.054,-316.883,64.133,39.881,1218.837,1213.817)">
			<stop offset="0" stop-color="#f89e1c"/>
			<stop offset=".992" stop-color="#faab18"/>
		</linearGradient>
		<linearGradient id="g10" x2="1" gradientUnits="userSpaceOnUse" gradientTransform="matrix(866.992,800.833,-925.506,1001.964,333.125,453.47)">
			<stop offset="0" stop-color="#f0592f"/>
			<stop offset=".398" stop-color="#f37b33"/>
			<stop offset=".994" stop-color="#fdbc18"/>
		</linearGradient>
		<linearGradient id="g11" x2="1" gradientUnits="userSpaceOnUse" gradientTransform="matrix(794.533,795.71,-874.276,872.983,367.622,417.857)">
			<stop offset="0" stop-color="#e93125"/>
			<stop offset=".425" stop-color="#f47f20"/>
			<stop offset=".697" stop-color="#f8a01b"/>
			<stop offset=".994" stop-color="#ffca36"/>
		</linearGradient>
		<linearGradient id="g12" x2="1" gradientUnits="userSpaceOnUse" gradientTransform="matrix(588.483,974.795,-1003.918,606.065,523.334,329.65)">
			<stop offset=".023" stop-color="#ef5323"/>
			<stop offset=".475" stop-color="#f89e1c"/>
			<stop offset=".987" stop-color="#ffd451"/>
		</linearGradient>
		<linearGradient id="g13" x2="1" gradientUnits="userSpaceOnUse" gradientTransform="matrix(403.141,946.063,-948.563,404.206,601.243,349.614)">
			<stop offset=".022" stop-color="#f5861f"/>
			<stop offset=".371" stop-color="#fbae17"/>
			<stop offset=".658" stop-color="#fcb614"/>
			<stop offset=".996" stop-color="#ffcc39"/>
		</linearGradient>
		<clipPath clipPathUnits="userSpaceOnUse" id="cp1">
			<path d="m815.94 329.2c-124.14-38.29-246.35 28.87-322.92 60.68-76.57 31.81-162.42 99.86-173.61 323.87-6.03 121.06 15.02 294.41 58.46 411.35 69.06 63.77 141.36 113.99 218.22 156.85 18.41 10.31 35.34 18.85 51.25 26.22 62.43 1.32 132.96-5.75 207.17-17.68 72.16-11.63 163.89-29.45 231.92-52.72 37.7-12.82 71.56-26.66 101.6-40.8 29.75-33.87 56.69-69.22 84.08-106.78 56.54-77.61 88.79-138.59 108.52-207.37-21.79-61.12-53.74-125.77-138.41-236.23-151.08-196.91-302.15-279.1-426.28-317.39z"/>
		</clipPath>
		<radialGradient id="g14" cx="0" cy="0" r="1" gradientUnits="userSpaceOnUse" gradientTransform="matrix(119.048,96.711,-96.711,119.048,488.16,1198.577)">
			<stop offset=".015" stop-color="#ffc730" stop-opacity="1"/>
			<stop offset="1" stop-color="#ffc733" stop-opacity="0"/>
		</radialGradient>
		<clipPath clipPathUnits="userSpaceOnUse" id="cp2">
			<path d="m815.94 329.2c-124.14-38.29-246.35 28.87-322.92 60.68-76.57 31.81-162.42 99.86-173.61 323.87-6.03 121.06 15.02 294.41 58.46 411.35 69.06 63.77 141.36 113.99 218.22 156.85 18.41 10.31 35.34 18.85 51.25 26.22 62.43 1.32 132.96-5.75 207.17-17.68 72.16-11.63 163.89-29.45 231.92-52.72 37.7-12.82 71.56-26.66 101.6-40.8 29.75-33.87 56.69-69.22 84.08-106.78 56.54-77.61 88.79-138.59 108.52-207.37-21.79-61.12-53.74-125.77-138.41-236.23-151.08-196.91-302.15-279.1-426.28-317.39z"/>
		</clipPath>
		<radialGradient id="g15" cx="0" cy="0" r="1" gradientUnits="userSpaceOnUse" gradientTransform="matrix(518.601,-196.165,196.165,518.601,551.241,530.613)">
			<stop offset="0" stop-color="#f16a22" stop-opacity="1"/>
			<stop offset=".236" stop-color="#f26e22" stop-opacity=".76"/>
			<stop offset=".451" stop-color="#f37920" stop-opacity=".55"/>
			<stop offset=".658" stop-color="#f68b1e" stop-opacity=".34"/>
			<stop offset=".86" stop-color="#faa51a" stop-opacity=".14"/>
			<stop offset="1" stop-color="#fdbc17" stop-opacity="0"/>
		</radialGradient>
		<linearGradient id="g16" x2="1" gradientUnits="userSpaceOnUse" gradientTransform="matrix(266.289,-194.39,30.374,41.608,1068.584,1316.613)">
			<stop offset="0" stop-color="#f9a31a"/>
			<stop offset=".992" stop-color="#faa919"/>
		</linearGradient>
		<linearGradient id="g17" x2="1" gradientUnits="userSpaceOnUse" gradientTransform="matrix(346.665,730.267,-656.881,311.828,660.283,490.79)">
			<stop offset=".023" stop-color="#fbaf17"/>
			<stop offset=".51" stop-color="#fcb614"/>
			<stop offset="1" stop-color="#ffc730"/>
		</linearGradient>
		<clipPath clipPathUnits="userSpaceOnUse" id="cp3">
			<path d="m918.13 430.82c-89.09-46.98-245.47 29.75-392.42 129.76-146.96 100.15-141.95 194.7-103.22 283.07 39.02 89.1 96.89 117.23 190.68 228.28 93.8 111.05 142.25 220.48 322.18 173.64 179.94-46.83 226.77-381.6 217.34-530.2-9.42-148.46-145.48-237.56-234.56-284.55z"/>
		</clipPath>
		<radialGradient id="g18" cx="0" cy="0" r="1" gradientUnits="userSpaceOnUse" gradientTransform="matrix(511.674,0,0,511.674,594.031,552.904)">
			<stop offset="0" stop-color="#f37c20" stop-opacity="1"/>
			<stop offset=".264" stop-color="#f4801f" stop-opacity=".74"/>
			<stop offset=".506" stop-color="#f58b1e" stop-opacity=".49"/>
			<stop offset=".739" stop-color="#f89d1b" stop-opacity=".26"/>
			<stop offset=".965" stop-color="#fcb718" stop-opacity=".04"/>
			<stop offset="1" stop-color="#fdbc17" stop-opacity="0"/>
		</radialGradient>
		<clipPath clipPathUnits="userSpaceOnUse" id="cp4">
			<path d="m918.13 430.82c-89.09-46.98-245.47 29.75-392.42 129.76-146.96 100.15-141.95 194.7-103.22 283.07 39.02 89.1 96.89 117.23 190.68 228.28 93.8 111.05 142.25 220.48 322.18 173.64 179.94-46.83 226.77-381.6 217.34-530.2-9.42-148.46-145.48-237.56-234.56-284.55z"/>
		</clipPath>
		<radialGradient id="g19" cx="0" cy="0" r="1" gradientUnits="userSpaceOnUse" gradientTransform="matrix(247.878,0,0,247.878,929.979,671.081)">
			<stop offset="0" stop-color="#fbb116" stop-opacity="1"/>
			<stop offset="1" stop-color="#fdbc17" stop-opacity="0"/>
		</radialGradient>
	</defs>
	<style>
		.s0 { opacity: .5;fill: url(#g1) } 
		.s1 { opacity: .5;fill: url(#g2) } 
		.s2 { opacity: .7;fill: #fab571 } 
		.s3 { opacity: .5;fill: #fde727 } 
		.s4 { opacity: .5;fill: url(#g3) } 
		.s5 { fill: #e74765 } 
		.s6 { fill: #e84978 } 
		.s7 { opacity: .7;fill: url(#g4) } 
		.s8 { opacity: .5;fill: #ffe0b0 } 
		.s9 { fill: #f6903f } 
		.s10 { opacity: .5;fill: url(#g5) } 
		.s11 { fill: #ffc93d } 
		.s12 { fill: #f05922 } 
		.s13 { fill: #ef818a } 
		.s14 { fill: url(#g6) } 
		.s15 { fill: url(#g7) } 
		.s16 { fill: #ec514e } 
		.s17 { fill: url(#g8) } 
		.s18 { fill: url(#g9) } 
		.s19 { fill: url(#g10) } 
		.s20 { fill: url(#g11) } 
		.s21 { fill: url(#g12) } 
		.s22 { fill: url(#g13) } 
		.s23 { fill: url(#g14) } 
		.s24 { fill: url(#g15) } 
		.s25 { fill: #f9a31a } 
		.s26 { fill: url(#g16) } 
		.s27 { fill: url(#g17) } 
		.s28 { fill: url(#g18) } 
		.s29 { fill: url(#g19) } 
	</style>
	<g id="Layer">
		<path id="Layer" class="s0" d="m564.4 103.6c-156.6 27.7-306.2 100.9-418 298.8-41.4 73.2-135.2 267-113.4 483.1 11.4 112.5 62.6 198.8 102.9 263.9 48.2 77.6 112.4 149.8 161.7 200 98.8 100.3 237.1 202.2 364.2 215.6 55.2 5.9 119.5 3.1 184.9-17.9 91-29.4 186.1-90.8 278-178 98.7-93.6 135.9-148.6 182.3-199.2 73-80 114.9-122.4 175.2-185.7 90.2-94.5 87.2-256.6 15.1-385.5-81.6-145.8-173.8-215.3-173.8-215.3 0 0-154.6-160.1-373.1-239.8-135.8-49.6-281.7-58.4-386-40z"/>
		<path id="Layer" class="s1" d="m1130.6 1432.8c-38 29.3-129 80.5-241.6 98.5 11 0 22.6 0 34.7-0.3 37.9-0.9 78.5 3.4 123.3 1.9 124.2-3.7 160-77.5 230.7-174.4 43-58.9 70.7-116.3 93.8-187.3 9.4-28.9 18.7-60.7 26.8-99.1-6.6 6.9-13.2 14-20.2 21.3-57.2 149.2-146.6 261.5-247.5 339.4z"/>
		<path id="Layer" class="s2" d="m520.7 1475.6c-139-60.8-169.3-77.4-288.5-197.3q-1.7-1.8-3.5-3.6c38 72.8 73.8 143.3 148.6 177.9 21.6 10.1 45.9 17.7 71.2 23.6 36.6 8.4 75.1 12.8 111.2 14.4-14-4.8-27.1-9.8-39-15z"/>
		<path id="Layer" class="s3" d="m1414.6 971.2c-2 10.7-4.2 20.6-6.4 29q-13 48.9-30.1 93.2c7-7.3 13.6-14.4 20.2-21.3 3.8-18.3 7.5-38 10.6-59.7 2.1-14.1 4-27.8 5.7-41.2z"/>
		<path id="Layer" class="s4" d="m950.7 143.5c-54.1-19.6-109.6-32.9-163.5-40.5-81.8-11.7-159.9-10.5-222.8 0.6-50.8 9-100.7 22.6-149 43.9-69.9 55.8-134.4 134.1-186.8 220.3-72.5 119.1-139.9 283.4-159.1 371.4-10.9 50.4-16.9 150.4 3.1 189.9 0.5 0.7 0.9 1.6 1.3 2.3-11.4-97.6 0.8-204.1 53.8-308.5 9.6-30.4 21.6-58.9 36.2-85.4 32.9-59.7 83.5-117.3 154-164.7 50.4-48.8 105-89 170.3-124.9 102.7-80.6 201-121.1 262.9-127.8 23.6-2.7 47-3 70-1.2 37.1 2.6 73.5 10.7 108.8 23.3 10.8 1.6 21.5 3.3 32 5.6-3.7-1.5-7.4-2.8-11.2-4.3z"/>
		<path id="Layer" class="s5" d="m821.1 118.7c-23.1-1.7-46.4-1.3-70 1.2-61.9 6.9-160.2 47.4-262.9 128 31.3-17.2 65.2-33.4 102.2-49.2 99.3-42.3 186.4-61.1 265.7-61.6 25.4-0.1 50 1.7 73.8 5.1-35.2-12.6-71.6-20.7-108.8-23.5z"/>
		<path id="Layer" class="s6" d="m317.8 372.8c-70.5 47.4-121.2 105-153.9 164.7-14.6 26.5-26.6 55.2-36.2 85.4 11-21.7 23.8-43.3 38.4-64.8 51.3-74.4 99.3-134.5 151.7-185.3z"/>
		<path id="Layer" class="s7" d="m1424.7 653.7c-2.5-23.6-5.6-43.8-9-61-17-86.6-46.4-144.4-67.5-176.9-14.1-21.9-24.6-32.4-24.6-32.4 0 0-3.2-3.4-9.4-9.3-35.5-34.6-170.8-157.3-352.2-226.3-10.6-2.3-21.2-4.2-31.9-5.6-24-3.4-48.5-5.2-73.8-5.1-79.5 0.5-166.4 19.3-265.8 61.6-37.1 15.8-70.8 32-102.2 49.2-29.4 23-59.2 49.3-88.6 79.1-0.8 0.7-1.5 1.6-2.4 2.3-81.3 82.7-146.9 175.3-195.2 261.8-52 93.2-84.1 182.3-95.8 267.4-2.9 21.1-4.5 42-5 62.5-0.4 21 0.8 41.7 3.6 62 10 75.7 41.2 148.1 89.8 229.1 12.1 20.2 23 40.8 33.7 61.5 1.3 1.6 2.8 3.2 4.1 4.8 119 119.9 149.5 136.4 288.5 197.4 11.9 5.1 25 10.3 39 15 99 33.6 243.9 54.2 329.1 40.6 112.7-17.9 203.7-69 241.7-98.5 100.8-77.9 190.2-190.1 247.3-339.3 11.4-29.6 21.5-60.7 30.1-93.2 2.2-8.6 4.4-18.3 6.4-29.1 18.6-143.1 17.6-245.8 10.1-317.6z"/>
		<path id="Layer" class="s8" d="m1180.2 242.3c-70.8-45.1-141.8-78.5-218.2-94.5 181.4 69 316.7 191.7 352.5 226.2 6.2 5.9 9.4 9.3 9.4 9.3 0 0-39.4-74.7-143.7-141z"/>
		<path id="Layer" class="s9" d="m723.6 1477.4c-25.5 5.6-51.5 9.6-77.9 11.8 81.9 27.4 144 41.4 243.1 41.9 54.8-23.2 110.8-57.4 166.1-101.3-35.5 17.3-73.8 32-115.1 44.5-78.5 24-149 22.5-216.2 3.1z"/>
		<path id="Layer" class="s10" d="m1424.7 653.7c-2.5-23.6-5.6-43.8-9-61-17-86.6-46.4-144.4-67.5-176.9-14.1-21.9-24.6-32.4-24.6-32.4 0 0-3.2-3.4-9.4-9.3-14.7-13.8-45.9-40.2-86-57.7-20.1-8.8-44.1-16.5-74.3-24.3 4.2 4.3 8.4 8.7 12.6 13.1 108.9 115.9 203.5 238.3 232 422 7.5 48.4-3.7 106.6-17.9 155.8 28.2 79.1 21.7 93.8 6.2 145.5-6.3 21.3-25 48.9-58 78.8-8.5 24.6-18 47.7-28 69.5 2.1-2.4 4.1-4.7 6.4-6.9 26.9-29.6 49.7-54.1 70.6-76.3 11.4-29.6 21.5-60.7 30.1-93.2 2.2-8.6 4.4-18.3 6.5-29.1 18.8-143.1 17.8-245.8 10.3-317.6z"/>
		<path id="Layer" class="s11" d="m1380.8 882.8c0 0.2 0 0.3 0 0.3-0.5 42.4-22.5 139.9-51.9 223.9 33-29.8 51.7-57.5 58.1-78.8 15.4-51.6 22.1-66.3-6.2-145.4z"/>
		<path id="Layer" class="s12" d="m399.5 327c29.5-29.8 59.2-56.1 88.7-79.1-65.4 35.9-119.9 76.1-170.3 124.9q34.6-23.4 76-43.3c1.8-0.9 3.7-1.8 5.6-2.5z"/>
		<path id="Layer" class="s13" d="m228.1 1273.4c-10.7-20.6-21.6-41.2-33.7-61.4-48.6-81-79.7-153.5-89.8-229.2-2.7-20.3-3.9-40.9-3.6-62 0.5-20.6 2.1-41.4 5-62.4-8.8-82.9-0.8-163.8 21.7-235.5-52.9 104.3-65.1 210.7-53.8 308.5 12.6 106.7 53.2 202.7 100 273.7 17.8 27.1 36.5 50.5 55 69.5-0.3-0.3-0.5-0.7-0.8-1.2z"/>
		<path id="Layer" class="s14" d="m232.4 1180.6c-31.5-42.4-56.8-87-76.6-132.8-26.8-62.2-43.1-126.4-49.8-189.4-2.9 21-4.5 42-5 62.4-0.4 21.1 0.8 41.7 3.6 62 10 75.7 41.2 148.2 89.8 229.2 12.1 20.2 23 40.8 33.7 61.4 1.3 1.6 2.8 3.3 4.1 4.9 119 119.9 149.5 136.4 288.5 197.3 11.9 5.2 25 10.3 39 15 31.8 1.5 61.6 0.8 86-1.3-92.3-31.1-259-100.7-413.3-308.7z"/>
		<path id="Layer" class="s15" d="m929.9 142.2c-24-3.4-48.4-5.2-73.8-5.1-79.5 0.5-166.4 19.3-265.7 61.6-37.2 15.8-70.9 32-102.2 49.2-29.5 23-59.2 49.3-88.7 79.1 122.7-57.2 298-95.3 415.3-93.2 54.9 1 132.3 14.5 219.7 31.9 17.6 3.6 34 6.9 49.3 10 26.6 5.6 49.9 10.9 70.4 16.1-66.3-67.3-142.4-120.6-224.3-149.6z"/>
		<path id="Layer" class="s16" d="m106 858.4c11.8-85.2 43.8-174.3 95.8-267.5 48.3-86.6 113.9-179.1 195.2-261.7 0.7-0.7 1.5-1.6 2.4-2.4-1.8 0.9-3.7 1.8-5.6 2.7-27.6 13.1-52.9 27.7-76 43.3-52.4 50.8-100.6 111-151.7 185.4-14.7 21.4-27.5 43-38.4 64.8-22.5 71.7-30.3 152.6-21.7 235.4z"/>
		<path id="Layer" class="s17" d="m1328.9 1107.1c-23.2 51.9-61.5 101.9-129.8 145.4-43.8 27.7-89.6 46.4-134 59.3-11.7 8.7-23.7 17.4-36.4 25.8-93.9 62.9-195.4 115.8-304.9 139.8 67.1 19.4 137.6 20.9 216.1-3.1 41.4-12.7 79.8-27.2 115.2-44.5 107.9-52.7 188.9-130.3 245.9-253.3 10.1-21.7 19.4-44.8 27.9-69.4z"/>
		<path id="Layer" class="s18" d="m1380.8 883.1c0-0.1 0-0.3 0-0.3-19.8 68.8-52 129.8-108.5 207.4-27.3 37.6-54.4 73-84 106.8 62.2-29.5 108.4-60.7 140.8-89.9 29.2-84.1 51.2-181.4 51.7-224z"/>
		<path id="Layer" class="s19" d="m645.7 1489.3c26.4-2.2 52.4-6.2 77.9-11.8 109.6-24 211-76.8 305-139.7 12.6-8.6 24.8-17.1 36.3-25.8 48.3-36.2 87.6-74.2 123.3-114.7 22.2-25.4 43-51.7 63.6-79.1 6.8-9.2 13.7-18.4 20.5-27.7 56.5-77.6 88.7-138.6 108.5-207.4 14.1-49.3 25.3-107.3 17.8-155.8-28.4-183.8-123-306.2-231.8-422.3-4.1-4.4-8.4-8.8-12.6-13.1-66.3-67.4-142.4-120.7-224.3-149.9-24-3.4-48.4-5.1-73.8-5-79.5 0.4-166.4 19.3-265.7 61.6-37.2 15.7-70.9 31.9-102.2 49.2-29.5 22.9-59.2 49.3-88.7 79-0.7 0.8-1.5 1.7-2.3 2.4-81.3 82.6-147 175.1-195.3 261.7-52 93.2-84.1 182.3-95.7 267.5-2.9 21-4.6 42-5 62.4-0.5 21.1 0.7 41.7 3.5 62 10 75.7 41.3 148.2 89.8 229.2 12.1 20.2 23 40.8 33.8 61.4 1.3 1.6 2.8 3.3 4.1 4.9 119 119.9 149.4 136.4 288.4 197.3 12 5.2 25.1 10.3 39.1 15 31.6 1.5 61.4 0.8 85.8-1.3z"/>
		<path id="Layer" class="s20" d="m1398.7 727c-28.5-183.5-123.1-305.9-231.9-422-4.1-4.4-8.4-8.8-12.6-13.1-20.5-5.3-43.8-10.4-70.4-16-15.3-3.3-31.7-6.5-49.3-10-87.5-17.6-164.8-31.1-219.7-32-117.3-2.1-292.6 36.1-415.3 93.2-0.7 0.8-1.5 1.7-2.3 2.4-81.3 82.6-147 175.1-195.3 261.7-52 93.2-84.1 182.3-95.7 267.5 6.6 63 23 127.1 49.8 189.4 19.7 45.6 45 90.4 76.5 132.8 154.4 208 320.9 277.6 413.4 308.7 26.3-2.2 52.4-6.2 77.9-11.8 109.5-24 211-76.8 304.9-139.7 12.7-8.6 24.9-17.1 36.4-25.8 48.3-36.2 87.6-74.2 123.2-114.7 22.3-25.4 43-51.7 63.6-79.1 6.8-9.2 13.7-18.4 20.5-27.7 56.5-77.6 88.8-138.6 108.5-207.4 14-49.8 25.4-107.9 17.8-156.4z"/>
		<path id="Layer" class="s21" d="m1337.6 573.1c-5.9-16.9-12.5-32.7-19.5-47.6-0.8-1.4-1.5-2.8-2.3-4.1-21-39.3-43.4-72-66.8-99.7-21.8-25.8-44.2-47.1-67.2-65-55.9-43.7-114.4-67.1-170.8-85.5-120.7-39.6-279-31.4-446.9 39-159 66.6-249.5 147.7-297.3 220-47.7 72.4-66.1 138.5-94.9 212.6-18.9 48.4-39.2 88 62.3 222.5 46.6 61.9 94.3 114.4 143.7 159.9 69 63.8 141.3 114 218.2 156.9 18.4 10.3 35.3 18.9 51.2 26.2 98.4 45.2 153.8 39 220.3 34.2 48.9-3.6 120.9-8.4 197.3-30.7 48.3-36.2 87.6-74.2 123.3-114.7 29.7-33.9 56.7-69.2 84.1-106.8 56.5-77.6 88.7-138.5 108.5-207.3 0.1-92.1-15.5-226.5-43.2-309.9z"/>
		<path id="Layer" class="s22" d="m815.9 329.2c-124.1-38.3-246.3 28.9-322.9 60.7-76.6 31.8-162.4 99.8-173.6 323.8-6 121.1 15 294.5 58.5 411.4 69 63.8 141.3 114 218.2 156.9 18.4 10.3 35.3 18.8 51.2 26.2 62.5 1.3 133-5.8 207.2-17.7 72.2-11.6 163.9-29.5 231.9-52.7 37.7-12.8 71.6-26.7 101.6-40.8 29.8-33.9 56.7-69.2 84.1-106.8 56.6-77.6 88.8-138.6 108.5-207.4-21.8-61.1-53.7-125.8-138.4-236.2-151.1-196.9-302.1-279.1-426.3-317.4z"/>
		<g id="Layer">
			<g id="Layer">
				<g id="Layer">
					<g id="Clip-Path: Clip-Path" clip-path="url(#cp1)">
						<g id="Clip-Path">
							<path id="Layer" class="s23" d="m607.1 1295.4c61.7-75.9 58.3-180.8-7.3-234.2-65.8-53.5-169.1-35.2-230.6 40.6-61.6 75.9-58.3 180.7 7.3 234.2 65.7 53.5 169.1 35.2 230.6-40.6z"/>
						</g>
					</g>
				</g>
			</g>
		</g>
		<g id="Layer">
			<g id="Layer">
				<g id="Layer">
					<g id="Clip-Path: Clip-Path" clip-path="url(#cp2)">
						<g id="Clip-Path">
							<path id="Layer" class="s24" d="m1069.8 334.4c-102.8-272.1-418.5-404.8-704.9-296.4-286.4 108.4-435.1 416.8-332.3 688.9 102.8 272 418.5 404.7 704.9 296.3 286.4-108.4 435.2-416.7 332.3-688.8z"/>
						</g>
					</g>
				</g>
			</g>
		</g>
		<path id="Layer" class="s25" d="m378 1125.1c0.8 1.9 1.5 4 2.2 5.9 36.8 95.9 90 142.4 148.5 160.5 34.3 10.6 74.6 15.8 118.9 16.7-15.9-7.4-33-16.1-51.2-26.2-77.2-42.9-149.3-93.1-218.4-156.9z"/>
		<path id="Layer" class="s26" d="m1065.1 1311.8c44.4-12.8 90.2-31.6 134-59.3 68.3-43.5 106.7-93.5 129.8-145.4-32.3 29.2-78.6 60.6-140.7 89.9-35.5 40.5-74.8 78.6-123.1 114.8z"/>
		<path id="Layer" class="s27" d="m918.1 430.8c-89.1-47-245.4 29.8-392.4 129.8-146.9 100.1-141.9 194.7-103.2 283 39 89.2 96.9 117.3 190.7 228.3 93.8 111.1 142.2 220.5 322.2 173.7 179.9-46.9 226.7-381.6 217.3-530.2-9.4-148.5-145.5-237.6-234.6-284.6z"/>
		<g id="Layer">
			<g id="Layer">
				<g id="Layer">
					<g id="Clip-Path: Clip-Path" clip-path="url(#cp3)">
						<g id="Clip-Path">
							<path id="Layer" class="s28" d="m594 1072.1c-282.9 0-511.7-232.1-511.7-519.2 0-287.1 228.8-519.1 511.7-519.1 283 0 511.7 232 511.7 519.1 0 287.1-228.7 519.2-511.7 519.2z"/>
						</g>
					</g>
				</g>
			</g>
		</g>
		<g id="Layer">
			<g id="Layer">
				<g id="Layer">
					<g id="Clip-Path: Clip-Path" clip-path="url(#cp4)">
						<g id="Clip-Path">
							<path id="Layer" class="s29" d="m929.9 918.9c-137 0-247.8-110.8-247.8-247.9 0-137 110.8-247.8 247.8-247.8 137 0 247.8 110.8 247.8 247.8 0 137.1-110.8 247.9-247.8 247.9z"/>
						</g>
					</g>
				</g>
			</g>
		</g>
	</g>
</svg>